Fraunces72ptSharp-Bold.ufo
<glyph name="exclam" format="2">
  <advance width="611.96"/>
  <unicode hex="0021"/>
  <outline>
    <contour>
      <point x="308.58666666666664" y="1483.0666666666666" type="curve" smooth="yes"/>
      <point x="168.49333333333334" y="1483.0666666666666"/>
      <point x="100.32000000000001" y="1413.8837209302326"/>
      <point x="100.32000000000001" y="1312.8933333333334" type="curve" smooth="yes"/>
      <point x="100.32000000000001" y="1274.6976744186045"/>
      <point x="104.31143931244007" y="1238.1871249376018"/>
      <point x="118.97333333333331" y="1183.4266666666663" type="curve" smooth="yes"/>
      <point x="260.9066666666667" y="505.46666666666675" type="line" smooth="yes"/>
      <point x="269.44000000000005" y="472.32000000000005"/>
      <point x="280.04" y="457.14666666666665"/>
      <point x="303.64000000000004" y="457.14666666666665" type="curve" smooth="yes"/>
      <point x="327.6133333333334" y="457.14666666666665"/>
      <point x="338.21333333333325" y="472.3200000000001"/>
      <point x="346.74666666666667" y="505.46666666666675" type="curve" smooth="yes"/>
      <point x="492.41333333333336" y="1181.1866666666663" type="line" smooth="yes"/>
      <point x="505.01951635581634" y="1227.92473528333"/>
      <point x="511.4400000000001" y="1275.5333333333333"/>
      <point x="511.4400000000001" y="1312.3333333333335" type="curve" smooth="yes"/>
      <point x="511.4400000000001" y="1413.48"/>
      <point x="448.40000000000003" y="1483.0666666666666"/>
    </contour>
    <component base="period" xOffset="35.28" yOffset="1.0266666666666668"/>
  </outline>
</glyph>
<glyph name="numbersign" format="2">
  <advance width="1272.2266666666667"/>
  <unicode hex="0023"/>
  <outline>
    <contour>
      <point x="485.1333333333333" y="690.1999999999999" type="curve" smooth="yes"/>
      <point x="523.7466666666668" y="829.8133333333333"/>
      <point x="632.8266666666667" y="1201.2133333333331"/>
      <point x="674.2666666666667" y="1350.0133333333333" type="curve" smooth="yes"/>
      <point x="681.8800000000001" y="1377.8266666666668"/>
      <point x="672.4533333333334" y="1398.5466666666666"/>
      <point x="644.16" y="1405.68" type="curve" smooth="yes"/>
      <point x="616.4666666666666" y="1412.2799999999997"/>
      <point x="597.7199999999999" y="1399.4533333333334"/>
      <point x="589.2133333333334" y="1372.2666666666664" type="curve" smooth="yes"/>
      <point x="552.0933333333332" y="1234.0266666666669"/>
      <point x="467.36000000000007" y="848.6800000000001"/>
      <point x="427.36" y="704.9733333333334" type="curve" smooth="yes"/>
      <point x="388.22666666666663" y="561.1199999999999"/>
      <point x="265.17333333333335" y="185.0533333333333"/>
      <point x="227.79999999999998" y="50.906666666666666" type="curve" smooth="yes"/>
      <point x="220.23999999999998" y="22.906666666666663"/>
      <point x="229.66666666666666" y="2.8933333333333335"/>
      <point x="257.5333333333333" y="-4.666666666666667" type="curve" smooth="yes"/>
      <point x="285.2266666666667" y="-11.266666666666667"/>
      <point x="303.9733333333333" y="1.2800000000000002"/>
      <point x="312.38666666666666" y="29.17333333333333" type="curve" smooth="yes"/>
      <point x="353.5466666666666" y="179.66666666666669"/>
      <point x="447.6666666666667" y="553.3733333333333"/>
    </contour>
    <contour>
      <point x="674.6533333333333" y="953.1733333333334" type="curve" smooth="yes"/>
      <point x="555.5733333333333" y="952.2266666666666"/>
      <point x="267.7866666666667" y="970.0133333333334"/>
      <point x="155.56" y="969.5866666666668" type="curve" smooth="yes"/>
      <point x="124.72" y="969.1600000000001"/>
      <point x="105.56" y="955.4133333333333"/>
      <point x="105.56" y="928.04" type="curve" smooth="yes"/>
      <point x="105.98666666666666" y="901.5200000000001"/>
      <point x="124.72" y="886.8266666666668"/>
      <point x="155.65333333333336" y="887.2533333333332" type="curve" smooth="yes"/>
      <point x="275.6266666666667" y="886.8266666666668"/>
      <point x="559.88" y="896.8533333333335"/>
      <point x="674.2266666666666" y="897.8000000000001" type="curve" smooth="yes"/>
      <point x="788.5200000000001" y="897.8000000000001"/>
      <point x="1064.6399999999999" y="885.0266666666665"/>
      <point x="1183.3333333333335" y="884.5999999999998" type="curve" smooth="yes"/>
      <point x="1213.8933333333334" y="885.0266666666666"/>
      <point x="1232.6266666666668" y="899.72"/>
      <point x="1233.4799999999998" y="926.6666666666665" type="curve" smooth="yes"/>
      <point x="1232.6266666666668" y="953.1866666666666"/>
      <point x="1213.466666666667" y="967.36"/>
      <point x="1183.76" y="967.36" type="curve" smooth="yes"/>
      <point x="1072.9066666666665" y="966.5066666666668"/>
      <point x="791.6666666666666" y="953.1733333333334"/>
    </contour>
    <contour>
      <point x="606.1066666666667" y="467.29333333333335" type="curve" smooth="yes"/>
      <point x="719.6" y="467.29333333333335"/>
      <point x="996.0933333333331" y="454.9466666666667"/>
      <point x="1115.2133333333334" y="454.09333333333336" type="curve" smooth="yes"/>
      <point x="1145.7733333333333" y="454.9466666666667"/>
      <point x="1164.8799999999999" y="469.2133333333333"/>
      <point x="1165.7333333333333" y="496.16" type="curve" smooth="yes"/>
      <point x="1164.8799999999999" y="522.6800000000002"/>
      <point x="1145.3466666666668" y="536.8533333333332"/>
      <point x="1115.64" y="536.8533333333332" type="curve" smooth="yes"/>
      <point x="1005.1599999999999" y="536.0"/>
      <point x="723.9199999999998" y="522.6666666666666"/>
      <point x="606.5333333333333" y="522.6666666666666" type="curve" smooth="yes"/>
      <point x="487.8266666666667" y="522.1466666666668"/>
      <point x="199.24" y="539.5066666666667"/>
      <point x="87.81333333333333" y="539.08" type="curve" smooth="yes"/>
      <point x="56.97333333333334" y="539.08"/>
      <point x="37.81333333333333" y="525.3333333333334"/>
      <point x="37.81333333333333" y="497.96" type="curve" smooth="yes"/>
      <point x="38.24" y="471.44"/>
      <point x="56.97333333333333" y="456.7466666666667"/>
      <point x="87.90666666666667" y="456.7466666666667" type="curve" smooth="yes"/>
      <point x="207.13333333333333" y="456.74666666666667"/>
      <point x="491.76" y="466.7733333333333"/>
    </contour>
    <contour>
      <point x="680.3199999999999" y="29.17333333333333" type="curve" smooth="yes"/>
      <point x="721.4799999999999" y="179.29333333333335"/>
      <point x="815.6000000000001" y="553.3733333333333"/>
      <point x="853.0666666666665" y="690.1999999999999" type="curve" smooth="yes"/>
      <point x="891.3066666666666" y="829.0133333333333"/>
      <point x="1000.76" y="1201.5866666666668"/>
      <point x="1041.4" y="1349.2133333333334" type="curve" smooth="yes"/>
      <point x="1049.8133333333335" y="1377.0266666666669"/>
      <point x="1040.3866666666668" y="1398.5466666666666"/>
      <point x="1012.0933333333332" y="1405.68" type="curve" smooth="yes"/>
      <point x="984.4000000000001" y="1412.2799999999997"/>
      <point x="965.6533333333334" y="1399.08"/>
      <point x="957.5733333333334" y="1371.4666666666665" type="curve" smooth="yes"/>
      <point x="920.0266666666669" y="1234.4"/>
      <point x="835.72" y="849.48"/>
      <point x="795.72" y="704.9733333333334" type="curve" smooth="yes"/>
      <point x="756.16" y="560.7466666666668"/>
      <point x="633.1066666666666" y="184.68"/>
      <point x="595.7333333333335" y="50.906666666666666" type="curve" smooth="yes"/>
      <point x="588.1733333333335" y="23.279999999999998"/>
      <point x="597.6000000000001" y="2.8933333333333335"/>
      <point x="625.84" y="-4.666666666666667" type="curve" smooth="yes"/>
      <point x="653.1600000000001" y="-11.266666666666667"/>
      <point x="671.9066666666666" y="1.6533333333333333"/>
    </contour>
  </outline>
</glyph>
<glyph name="dollar" format="2">
  <advance width="1171.4933333333329"/>
  <unicode hex="0024"/>
  <outline>
    <contour>
      <point x="616.4133333333332" y="1393.2" type="curve" smooth="yes"/>
      <point x="286.5857046299148" y="1393.2"/>
      <point x="84.2" y="1213.4799999999996"/>
      <point x="84.2" y="987.4533333333333" type="curve" smooth="yes"/>
      <point x="84.2" y="790.6818245614033"/>
      <point x="195.27034661612788" y="660.204779214525"/>
      <point x="514.0799999999999" y="550.0533333333333" type="curve" smooth="yes"/>
      <point x="734.0963928902779" y="475.49269877574494"/>
      <point x="806.1333333333334" y="389.0282352941177"/>
      <point x="806.1333333333334" y="257.32" type="curve" smooth="yes"/>
      <point x="806.1333333333334" y="130.92856830601093"/>
      <point x="719.6330275229359" y="49.160000000000004"/>
      <point x="581.4666666666667" y="49.160000000000004" type="curve" smooth="yes"/>
      <point x="445.69333333333327" y="49.160000000000004"/>
      <point x="363.09333333333336" y="125.82666666666668"/>
      <point x="363.09333333333336" y="235.29333333333335" type="curve" smooth="yes"/>
      <point x="363.09333333333336" y="324.48" type="line" smooth="yes"/>
      <point x="363.09333333333336" y="419.9333333333334"/>
      <point x="294.35999999999996" y="481.8666666666667"/>
      <point x="209.82666666666668" y="481.8666666666667" type="curve" smooth="yes"/>
      <point x="115.26666666666667" y="481.8666666666667"/>
      <point x="57.28" y="416.32"/>
      <point x="57.28" y="324.22666666666663" type="curve" smooth="yes"/>
      <point x="57.28" y="148.30666666666667"/>
      <point x="239.49118881118878" y="4.6"/>
      <point x="580.3466666666667" y="4.6" type="curve" smooth="yes"/>
      <point x="912.7229629629629" y="4.6"/>
      <point x="1115.6" y="166.13454545454545"/>
      <point x="1115.6" y="406.8" type="curve" smooth="yes"/>
      <point x="1115.6" y="594.6720069808027"/>
      <point x="1006.9466666666666" y="735.0933333333334"/>
      <point x="681.96" y="844.9200000000001" type="curve" smooth="yes"/>
      <point x="460.7706674832724" y="918.9540195523632"/>
      <point x="385.7066666666667" y="1005.3866666666667"/>
      <point x="385.7066666666667" y="1134.4933333333336" type="curve" smooth="yes"/>
      <point x="385.7066666666667" y="1273.6533333333334"/>
      <point x="476.6593932123756" y="1350.1866666666667"/>
      <point x="609.3866666666668" y="1350.1866666666667" type="curve" smooth="yes"/>
      <point x="730.5386892468678" y="1350.1866666666667"/>
      <point x="804.12" y="1268.5414749262536"/>
      <point x="804.12" y="1141.6" type="curve" smooth="yes"/>
      <point x="804.12" y="1056.9333333333334" type="line" smooth="yes"/>
      <point x="804.12" y="968.3066666666666"/>
      <point x="868.3066666666667" y="907.6933333333334"/>
      <point x="969.4266666666667" y="907.6933333333334" type="curve" smooth="yes"/>
      <point x="1062.5466666666666" y="907.6933333333334"/>
      <point x="1111.8266666666668" y="978.9333333333334"/>
      <point x="1111.8266666666668" y="1066.36" type="curve" smooth="yes"/>
      <point x="1111.8266666666668" y="1256.666524317912"/>
      <point x="930.928546460436" y="1393.2"/>
    </contour>
    <contour>
      <point x="631.2666666666667" y="742.2533333333333" type="line"/>
      <point x="631.4266666666665" y="1102.6533333333334"/>
      <point x="657.6666666666667" y="1384.4933333333333"/>
      <point x="657.6666666666667" y="1531.8666666666668" type="curve" smooth="yes"/>
      <point x="657.6666666666667" y="1568.4933333333333"/>
      <point x="636.6266666666668" y="1588.0533333333333"/>
      <point x="608.8133333333333" y="1588.0533333333333" type="curve" smooth="yes"/>
      <point x="579.2" y="1588.0533333333333"/>
      <point x="559.8666666666667" y="1568.0666666666666"/>
      <point x="559.8666666666667" y="1532.8133333333333" type="curve" smooth="yes"/>
      <point x="559.8666666666667" y="1365.6933333333332"/>
      <point x="586.5466666666666" y="1095.2"/>
      <point x="586.2800000000001" y="742.2533333333333" type="curve"/>
    </contour>
    <contour>
      <point x="561.5866666666667" y="679.5999999999999" type="line"/>
      <point x="560.8933333333333" y="329.14666666666665"/>
      <point x="534.7466666666667" y="58.97333333333333"/>
      <point x="534.7466666666667" y="-107.18666666666668" type="curve" smooth="yes"/>
      <point x="534.7466666666667" y="-143.62666666666667"/>
      <point x="555.3600000000001" y="-163.0"/>
      <point x="583.6933333333334" y="-163.0" type="curve" smooth="yes"/>
      <point x="613.2133333333334" y="-163.0"/>
      <point x="632.5466666666666" y="-143.10666666666668"/>
      <point x="632.5466666666666" y="-107.94666666666666" type="curve" smooth="yes"/>
      <point x="632.5466666666666" y="40.54666666666667"/>
      <point x="605.9866666666667" y="322.12"/>
      <point x="606.1466666666668" y="679.5999999999999" type="curve"/>
    </contour>
  </outline>
</glyph>
<glyph name="ampersand" format="2">
  <advance width="1927.6133333333337"/>
  <unicode hex="0026"/>
  <outline>
    <contour>
      <point x="1303.9199999999998" y="-35.22666666666667" type="curve" smooth="yes"/>
      <point x="1072.305655552364" y="-35.22666666666667"/>
      <point x="895.7897072687715" y="44.19211369076079"/>
      <point x="759.76" y="248.29333333333338" type="curve" smooth="yes"/>
      <point x="621.1140294525036" y="455.1345347590548"/>
      <point x="562.7599999999999" y="648.5466666666665"/>
      <point x="562.7599999999999" y="835.44" type="curve" smooth="yes"/>
      <point x="562.7599999999999" y="1087.48"/>
      <point x="722.2406796460176" y="1272.4533333333334"/>
      <point x="988.5333333333334" y="1272.4533333333334" type="curve" smooth="yes"/>
      <point x="1184.0395663956642" y="1272.4533333333334"/>
      <point x="1319.0533333333333" y="1153.2666666666669"/>
      <point x="1319.0533333333333" y="987.5466666666667" type="curve" smooth="yes"/>
      <point x="1319.0533333333333" y="792.8574085064292"/>
      <point x="1146.6616386446292" y="668.6472827624408"/>
      <point x="866.6933333333334" y="661.08" type="curve"/>
      <point x="858.0266666666668" y="697.0933333333332" type="line"/>
      <point x="966.3159804842677" y="704.4428269526419"/>
      <point x="1044.4933333333336" y="816.708350877193"/>
      <point x="1044.4933333333336" y="1009.9466666666667" type="curve" smooth="yes"/>
      <point x="1044.4933333333336" y="1130.1733333333334"/>
      <point x="1019.2586666666666" y="1213.9599999999998"/>
      <point x="969.0533333333333" y="1213.9599999999998" type="curve" smooth="yes"/>
      <point x="906.539245852187" y="1213.9599999999998"/>
      <point x="856.96" y="1120.0533333333333"/>
      <point x="856.96" y="987.72" type="curve" smooth="yes"/>
      <point x="856.96" y="783.8399999999999"/>
      <point x="923.1156867314721" y="616.6008714111833"/>
      <point x="1059.8533333333332" y="419.62666666666667" type="curve" smooth="yes"/>
      <point x="1230.5121812916877" y="172.05384575286118"/>
      <point x="1325.706598591738" y="89.80000000000001"/>
      <point x="1470.013333333333" y="89.80000000000001" type="curve" smooth="yes"/>
      <point x="1652.819829059829" y="89.80000000000001"/>
      <point x="1787.72" y="226.66666666666666"/>
      <point x="1787.72" y="518.2933333333334" type="curve" smooth="yes"/>
      <point x="1787.72" y="747.0847714604237"/>
      <point x="1696.8133333333335" y="984.9733333333334"/>
      <point x="1520.8933333333332" y="1169.44" type="curve" smooth="yes"/>
      <point x="1348.9444459269253" y="1351.8399849024438"/>
      <point x="1104.9333333333334" y="1468.5866666666666"/>
      <point x="829.2800000000001" y="1468.5866666666666" type="curve" smooth="yes"/>
      <point x="512.1733333333334" y="1468.5866666666666"/>
      <point x="371.1466666666667" y="1350.5599999999997"/>
      <point x="371.1466666666667" y="1184.5600000000002" type="curve" smooth="yes"/>
      <point x="371.1466666666667" y="1070.813333333333"/>
      <point x="430.8266666666667" y="1024.4533333333331"/>
      <point x="430.8266666666667" y="912.1333333333332" type="curve" smooth="yes"/>
      <point x="430.8266666666667" y="827.0533333333334"/>
      <point x="368.90666666666664" y="766.3333333333334"/>
      <point x="282.2" y="766.3333333333334" type="curve" smooth="yes"/>
      <point x="174.50666666666666" y="766.3333333333334"/>
      <point x="110.04" y="853.04"/>
      <point x="110.04" y="992.8666666666667" type="curve" smooth="yes"/>
      <point x="110.04" y="1309.2799999999997"/>
      <point x="371.25333333333333" y="1526.4266666666665"/>
      <point x="835.3466666666666" y="1526.4266666666665" type="curve" smooth="yes"/>
      <point x="1124.6246140116018" y="1526.4266666666665"/>
      <point x="1385.5066666666667" y="1406.3866666666668"/>
      <point x="1570.7866666666664" y="1212.5866666666666" type="curve" smooth="yes"/>
      <point x="1753.96" y="1022.9466666666667"/>
      <point x="1854.7733333333333" y="775.815080058224"/>
      <point x="1854.7733333333333" y="518.9066666666668" type="curve" smooth="yes"/>
      <point x="1854.7733333333333" y="161.84"/>
      <point x="1653.8634599156117" y="-35.22666666666667"/>
    </contour>
    <contour>
      <point x="1182.9466666666667" y="215.26666666666662" type="line"/>
      <point x="1282.426738578083" y="277.9063310415193"/>
      <point x="1320.1733333333334" y="372.83281122195467"/>
      <point x="1320.1733333333334" y="439.94666666666666" type="curve" smooth="yes"/>
      <point x="1320.1733333333334" y="528.5955043870125"/>
      <point x="1285.8266666666666" y="564.1335672514621"/>
      <point x="1285.8266666666666" y="632.3466666666668" type="curve" smooth="yes"/>
      <point x="1285.8266666666666" y="712.8046408839776"/>
      <point x="1349.1466666666665" y="782.6933333333334"/>
      <point x="1439.3999999999999" y="782.6933333333334" type="curve" smooth="yes"/>
      <point x="1525.9600000000003" y="782.6933333333334"/>
      <point x="1586.88" y="715.24"/>
      <point x="1586.88" y="597.2666666666667" type="curve" smooth="yes"/>
      <point x="1586.88" y="425.18839907192574"/>
      <point x="1459.5937619873544" y="271.4910112088874"/>
      <point x="1201.9733333333336" y="180.49333333333334" type="curve"/>
    </contour>
    <contour>
      <point x="618.5999999999999" y="633.8666666666666" type="line"/>
      <point x="514.7951832815896" y="624.7645206789496"/>
      <point x="454.61333333333334" y="517.0259360730593"/>
      <point x="454.61333333333334" y="379.7066666666667" type="curve" smooth="yes"/>
      <point x="454.61333333333334" y="210.02076522803796"/>
      <point x="543.36" y="104.39999999999998"/>
      <point x="685.12" y="104.39999999999998" type="curve" smooth="yes"/>
      <point x="760.203076923077" y="104.39999999999998"/>
      <point x="815.3929940676026" y="127.28832046791102"/>
      <point x="864.8266666666666" y="169.34666666666666" type="curve"/>
      <point x="895.0000000000001" y="119.25333333333333" type="line"/>
      <point x="809.1650406537935" y="33.90077766235575"/>
      <point x="690.148281868567" y="-25.84"/>
      <point x="482.3866666666667" y="-25.84" type="curve" smooth="yes"/>
      <point x="235.95999999999998" y="-25.84"/>
      <point x="95.49333333333333" y="97.01256026335349"/>
      <point x="95.49333333333333" y="303.17333333333335" type="curve" smooth="yes"/>
      <point x="95.49333333333333" y="524.2266666666666"/>
      <point x="284.25322535316" y="669.0228079105161"/>
      <point x="618.04" y="677.2933333333333" type="curve"/>
    </contour>
  </outline>
</glyph>
<glyph name="quotesingle" format="2">
  <advance width="377.5066666666667"/>
  <unicode hex="0027"/>
  <outline>
    <contour>
      <point x="180.07999999999998" y="835.2" type="curve" smooth="yes"/>
      <point x="206.17333333333332" y="835.2"/>
      <point x="223.57333333333332" y="849.52"/>
      <point x="231.0933333333334" y="883.8533333333334" type="curve" smooth="yes"/>
      <point x="331.6133333333333" y="1360.8933333333334" type="line" smooth="yes"/>
      <point x="362.9037688787493" y="1499.3815993664532"/>
      <point x="314.8355025666502" y="1584.6666666666667"/>
      <point x="190.7733333333333" y="1584.6666666666667" type="curve" smooth="yes"/>
      <point x="67.33212121212121" y="1584.6666666666667"/>
      <point x="15.301229632890614" y="1503.8173154303327"/>
      <point x="44.24" y="1360.0933333333332" type="curve" smooth="yes"/>
      <point x="133.01333333333335" y="884.7066666666667" type="line" smooth="yes"/>
      <point x="139.30666666666667" y="852.4000000000001"/>
      <point x="157.72" y="835.2"/>
    </contour>
  </outline>
</glyph>
<glyph name="parenleft" format="2">
  <advance width="710.8666666666668"/>
  <unicode hex="0028"/>
  <outline>
    <contour>
      <point x="136.0" y="610.72" type="curve" smooth="yes"/>
      <point x="136.0" y="206.48000000000002"/>
      <point x="343.2933333333333" y="-107.85333333333332"/>
      <point x="616.4133333333334" y="-228.50666666666663" type="curve" smooth="yes"/>
      <point x="657.6000000000001" y="-244.85333333333338"/>
      <point x="679.9866666666667" y="-248.6"/>
      <point x="690.0400000000001" y="-236.15999999999997" type="curve" smooth="yes"/>
      <point x="699.3466666666666" y="-224.29333333333332"/>
      <point x="693.3733333333334" y="-209.92000000000002"/>
      <point x="662.0533333333334" y="-170.37333333333333" type="curve" smooth="yes"/>
      <point x="515.6933333333333" y="2.733333333333333"/>
      <point x="414.1333333333333" y="281.5466666666666"/>
      <point x="414.1333333333333" y="610.72" type="curve" smooth="yes"/>
      <point x="414.1333333333333" y="939.8933333333333"/>
      <point x="515.6933333333333" y="1218.3333333333333"/>
      <point x="662.0533333333334" y="1391.813333333333" type="curve" smooth="yes"/>
      <point x="693.3733333333334" y="1431.36"/>
      <point x="699.3466666666666" y="1445.7333333333333"/>
      <point x="690.0400000000001" y="1457.5999999999997" type="curve" smooth="yes"/>
      <point x="679.9866666666667" y="1470.04"/>
      <point x="657.6000000000001" y="1466.2933333333335"/>
      <point x="616.4133333333334" y="1449.9466666666667" type="curve" smooth="yes"/>
      <point x="343.2933333333334" y="1329.2933333333333"/>
      <point x="136.0" y="1014.9599999999998"/>
    </contour>
  </outline>
</glyph>
<glyph name="asterisk" format="2">
  <advance width="1185.7866666666666"/>
  <unicode hex="002A"/>
  <outline>
    <contour>
      <point x="607.2399999999999" y="1005.9066666666668" type="line"/>
      <point x="607.2399999999999" y="1219.0800000000002"/>
      <point x="742.48" y="1299.7066666666667"/>
      <point x="742.48" y="1415.5333333333333" type="curve" smooth="yes"/>
      <point x="742.48" y="1500.7466666666664"/>
      <point x="688.4266666666666" y="1545.6399999999999"/>
      <point x="595.0666666666666" y="1545.6399999999999" type="curve" smooth="yes"/>
      <point x="497.04" y="1545.6399999999999"/>
      <point x="447.14666666666665" y="1500.7466666666664"/>
      <point x="447.14666666666665" y="1415.5333333333333" type="curve" smooth="yes"/>
      <point x="447.14666666666665" y="1300.5066666666667"/>
      <point x="582.6" y="1219.0800000000002"/>
      <point x="582.6" y="1005.9066666666668" type="curve"/>
    </contour>
    <contour>
      <point x="598.7455314007332" y="1017.1570332631678" type="line"/>
      <point x="395.56828770472106" y="1083.2338126487664"/>
      <point x="358.5455633500803" y="1235.3382225376342"/>
      <point x="248.09189058145722" y="1271.244063346567" type="curve" smooth="yes"/>
      <point x="166.82713838093048" y="1297.3440012341666"/>
      <point x="107.62107813086718" y="1260.7493876950846"/>
      <point x="78.59296679006735" y="1172.9297814527972" type="curve" smooth="yes"/>
      <point x="48.338188782600845" y="1080.8701752105096"/>
      <point x="75.62354739973102" y="1019.9222904504944"/>
      <point x="156.4616329335911" y="993.3956858962284" type="curve" smooth="yes"/>
      <point x="266.96863903554754" y="957.9165117539621"/>
      <point x="387.8231485287212" y="1060.9359715125738"/>
      <point x="590.9470588914002" y="994.4325254603084" type="curve"/>
    </contour>
    <contour>
      <point x="584.9878019326001" y="1012.4233056318018" type="line"/>
      <point x="458.58365297115864" y="840.0398595795365"/>
      <point x="301.2686754354363" y="853.2914571061839"/>
      <point x="232.2290905106743" y="759.9189496305845" type="curve" smooth="yes"/>
      <point x="182.75011412413636" y="690.5790117429846"/>
      <point x="199.79097674733393" y="623.4498588750279"/>
      <point x="275.21908808813373" y="568.8435518805361" type="curve" smooth="yes"/>
      <point x="354.8871994289335" y="512.2105782193779"/>
      <point x="421.83370510533575" y="519.2346965723541"/>
      <point x="471.7393481585404" y="588.1079677932871" type="curve" smooth="yes"/>
      <point x="539.9789330833022" y="681.2004752688866"/>
      <point x="479.3821254804917" y="825.8119758364218"/>
      <point x="604.4662744419331" y="998.6620885553539" type="curve"/>
    </contour>
    <contour>
      <point x="584.9878019326001" y="998.5366943681981" type="line"/>
      <point x="710.4986175607082" y="825.6865816492661"/>
      <point x="649.274400250031" y="682.0004752688867"/>
      <point x="717.8873185081262" y="588.1079677932871" type="curve" smooth="yes"/>
      <point x="767.7929615613307" y="519.234696572354"/>
      <point x="838.4728005710665" y="513.8639115527112"/>
      <point x="913.4742452451997" y="568.3768852138695" type="curve" smooth="yes"/>
      <point x="993.1423565859996" y="625.9031922083611"/>
      <point x="1007.3032192091969" y="690.5790117429846"/>
      <point x="957.3975761559924" y="759.9189496305845" type="curve" smooth="yes"/>
      <point x="889.1579912312305" y="852.9181237728505"/>
      <point x="730.8704234033747" y="839.9144653923807"/>
      <point x="604.4662744419331" y="1012.297911444646" type="curve"/>
    </contour>
    <contour>
      <point x="590.9333333333334" y="1016.9466666666666" type="curve"/>
      <point x="598.6933333333333" y="994.2266666666667" type="line"/>
      <point x="801.9200000000001" y="1060.7066666666663"/>
      <point x="922.3199999999998" y="957.9466666666667"/>
      <point x="1033.16" y="993.4400000000002" type="curve" smooth="yes"/>
      <point x="1113.9599999999998" y="1019.8933333333332"/>
      <point x="1139.6533333333334" y="1084.1999999999998"/>
      <point x="1111.0400000000002" y="1171.5466666666666" type="curve" smooth="yes"/>
      <point x="1080.7733333333333" y="1264.093333333333"/>
      <point x="1022.7866666666666" y="1297.2933333333333"/>
      <point x="941.56" y="1271.2666666666667" type="curve" smooth="yes"/>
      <point x="831.4133333333333" y="1235.3466666666668"/>
      <point x="794.1066666666666" y="1082.9999999999998"/>
    </contour>
  </outline>
</glyph>
<glyph name="comma" format="2">
  <advance width="552.0266666666668"/>
  <unicode hex="002C"/>
  <outline>
    <contour>
      <point x="276.15999999999997" y="-8.213333333333331" type="curve" smooth="yes"/>
      <point x="330.9066666666667" y="-8.213333333333331" type="line" smooth="yes"/>
      <point x="362.3466666666667" y="-8.213333333333331"/>
      <point x="371.2" y="-23.16"/>
      <point x="371.2" y="-49.160000000000004" type="curve" smooth="yes"/>
      <point x="371.2" y="-143.2133333333333"/>
      <point x="310.7374331181857" y="-242.88473751881608"/>
      <point x="143.58666666666667" y="-299.38666666666666" type="curve" smooth="yes"/>
      <point x="106.93333333333334" y="-310.78666666666663"/>
      <point x="96.32000000000002" y="-325.75999999999993"/>
      <point x="99.8266666666667" y="-345.21333333333337" type="curve" smooth="yes"/>
      <point x="103.42666666666665" y="-362.6266666666666"/>
      <point x="123.84" y="-371.3866666666666"/>
      <point x="159.61333333333334" y="-363.25333333333333" type="curve" smooth="yes"/>
      <point x="364.31068244595696" y="-307.5231758458048"/>
      <point x="485.0666666666666" y="-160.04028259473347"/>
      <point x="485.0666666666666" y="96.32" type="curve" smooth="yes"/>
      <point x="485.0666666666666" y="269.62666666666667"/>
      <point x="393.48" y="353.96000000000004"/>
      <point x="280.03999999999996" y="353.96000000000004" type="curve" smooth="yes"/>
      <point x="169.41333333333333" y="353.96000000000004"/>
      <point x="87.53333333333332" y="273.68"/>
      <point x="87.53333333333332" y="166.68" type="curve" smooth="yes"/>
      <point x="87.53333333333332" y="61.61333333333334"/>
      <point x="149.26666666666668" y="-8.213333333333331"/>
    </contour>
  </outline>
</glyph>
<glyph name="hyphen" format="2">
  <advance width="665.48"/>
  <unicode hex="002D"/>
  <outline>
    <contour>
      <point x="575.2666666666665" y="634.0400000000001" type="curve" smooth="yes"/>
      <point x="132.28000000000003" y="634.0400000000001" type="line" smooth="yes"/>
      <point x="105.30666666666669" y="634.0400000000001"/>
      <point x="91.67999999999999" y="625.5200000000001"/>
      <point x="80.75999999999999" y="593.3066666666666" type="curve" smooth="yes"/>
      <point x="59.74666666666667" y="488.7066666666666" type="line" smooth="yes"/>
      <point x="48.453333333333326" y="455.85333333333335"/>
      <point x="58.74666666666667" y="438.8133333333333"/>
      <point x="90.21333333333334" y="438.8133333333333" type="curve" smooth="yes"/>
      <point x="533.1999999999999" y="438.8133333333333" type="line" smooth="yes"/>
      <point x="560.1733333333334" y="438.8133333333333"/>
      <point x="573.8" y="447.33333333333337"/>
      <point x="584.7199999999999" y="479.5466666666667" type="curve" smooth="yes"/>
      <point x="605.7333333333333" y="584.1466666666666" type="line" smooth="yes"/>
      <point x="617.0266666666666" y="617.0000000000001"/>
      <point x="606.7333333333333" y="634.0400000000001"/>
    </contour>
  </outline>
</glyph>
<glyph name="period" format="2">
  <advance width="533.1866666666667"/>
  <unicode hex="002E"/>
  <outline>
    <contour>
      <point x="265.4266666666666" y="-22.64" type="curve" smooth="yes"/>
      <point x="374.9333333333333" y="-22.64"/>
      <point x="458.92" y="68.21333333333334"/>
      <point x="458.92" y="174.96" type="curve" smooth="yes"/>
      <point x="458.92" y="282.14666666666665"/>
      <point x="375.0266666666667" y="370.41333333333336"/>
      <point x="265.4266666666666" y="370.41333333333336" type="curve" smooth="yes"/>
      <point x="158.66666666666666" y="370.41333333333336"/>
      <point x="74.26666666666667" y="282.23999999999995"/>
      <point x="74.26666666666667" y="174.96" type="curve" smooth="yes"/>
      <point x="74.26666666666667" y="68.21333333333334"/>
      <point x="158.38666666666666" y="-22.64"/>
    </contour>
  </outline>
</glyph>
<glyph name="slash" format="2">
  <advance width="840.1733333333334"/>
  <unicode hex="002F"/>
  <outline>
    <contour>
      <point x="470.2133333333333" y="592.1866666666667" type="curve" smooth="yes"/>
      <point x="548.6666666666666" y="777.5866666666667"/>
      <point x="751.3733333333333" y="1206.1333333333334"/>
      <point x="832.5600000000001" y="1402.9866666666667" type="curve" smooth="yes"/>
      <point x="847.8400000000001" y="1438.2266666666667"/>
      <point x="833.7333333333333" y="1470.36"/>
      <point x="793.6666666666666" y="1488.52" type="curve" smooth="yes"/>
      <point x="753.3333333333334" y="1506.68"/>
      <point x="720.2266666666667" y="1495.44"/>
      <point x="704.0" y="1461.1333333333334" type="curve" smooth="yes"/>
      <point x="628.12" y="1278.52"/>
      <point x="472.77333333333337" y="819.0533333333334"/>
      <point x="392.6" y="626.7733333333333" type="curve" smooth="yes"/>
      <point x="312.93333333333334" y="436.8"/>
      <point x="108.55999999999999" y="3.039999999999999"/>
      <point x="32.78666666666666" y="-178.69333333333333" type="curve" smooth="yes"/>
      <point x="17.506666666666668" y="-213.93333333333334"/>
      <point x="31.613333333333333" y="-246.06666666666666"/>
      <point x="71.67999999999999" y="-264.2266666666667" type="curve" smooth="yes"/>
      <point x="112.01333333333334" y="-282.3866666666666"/>
      <point x="145.12" y="-271.1466666666666"/>
      <point x="161.25333333333336" y="-236.83999999999997" type="curve" smooth="yes"/>
      <point x="241.70666666666665" y="-41.626666666666665"/>
      <point x="392.56" y="406.25333333333333"/>
    </contour>
  </outline>
</glyph>
<glyph name="zero" format="2">
  <advance width="1344.4933333333333"/>
  <unicode hex="0030"/>
  <outline>
    <contour>
      <point x="672.1066666666666" y="1427.5733333333335" type="curve" smooth="yes"/>
      <point x="299.47999999999996" y="1427.5733333333335"/>
      <point x="60.02666666666668" y="1150.0666666666668"/>
      <point x="60.02666666666668" y="709.8133333333332" type="curve" smooth="yes"/>
      <point x="60.02666666666668" y="238.1866666666667"/>
      <point x="278.50666666666666" y="-28.53333333333333"/>
      <point x="665.2933333333333" y="-28.53333333333333" type="curve" smooth="yes"/>
      <point x="1040.8266666666664" y="-28.53333333333333"/>
      <point x="1284.466666666667" y="240.38666666666666"/>
      <point x="1284.466666666667" y="697.0666666666666" type="curve" smooth="yes"/>
      <point x="1284.466666666667" y="1164.96"/>
      <point x="1059.3600000000001" y="1427.5733333333335"/>
    </contour>
    <contour>
      <point x="903.7866666666666" y="637.9466666666666" type="curve" smooth="yes"/>
      <point x="903.7866666666666" y="197.94666666666666"/>
      <point x="826.7733333333333" y="35.54666666666667"/>
      <point x="682.6800000000001" y="35.54666666666667" type="curve" smooth="yes"/>
      <point x="517.1333333333333" y="35.54666666666667"/>
      <point x="440.3333333333333" y="243.53333333333336"/>
      <point x="440.3333333333333" y="762.5866666666666" type="curve" smooth="yes"/>
      <point x="440.3333333333333" y="1193.2533333333333"/>
      <point x="513.2533333333333" y="1363.6000000000001"/>
      <point x="661.4399999999999" y="1363.6000000000001" type="curve" smooth="yes"/>
      <point x="826.5333333333333" y="1363.6000000000001"/>
      <point x="903.7866666666666" y="1158.68"/>
    </contour>
  </outline>
</glyph>
<glyph name="one" format="2">
  <advance width="888.8399999999998"/>
  <unicode hex="0031"/>
  <outline>
    <contour>
      <point x="120.56" y="1256.1333333333332" type="line" smooth="yes"/>
      <point x="87.56000000000002" y="1256.1333333333332"/>
      <point x="73.08" y="1272.4666666666667"/>
      <point x="73.08" y="1296.6" type="curve" smooth="yes"/>
      <point x="73.08" y="1319.706666666667"/>
      <point x="92.13333333333334" y="1337.013333333333"/>
      <point x="122.64000000000001" y="1337.013333333333" type="curve" smooth="yes"/>
      <point x="238.7466666666667" y="1337.6666666666665" type="line" smooth="yes"/>
      <point x="392.6990476190477" y="1337.76"/>
      <point x="473.56580303509014" y="1359.7482323391898"/>
      <point x="549.9200000000002" y="1422.5333333333335" type="curve" smooth="yes"/>
      <point x="569.0104999078818" y="1436.3906901735168"/>
      <point x="583.5866666666666" y="1442.4799999999998"/>
      <point x="602.6266666666668" y="1442.4799999999998" type="curve" smooth="yes"/>
      <point x="629.3022222222222" y="1442.4799999999998"/>
      <point x="645.04" y="1428.0800000000002"/>
      <point x="645.04" y="1397.6133333333332" type="curve" smooth="yes"/>
      <point x="645.04" y="172.42666666666665" type="line" smooth="yes"/>
      <point x="645.04" y="124.69333333333333"/>
      <point x="665.76" y="100.26666666666668"/>
      <point x="703.8399999999999" y="92.34666666666666" type="curve" smooth="yes"/>
      <point x="808.1600000000002" y="71.77333333333335" type="line" smooth="yes"/>
      <point x="829.8405949300023" y="66.74007097314546"/>
      <point x="841.8133333333334" y="54.39999999999998"/>
      <point x="841.8133333333334" y="35.346666666666664" type="curve" smooth="yes"/>
      <point x="841.8133333333334" y="13.213333333333335"/>
      <point x="827.8531800766284" y="0.0"/>
      <point x="799.52" y="0.0" type="curve" smooth="yes"/>
      <point x="107.97333333333336" y="0.0" type="line" smooth="yes"/>
      <point x="76.34666666666668" y="0.0"/>
      <point x="60.61333333333334" y="13.50666666666667"/>
      <point x="60.61333333333334" y="35.92" type="curve" smooth="yes"/>
      <point x="60.61333333333334" y="55.06666666666665"/>
      <point x="74.44000000000001" y="67.26666666666667"/>
      <point x="100.08" y="72.96000000000001" type="curve" smooth="yes"/>
      <point x="208.02666666666664" y="92.34666666666666" type="line" smooth="yes"/>
      <point x="248.08000000000004" y="100.81333333333335"/>
      <point x="273.12" y="122.95999999999998"/>
      <point x="273.12" y="172.3333333333333" type="curve" smooth="yes"/>
      <point x="273.12" y="1193.6133333333335" type="line" smooth="yes"/>
      <point x="273.12" y="1240.0133333333335"/>
      <point x="257.34666666666664" y="1255.48"/>
      <point x="223.17333333333335" y="1255.48" type="curve" smooth="yes"/>
    </contour>
  </outline>
</glyph>
<glyph name="two" format="2">
  <advance width="1229.2"/>
  <unicode hex="0032"/>
  <outline>
    <contour>
      <point x="223.44" y="319.8" type="line"/>
      <point x="578.1200000000001" y="495.96000000000004" type="line" smooth="yes"/>
      <point x="958.872670656803" y="685.7545872571292"/>
      <point x="1113.7866666666666" y="839.5290210656755"/>
      <point x="1113.7866666666666" y="1046.8533333333335" type="curve" smooth="yes"/>
      <point x="1113.7866666666666" y="1269.4404537756047"/>
      <point x="950.4266666666667" y="1428.3200000000002"/>
      <point x="625.4533333333333" y="1428.3200000000002" type="curve" smooth="yes"/>
      <point x="263.0933333333333" y="1428.3200000000002"/>
      <point x="89.33333333333333" y="1240.6792252803264"/>
      <point x="89.33333333333333" y="1043.9333333333332" type="curve" smooth="yes"/>
      <point x="89.33333333333333" y="931.5587878787879"/>
      <point x="153.48" y="867.6666666666667"/>
      <point x="255.50666666666666" y="867.6666666666667" type="curve" smooth="yes"/>
      <point x="356.0133333333333" y="867.6666666666667"/>
      <point x="425.46666666666664" y="935.9066666666666"/>
      <point x="425.46666666666664" y="1045.7466666666667" type="curve" smooth="yes"/>
      <point x="425.46666666666664" y="1182.1866666666667" type="line" smooth="yes"/>
      <point x="425.46666666666664" y="1302.2472043010753"/>
      <point x="471.9364485981309" y="1373.9466666666667"/>
      <point x="570.5200000000001" y="1373.9466666666667" type="curve" smooth="yes"/>
      <point x="662.5787387387387" y="1373.9466666666667"/>
      <point x="728.6933333333334" y="1280.6096478779666"/>
      <point x="728.6933333333334" y="1031.9866666666665" type="curve" smooth="yes"/>
      <point x="728.6933333333334" y="772.5552028218694"/>
      <point x="610.3772035204186" y="601.0111111694757"/>
      <point x="386.4666666666666" y="469.50666666666666" type="curve" smooth="yes"/>
      <point x="188.13333333333333" y="350.2666666666667" type="line"/>
    </contour>
    <contour>
      <point x="60.69333333333333" y="141.4" type="curve" smooth="yes"/>
      <point x="60.69333333333333" y="39.9592039800995"/>
      <point x="116.97333333333333" y="-27.41333333333333"/>
      <point x="198.89333333333335" y="-27.41333333333333" type="curve" smooth="yes"/>
      <point x="303.3375945017182" y="-27.41333333333333"/>
      <point x="370.23860955301376" y="25.724277745851413"/>
      <point x="382.62666666666667" y="205.45333333333332" type="curve" smooth="yes"/>
      <point x="388.0666666666666" y="292.8533333333333"/>
      <point x="407.97333333333336" y="322.3466666666667"/>
      <point x="439.82666666666677" y="322.3466666666667" type="curve" smooth="yes"/>
      <point x="465.94666666666666" y="322.3466666666667"/>
      <point x="484.59999999999997" y="306.14666666666676"/>
      <point x="518.9599999999999" y="243.80000000000007" type="curve" smooth="yes"/>
      <point x="607.6666666666667" y="34.519999999999996"/>
      <point x="695.2048243114908" y="-27.88"/>
      <point x="848.6266666666666" y="-27.88" type="curve" smooth="yes"/>
      <point x="1033.3998898071623" y="-27.88"/>
      <point x="1154.292653569861" y="83.47355783614019"/>
      <point x="1181.56" y="414.52" type="curve" smooth="yes"/>
      <point x="1184.1066666666666" y="446.49333333333334"/>
      <point x="1174.7733333333333" y="461.18666666666667"/>
      <point x="1156.7866666666666" y="463.0400000000001" type="curve" smooth="yes"/>
      <point x="1141.6133333333332" y="464.46666666666664"/>
      <point x="1128.7199999999998" y="457.6933333333333"/>
      <point x="1118.3999999999999" y="438.50666666666666" type="curve" smooth="yes"/>
      <point x="1079.921705333314" y="346.1629248680687"/>
      <point x="1030.48" y="309.5066666666666"/>
      <point x="931.76" y="309.5066666666666" type="curve" smooth="yes"/>
      <point x="762.9733333333335" y="309.5066666666666"/>
      <point x="596.667507730365" y="398.7999999999999"/>
      <point x="411.49333333333334" y="398.7999999999999" type="curve" smooth="yes"/>
      <point x="182.77333333333334" y="398.7999999999999"/>
      <point x="60.69333333333333" y="297.73075396774726"/>
    </contour>
  </outline>
</glyph>
<glyph name="three" format="2">
  <advance width="1133.9333333333334"/>
  <unicode hex="0033"/>
  <outline>
    <contour>
      <point x="490.9466666666667" y="733.88" type="line"/>
      <point x="1061.3733333333334" y="1295.8" type="line" smooth="yes"/>
      <point x="1098.2192791474492" y="1331.2708102881002"/>
      <point x="1107.0933333333332" y="1349.5466666666669"/>
      <point x="1107.0933333333332" y="1365.426666666667" type="curve" smooth="yes"/>
      <point x="1107.0933333333332" y="1389.1066666666666"/>
      <point x="1089.68" y="1400.0"/>
      <point x="1049.8666666666668" y="1400.0" type="curve" smooth="yes"/>
      <point x="225.11999999999998" y="1400.0" type="line" smooth="yes"/>
      <point x="182.98666666666668" y="1400.0"/>
      <point x="158.3466666666667" y="1376.4133333333332"/>
      <point x="154.68" y="1339.2399999999998" type="curve" smooth="yes"/>
      <point x="113.02666666666666" y="962.3866666666667" type="line" smooth="yes"/>
      <point x="110.10666666666668" y="934.6266666666666"/>
      <point x="127.30666666666664" y="919.5866666666667"/>
      <point x="152.0666666666667" y="919.4800000000001" type="curve" smooth="yes"/>
      <point x="176.88000000000002" y="919.48"/>
      <point x="190.25333333333333" y="932.6800000000001"/>
      <point x="195.67999999999998" y="953.1466666666666" type="curve" smooth="yes"/>
      <point x="228.4533333333334" y="1069.48" type="line" smooth="yes"/>
      <point x="237.7529109375337" y="1103.442763567538"/>
      <point x="259.8533333333333" y="1118.3866666666668"/>
      <point x="298.25333333333333" y="1118.3866666666668" type="curve" smooth="yes"/>
      <point x="853.1333333333334" y="1118.3866666666668" type="line"/>
      <point x="847.2933333333334" y="1179.4799999999996" type="line"/>
      <point x="433.93333333333334" y="777.3333333333333" type="line" smooth="yes"/>
      <point x="409.8266666666667" y="755.2133333333334"/>
      <point x="400.77333333333337" y="742.3866666666668"/>
      <point x="400.77333333333337" y="723.6533333333332" type="curve" smooth="yes"/>
      <point x="400.77333333333337" y="699.5600000000001"/>
      <point x="415.52000000000004" y="686.1066666666667"/>
      <point x="446.01333333333326" y="686.1066666666667" type="curve" smooth="yes"/>
      <point x="508.99999999999994" y="686.1066666666667" type="line" smooth="yes"/>
      <point x="650.1478787878787" y="686.1066666666667"/>
      <point x="735.9733333333334" y="579.4933333333332"/>
      <point x="735.9733333333334" y="349.09333333333336" type="curve" smooth="yes"/>
      <point x="735.9733333333334" y="116.82666666666667"/>
      <point x="662.2516298973784" y="28.22666666666668"/>
      <point x="547.6133333333332" y="28.133333333333347" type="curve" smooth="yes"/>
      <point x="449.1803420904947" y="27.933693683799206"/>
      <point x="391.45333333333326" y="102.49333333333333"/>
      <point x="391.45333333333326" y="201.76000000000002" type="curve" smooth="yes"/>
      <point x="391.45333333333326" y="319.1333333333333" type="line" smooth="yes"/>
      <point x="391.45333333333326" y="415.4933333333333"/>
      <point x="331.92363636363643" y="480.1466666666667"/>
      <point x="235.97333333333333" y="480.1466666666667" type="curve" smooth="yes"/>
      <point x="138.00467836257312" y="480.1466666666667"/>
      <point x="61.54666666666666" y="400.24000000000007"/>
      <point x="61.54666666666666" y="288.0133333333334" type="curve" smooth="yes"/>
      <point x="61.54666666666666" y="107.61333333333334"/>
      <point x="229.8113989637306" y="-28.53333333333333"/>
      <point x="545.8533333333334" y="-28.53333333333333" type="curve" smooth="yes"/>
      <point x="871.5832558139534" y="-28.53333333333333"/>
      <point x="1082.2133333333336" y="141.23568366592758"/>
      <point x="1082.2133333333336" y="404.37333333333333" type="curve" smooth="yes"/>
      <point x="1082.2133333333336" y="639.1945500262918"/>
      <point x="883.6295652173914" y="764.1333333333332"/>
      <point x="572.6533333333333" y="764.1333333333332" type="curve" smooth="yes"/>
      <point x="541.2133333333333" y="764.1333333333332"/>
      <point x="496.32000000000005" y="761.1466666666666"/>
      <point x="472.14666666666665" y="756.0266666666666" type="curve"/>
    </contour>
  </outline>
</glyph>
<glyph name="four" format="2">
  <advance width="1263.0"/>
  <unicode hex="0034"/>
  <outline>
    <contour>
      <point x="617.5333333333334" y="663.5199999999999" type="curve" smooth="yes"/>
      <point x="617.5333333333334" y="143.34666666666664" type="line" smooth="yes"/>
      <point x="617.5333333333334" y="112.75999999999998"/>
      <point x="604.2399999999999" y="98.2"/>
      <point x="575.1599999999999" y="91.66666666666667" type="curve" smooth="yes"/>
      <point x="472.3066666666667" y="70.33333333333334" type="line" smooth="yes"/>
      <point x="450.4" y="64.85333333333332"/>
      <point x="437.0133333333333" y="53.61333333333331"/>
      <point x="437.0133333333333" y="34.37333333333334" type="curve" smooth="yes"/>
      <point x="437.0133333333333" y="12.240000000000004"/>
      <point x="451.37333333333333" y="0.0"/>
      <point x="481.91999999999996" y="0.0" type="curve" smooth="yes"/>
      <point x="1106.7066666666665" y="0.0" type="line" smooth="yes"/>
      <point x="1136.2799999999997" y="0.0"/>
      <point x="1150.8266666666666" y="13.133333333333336"/>
      <point x="1150.8266666666666" y="35.17333333333334" type="curve" smooth="yes"/>
      <point x="1150.8266666666666" y="53.52000000000001"/>
      <point x="1138.053333333333" y="63.45333333333334"/>
      <point x="1115.0133333333333" y="70.70666666666669" type="curve" smooth="yes"/>
      <point x="1026.8533333333335" y="91.84" type="line" smooth="yes"/>
      <point x="997.3466666666667" y="99.49333333333334"/>
      <point x="980.9200000000001" y="113.46666666666665"/>
      <point x="980.9200000000001" y="145.69333333333327" type="curve" smooth="yes"/>
      <point x="980.0666666666667" y="944.5466666666666" type="line" smooth="yes"/>
      <point x="980.0666666666667" y="966.9866666666666"/>
      <point x="969.5066666666667" y="976.6533333333333"/>
      <point x="952.9600000000002" y="976.6533333333333" type="curve" smooth="yes"/>
      <point x="939.5066666666665" y="976.6533333333333"/>
      <point x="928.0933333333332" y="972.64"/>
      <point x="906.92" y="953.1866666666668" type="curve" smooth="yes"/>
      <point x="640.9200000000001" y="716.5066666666667" type="line" smooth="yes"/>
      <point x="625.7466666666668" y="701.9466666666666"/>
      <point x="617.5333333333334" y="686.3066666666667"/>
    </contour>
    <contour>
      <point x="442.4533333333334" y="826.4933333333333" type="curve" smooth="yes"/>
      <point x="52.879999999999995" y="427.7733333333333" type="line" smooth="yes"/>
      <point x="29.948604850660498" y="406.3071644757458"/>
      <point x="21.040000000000003" y="390.72"/>
      <point x="21.040000000000003" y="375.5733333333334" type="curve" smooth="yes"/>
      <point x="21.040000000000003" y="350.8106666666667"/>
      <point x="38.13333333333333" y="334.35999999999996"/>
      <point x="67.73333333333335" y="334.35999999999996" type="curve" smooth="yes"/>
      <point x="1144.4533333333334" y="334.35999999999996" type="line" smooth="yes"/>
      <point x="1176.6533333333332" y="334.35999999999996"/>
      <point x="1191.6933333333332" y="347.2666666666666"/>
      <point x="1191.6933333333332" y="372.0666666666667" type="curve" smooth="yes"/>
      <point x="1191.6933333333332" y="394.4077192982456"/>
      <point x="1173.92" y="404.37333333333333"/>
      <point x="1147.84" y="404.37333333333333" type="curve" smooth="yes"/>
      <point x="86.8" y="404.37333333333333" type="line"/>
      <point x="98.05333333333336" y="369.4000000000001" type="line"/>
      <point x="669.4933333333333" y="932.2800000000001" type="line" smooth="yes"/>
      <point x="835.7297873411292" y="1087.2188250316187"/>
      <point x="873.3466666666666" y="1166.12"/>
      <point x="873.3466666666666" y="1258.4799999999998" type="curve" smooth="yes"/>
      <point x="873.3466666666666" y="1376.2533333333333"/>
      <point x="786.96" y="1456.4666666666667"/>
      <point x="653.04" y="1456.4666666666667" type="curve" smooth="yes"/>
      <point x="496.3333333333333" y="1456.4666666666667"/>
      <point x="411.91999999999996" y="1366.2799999999997"/>
      <point x="411.91999999999996" y="1253.3866666666665" type="curve" smooth="yes"/>
      <point x="411.91999999999996" y="1130.4650626566415"/>
      <point x="520.5466666666667" y="1061.44"/>
      <point x="520.5466666666667" y="970.5866666666667" type="curve" smooth="yes"/>
      <point x="520.5466666666667" y="916.8266666666666"/>
      <point x="495.08000000000004" y="875.68"/>
    </contour>
  </outline>
</glyph>
<glyph name="five" format="2">
  <advance width="1166.3066666666664"/>
  <unicode hex="0035"/>
  <outline>
    <contour>
      <point x="82.53333333333333" y="289.40000000000003" type="curve" smooth="yes"/>
      <point x="82.53333333333333" y="109.97333333333333"/>
      <point x="249.82666666666674" y="-28.53333333333333"/>
      <point x="544.48" y="-28.53333333333333" type="curve" smooth="yes"/>
      <point x="878.0283294117646" y="-28.53333333333333"/>
      <point x="1094.5466666666669" y="141.65333333333334"/>
      <point x="1094.5466666666669" y="422.72" type="curve" smooth="yes"/>
      <point x="1094.5466666666669" y="675.4"/>
      <point x="901.88" y="838.8533333333334"/>
      <point x="611.8933333333333" y="838.8533333333334" type="curve" smooth="yes"/>
      <point x="430.40230118443316" y="838.8533333333334"/>
      <point x="325.0602638901416" y="783.5355955312755"/>
      <point x="217.61333333333334" y="659.1600000000001" type="curve"/>
      <point x="249.38666666666663" y="651.5333333333333" type="line"/>
      <point x="249.38666666666663" y="1171.2666666666667" type="line"/>
      <point x="199.94666666666666" y="1114.8266666666666" type="line"/>
      <point x="308.4896770627922" y="1059.5230127808488"/>
      <point x="473.9333333333334" y="1024.6266666666668"/>
      <point x="634.2533333333333" y="1024.6266666666668" type="curve" smooth="yes"/>
      <point x="920.6085245901639" y="1024.6266666666668"/>
      <point x="1059.2933333333333" y="1127.0666666666668"/>
      <point x="1089.9066666666668" y="1412.6133333333335" type="curve" smooth="yes"/>
      <point x="1093.3066666666668" y="1437.4666666666667"/>
      <point x="1084.6266666666666" y="1448.2799999999997"/>
      <point x="1073.3866666666665" y="1451.5866666666666" type="curve" smooth="yes"/>
      <point x="1060.76" y="1455.32"/>
      <point x="1045.7333333333333" y="1452.9333333333332"/>
      <point x="1022.5466666666667" y="1433.1733333333334" type="curve" smooth="yes"/>
      <point x="985.0533333333335" y="1375.0266666666666"/>
      <point x="873.9066666666668" y="1338.0"/>
      <point x="714.9200000000001" y="1338.0" type="curve" smooth="yes"/>
      <point x="561.92" y="1338.0"/>
      <point x="420.88000000000005" y="1362.2266666666667"/>
      <point x="307.97333333333336" y="1404.2133333333334" type="curve" smooth="yes"/>
      <point x="271.94666666666666" y="1417.6533333333334"/>
      <point x="251.02666666666664" y="1422.9733333333334"/>
      <point x="230.41333333333338" y="1422.9733333333334" type="curve" smooth="yes"/>
      <point x="186.26017699115044" y="1422.9733333333334"/>
      <point x="166.7466666666667" y="1400.64"/>
      <point x="166.7466666666667" y="1364.2533333333333" type="curve" smooth="yes"/>
      <point x="166.7466666666667" y="636.3733333333333" type="line" smooth="yes"/>
      <point x="166.7466666666667" y="609.3866666666667"/>
      <point x="186.07999999999998" y="594.8533333333332"/>
      <point x="209.01333333333332" y="594.8533333333332" type="curve" smooth="yes"/>
      <point x="229.9272852233677" y="594.8533333333332"/>
      <point x="245.74666666666667" y="603.0400000000001"/>
      <point x="268.9866666666667" y="624.3199999999999" type="curve" smooth="yes"/>
      <point x="342.30830806910967" y="711.4678898788687"/>
      <point x="423.1333333333334" y="758.9333333333334"/>
      <point x="511.29333333333335" y="758.9333333333334" type="curve" smooth="yes"/>
      <point x="648.5866666666666" y="758.9333333333334"/>
      <point x="733.6933333333333" y="638.1489533861038"/>
      <point x="733.6933333333333" y="382.9066666666667" type="curve" smooth="yes"/>
      <point x="733.6933333333333" y="143.97333333333333"/>
      <point x="659.5931131131132" y="23.226666666666684"/>
      <point x="559.0133333333333" y="23.226666666666684" type="curve" smooth="yes"/>
      <point x="465.8090666666666" y="23.226666666666684"/>
      <point x="415.0533333333333" y="82.37333333333329"/>
      <point x="415.0533333333333" y="155.16" type="curve" smooth="yes"/>
      <point x="415.0533333333333" y="305.9333333333333" type="line" smooth="yes"/>
      <point x="415.0533333333333" y="405.0133333333334"/>
      <point x="355.5199999999999" y="472.88000000000005"/>
      <point x="260.3333333333333" y="472.88000000000005" type="curve" smooth="yes"/>
      <point x="159.70666666666665" y="472.88000000000005"/>
      <point x="82.53333333333333" y="395.4"/>
    </contour>
  </outline>
</glyph>
<glyph name="six" format="2">
  <advance width="1242.2933333333335"/>
  <unicode hex="0036"/>
  <outline>
    <contour>
      <point x="704.28" y="1428.3200000000002" type="curve" smooth="yes"/>
      <point x="324.6481753707285" y="1428.3200000000002"/>
      <point x="62.27999999855867" y="1156.4400007682289"/>
      <point x="62.38666666666666" y="648.8400000000001" type="curve" smooth="yes"/>
      <point x="62.493333335649126" y="217.9999989833718"/>
      <point x="287.3466666666667" y="-28.53333333333333"/>
      <point x="638.6666666666665" y="-28.53333333333333" type="curve" smooth="yes"/>
      <point x="969.3866666666667" y="-28.53333333333333"/>
      <point x="1179.4933333333333" y="154.98666666666665"/>
      <point x="1183.2266666666667" y="437.21333333333337" type="curve" smooth="yes"/>
      <point x="1186.5866666666668" y="700.1733333333333"/>
      <point x="1019.7946352941177" y="848.7466666666667"/>
      <point x="757.5199999999999" y="848.7466666666667" type="curve" smooth="yes"/>
      <point x="528.5600000000001" y="848.7466666666667"/>
      <point x="362.09333333333336" y="716.1999999999999"/>
      <point x="356.11999999999995" y="558.1999999999999" type="curve"/>
      <point x="398.3466666666667" y="538.0400000000001" type="line"/>
      <point x="407.3066666666667" y="661.8630795262268"/>
      <point x="501.68000000000006" y="745.04"/>
      <point x="610.04" y="745.04" type="curve" smooth="yes"/>
      <point x="738.6073217726396" y="745.04"/>
      <point x="831.6400000000001" y="626.793043478261"/>
      <point x="831.6400000000001" y="398.05333333333334" type="curve" smooth="yes"/>
      <point x="831.6400000000001" y="144.86458653026432"/>
      <point x="757.96" y="30.426666666666655"/>
      <point x="642.1333333333334" y="30.426666666666655" type="curve" smooth="yes"/>
      <point x="524.48" y="30.426666666666655"/>
      <point x="430.50683077454096" y="167.12286929907958"/>
      <point x="430.4" y="624.7066666666667" type="curve" smooth="yes"/>
      <point x="430.2933333286187" y="1178.6000024280413"/>
      <point x="538.6344055944054" y="1367.3866666666668"/>
      <point x="669.7199999999999" y="1367.3866666666668" type="curve" smooth="yes"/>
      <point x="745.3336766809728" y="1367.3866666666668"/>
      <point x="782.36" y="1319.7699999999998"/>
      <point x="782.36" y="1237.7599999999998" type="curve" smooth="yes"/>
      <point x="782.36" y="1125.4800000000002" type="line" smooth="yes"/>
      <point x="782.36" y="1009.2767495854064"/>
      <point x="857.6266666666667" y="941.4533333333334"/>
      <point x="967.9866666666668" y="941.4533333333334" type="curve" smooth="yes"/>
      <point x="1082.0609523809524" y="941.4533333333334"/>
      <point x="1155.3200000000002" y="1009.4133333333332"/>
      <point x="1155.3200000000002" y="1127.9066666666665" type="curve" smooth="yes"/>
      <point x="1155.3200000000002" y="1291.2112858926341"/>
      <point x="1001.6837059415913" y="1428.3200000000002"/>
    </contour>
  </outline>
</glyph>
<glyph name="seven" format="2">
  <advance width="1058.8266666666668"/>
  <unicode hex="0037"/>
  <outline>
    <contour>
      <point x="834.2666666666667" y="1123.8000000000002" type="line"/>
      <point x="503.3066666666666" y="694.1866666666666" type="line" smooth="yes"/>
      <point x="327.7733333333334" y="483.1866666666667"/>
      <point x="267.5066666666667" y="346.23999999999995"/>
      <point x="267.5066666666667" y="209.4266666666667" type="curve" smooth="yes"/>
      <point x="267.5066666666667" y="55.66666666666665"/>
      <point x="354.72" y="-31.333333333333332"/>
      <point x="493.79999999999995" y="-31.333333333333332" type="curve" smooth="yes"/>
      <point x="637.0933333333332" y="-31.333333333333332"/>
      <point x="714.6533333333333" y="60.373333333333335"/>
      <point x="714.8399999999999" y="168.20000000000002" type="curve" smooth="yes"/>
      <point x="714.8399999999999" y="323.7999999999999"/>
      <point x="582.5866666666667" y="378.48"/>
      <point x="582.5866666666667" y="527.2666666666668" type="curve" smooth="yes"/>
      <point x="582.5866666666667" y="621.6266666666667"/>
      <point x="624.0266666666668" y="709.2533333333333"/>
      <point x="774.2399999999999" y="900.7866666666667" type="curve" smooth="yes"/>
      <point x="1039.1599999999999" y="1270.4" type="line" smooth="yes"/>
      <point x="1071.9733333333331" y="1310.4266666666665"/>
      <point x="1082.2933333333333" y="1330.7333333333333"/>
      <point x="1082.2933333333333" y="1351.2666666666667" type="curve" smooth="yes"/>
      <point x="1082.2933333333333" y="1379.8666666666668"/>
      <point x="1060.1333333333334" y="1400.0"/>
      <point x="1020.2" y="1400.0" type="curve" smooth="yes"/>
      <point x="166.42666666666668" y="1400.0" type="line" smooth="yes"/>
      <point x="129.44" y="1400.0"/>
      <point x="108.29333333333335" y="1377.8533333333332"/>
      <point x="105.85333333333332" y="1343.9599999999998" type="curve" smooth="yes"/>
      <point x="64.89333333333335" y="933.32" type="line" smooth="yes"/>
      <point x="62.826666666666675" y="904.4933333333333"/>
      <point x="77.32" y="889.4399999999999"/>
      <point x="104.26666666666668" y="889.3333333333331" type="curve" smooth="yes"/>
      <point x="128.69333333333333" y="889.3333333333333"/>
      <point x="143.51999999999998" y="903.0"/>
      <point x="149.51999999999998" y="925.0133333333333" type="curve" smooth="yes"/>
      <point x="185.6133333333333" y="1052.76" type="line" smooth="yes"/>
      <point x="195.22666666666663" y="1088.2799999999997"/>
      <point x="211.82666666666668" y="1099.7600000000002"/>
      <point x="249.15999999999994" y="1099.7600000000002" type="curve" smooth="yes"/>
      <point x="870.1066666666667" y="1099.7600000000002" type="line"/>
    </contour>
  </outline>
</glyph>
<glyph name="eight" format="2">
  <advance width="1225.0933333333332"/>
  <unicode hex="0038"/>
  <outline>
    <contour>
      <point x="584.5333333333333" y="-28.293333333333333" type="curve" smooth="yes"/>
      <point x="950.3545355191258" y="-28.293333333333333"/>
      <point x="1165.3866666666668" y="133.54578842315365"/>
      <point x="1165.3866666666668" y="370.93333333333334" type="curve" smooth="yes"/>
      <point x="1165.3866666666668" y="530.7799178485624"/>
      <point x="1040.5229624505887" y="669.3679014053595"/>
      <point x="741.3333333333335" y="765.24" type="curve" smooth="yes"/>
      <point x="502.84795565577485" y="841.6080431126882"/>
      <point x="420.3466666666667" y="962.0261441870138"/>
      <point x="420.3466666666667" y="1143.7866666666669" type="curve" smooth="yes"/>
      <point x="420.3466666666667" y="1279.321666666667"/>
      <point x="492.3428608667318" y="1374.6933333333336"/>
      <point x="611.4" y="1374.6933333333336" type="curve" smooth="yes"/>
      <point x="746.3318406091322" y="1374.6933333333336"/>
      <point x="824.2400000000001" y="1257.5685333333333"/>
      <point x="824.2400000000001" y="1033.2666666666667" type="curve" smooth="yes"/>
      <point x="824.2400000000001" y="890.2780434277213"/>
      <point x="772.5486677858645" y="766.3809300854648"/>
      <point x="700.6133333333333" y="703.6133333333333" type="curve"/>
      <point x="717.7733333333333" y="685.7466666666667" type="line"/>
      <point x="1017.8452420051906" y="714.2098170067248"/>
      <point x="1161.92" y="868.7080938967136"/>
      <point x="1161.92" y="1053.3999999999999" type="curve" smooth="yes"/>
      <point x="1161.92" y="1279.7466666666667"/>
      <point x="976.1423570239264" y="1428.4266666666667"/>
      <point x="642.2266666666666" y="1428.4266666666667" type="curve" smooth="yes"/>
      <point x="272.9256140350877" y="1428.4266666666667"/>
      <point x="77.61333333333334" y="1232.2262068965517"/>
      <point x="77.61333333333334" y="996.9466666666667" type="curve" smooth="yes"/>
      <point x="77.61333333333334" y="801.0044871623685"/>
      <point x="210.46538954583548" y="645.6506074316123"/>
      <point x="527.4666666666666" y="542.8666666666667" type="curve" smooth="yes"/>
      <point x="733.6628904019875" y="478.4279802790343"/>
      <point x="802.8533333333335" y="379.7424472274033"/>
      <point x="802.8533333333335" y="246.36000000000004" type="curve" smooth="yes"/>
      <point x="802.8533333333335" y="108.37419664268585"/>
      <point x="739.7170833333332" y="24.653333333333336"/>
      <point x="618.3466666666667" y="24.653333333333336" type="curve" smooth="yes"/>
      <point x="494.8950511247444" y="24.653333333333336"/>
      <point x="421.76" y="130.6697716894977"/>
      <point x="421.76" y="343.25333333333333" type="curve" smooth="yes"/>
      <point x="421.76" y="440.9466666666668"/>
      <point x="449.27922679236747" y="553.223696249693"/>
      <point x="507.5733333333333" y="610.2133333333333" type="curve"/>
      <point x="502.5333333333333" y="626.4666666666666" type="line"/>
      <point x="197.01086231162466" y="586.5898586862764"/>
      <point x="78.34666666666666" y="463.87580754378115"/>
      <point x="78.34666666666666" y="306.62666666666667" type="curve"/>
      <point x="78.34666666666666" y="110.24015814036022"/>
      <point x="240.19259259259263" y="-28.293333333333333"/>
    </contour>
  </outline>
</glyph>
<glyph name="nine" format="2">
  <advance width="1250.0533333333335"/>
  <unicode hex="0039"/>
  <outline>
    <contour>
      <point x="542.5733333333334" y="-28.426666666666662" type="curve" smooth="yes"/>
      <point x="924.1965394402035" y="-28.426666666666662"/>
      <point x="1187.2413925034189" y="243.77779567782528"/>
      <point x="1187.1333333333337" y="752.1199999999999" type="curve" smooth="yes"/>
      <point x="1187.028253965085" y="1182.263175994495"/>
      <point x="962.7495772695771" y="1428.4266666666667"/>
      <point x="611.3866666666667" y="1428.4266666666667" type="curve" smooth="yes"/>
      <point x="281.47075939248606" y="1428.4266666666667"/>
      <point x="62.56" y="1238.7166517189837"/>
      <point x="62.56" y="966.3066666666667" type="curve" smooth="yes"/>
      <point x="62.56" y="706.5363265306122"/>
      <point x="226.18666666666664" y="560.1066666666667"/>
      <point x="489.01333333333326" y="560.1066666666667" type="curve" smooth="yes"/>
      <point x="730.2933333333334" y="560.1066666666667"/>
      <point x="887.4266666666667" y="692.6533333333334"/>
      <point x="893.4" y="850.6533333333334" type="curve"/>
      <point x="851.1733333333333" y="863.9866666666666" type="line"/>
      <point x="843.093383929498" y="744.1126074304517"/>
      <point x="744.1066666666667" y="663.8133333333334"/>
      <point x="630.1466666666668" y="663.8133333333334" type="curve" smooth="yes"/>
      <point x="505.01333333333326" y="663.8133333333334"/>
      <point x="414.1466666666667" y="780.452161172161"/>
      <point x="414.1466666666667" y="1005.4666666666666" type="curve" smooth="yes"/>
      <point x="414.1466666666667" y="1251.818231292517"/>
      <point x="490.6533333333333" y="1367.9733333333334"/>
      <point x="610.1600000000001" y="1367.9733333333334" type="curve" smooth="yes"/>
      <point x="726.3801474201473" y="1367.9733333333334"/>
      <point x="819.0149718360627" y="1231.9749318811523"/>
      <point x="819.12" y="776.2533333333334" type="curve" smooth="yes"/>
      <point x="819.2281796543888" y="221.95414465644043"/>
      <point x="710.2736712749615" y="33.253333333333316"/>
      <point x="577.1333333333333" y="33.253333333333316" type="curve" smooth="yes"/>
      <point x="501.18806136680615" y="33.253333333333316"/>
      <point x="462.36" y="86.10666666666665"/>
      <point x="462.36" y="162.13333333333333" type="curve" smooth="yes"/>
      <point x="462.36" y="268.06666666666666" type="line" smooth="yes"/>
      <point x="462.36" y="390.36"/>
      <point x="391.2" y="458.44"/>
      <point x="276.73333333333335" y="458.44" type="curve" smooth="yes"/>
      <point x="161.33333333333334" y="458.44"/>
      <point x="89.4" y="388.9866666666666"/>
      <point x="89.4" y="271.9866666666667" type="curve" smooth="yes"/>
      <point x="89.4" y="108.72"/>
      <point x="243.8216419386746" y="-28.426666666666662"/>
    </contour>
  </outline>
</glyph>
<glyph name="less" format="2">
  <advance width="963.2666666666667"/>
  <unicode hex="003C"/>
  <outline>
    <contour>
      <point x="175.38666666666663" y="691.6133333333333" type="line"/>
      <point x="820.0666666666667" y="315.62666666666667" type="line" smooth="yes"/>
      <point x="846.4933333333332" y="302.41333333333336"/>
      <point x="858.6266666666666" y="281.5466666666666"/>
      <point x="858.6266666666666" y="266.1066666666666" type="curve" smooth="yes"/>
      <point x="859.0533333333333" y="244.16000000000003"/>
      <point x="847.3333333333331" y="229.02666666666667"/>
      <point x="820.5866666666666" y="229.02666666666667" type="curve" smooth="yes"/>
      <point x="797.8933333333334" y="229.02666666666667"/>
      <point x="777.7600000000001" y="239.78666666666666"/>
      <point x="745.6800000000001" y="255.4533333333333" type="curve" smooth="yes"/>
      <point x="119.61333333333333" y="618.1466666666666" type="line" smooth="yes"/>
      <point x="87.36" y="634.32"/>
      <point x="71.6" y="655.5199999999999"/>
      <point x="71.6" y="683.6266666666667" type="curve" smooth="yes"/>
      <point x="71.6" y="711.3066666666667"/>
      <point x="87.36000000000001" y="732.5066666666667"/>
      <point x="119.61333333333333" y="748.68" type="curve" smooth="yes"/>
      <point x="737.5866666666667" y="1109.2400000000002" type="line" smooth="yes"/>
      <point x="771.0400000000001" y="1126.28"/>
      <point x="791.0666666666666" y="1135.7733333333335"/>
      <point x="812.4933333333332" y="1135.7733333333335" type="curve" smooth="yes"/>
      <point x="840.5066666666665" y="1135.7733333333335"/>
      <point x="852.3333333333331" y="1120.533333333333"/>
      <point x="851.9066666666666" y="1099.0133333333333" type="curve" smooth="yes"/>
      <point x="851.9066666666666" y="1083.1466666666668"/>
      <point x="839.6666666666666" y="1065.0266666666669"/>
      <point x="811.8666666666667" y="1050.4399999999998" type="curve" smooth="yes"/>
      <point x="175.38666666666663" y="676.5866666666667" type="line"/>
    </contour>
  </outline>
</glyph>
<glyph name="question" format="2">
  <advance width="1116.1733333333336"/>
  <unicode hex="003F"/>
  <outline>
    <contour>
      <point x="440.9066666666667" y="644.4266666666667" type="line" smooth="yes"/>
      <point x="431.94666666666666" y="693.8000000000002"/>
      <point x="448.01585409544816" y="726.2960471874044"/>
      <point x="498.6533333333335" y="749.6" type="curve" smooth="yes"/>
      <point x="549.76" y="773.9866666666668" type="line" smooth="yes"/>
      <point x="649.12" y="824.6666666666666"/>
      <point x="684.2933333333333" y="930.7600647816275"/>
      <point x="684.2933333333333" y="1139.706666666667" type="curve" smooth="yes"/>
      <point x="684.2933333333333" y="1306.0624915824917"/>
      <point x="635.7600000000001" y="1389.88"/>
      <point x="545.2266666666668" y="1389.88" type="curve" smooth="yes"/>
      <point x="456.97333333333336" y="1389.88"/>
      <point x="406.66666666666663" y="1332.1733333333334"/>
      <point x="407.03999999999996" y="1236.0533333333333" type="curve" smooth="yes"/>
      <point x="407.41333333333324" y="1137.7066666666665" type="line" smooth="yes"/>
      <point x="407.7866666666666" y="1001.2799999999999"/>
      <point x="341.46183406113533" y="923.6"/>
      <point x="223.73333333333332" y="923.6000000000001" type="curve" smooth="yes"/>
      <point x="122.60200312989046" y="923.6"/>
      <point x="56.0" y="991.0751070336391"/>
      <point x="56.0" y="1107.84" type="curve" smooth="yes"/>
      <point x="56.0" y="1296.36"/>
      <point x="265.84" y="1455.0666666666668"/>
      <point x="555.6666666666666" y="1455.0666666666668" type="curve" smooth="yes"/>
      <point x="892.2" y="1455.0666666666668"/>
      <point x="1067.9466666666665" y="1321.2141393786733"/>
      <point x="1067.9466666666665" y="1081.8133333333335" type="curve" smooth="yes"/>
      <point x="1067.9466666666665" y="890.5532053534218"/>
      <point x="950.2875073089543" y="757.2652562391165"/>
      <point x="698.7999999999998" y="706.92" type="curve" smooth="yes"/>
      <point x="625.6133333333333" y="693.4800000000001" type="line" smooth="yes"/>
      <point x="584.1066666666667" y="685.2133333333331"/>
      <point x="568.8533333333334" y="665.3733333333334"/>
      <point x="561.2266666666666" y="622.7200000000001" type="curve" smooth="yes"/>
      <point x="548.0533333333334" y="500.98666666666674" type="line" smooth="yes"/>
      <point x="539.1466666666668" y="468.12"/>
      <point x="526.0000000000001" y="458.1333333333333"/>
      <point x="502.52000000000004" y="458.1333333333333" type="curve" smooth="yes"/>
      <point x="475.35999999999996" y="458.1333333333333"/>
      <point x="462.1066666666666" y="471.59999999999985"/>
      <point x="455.7600000000001" y="499.85333333333335" type="curve" smooth="yes"/>
    </contour>
    <component base="period" xOffset="229.93333333333334"/>
  </outline>
</glyph>
<glyph name="at" format="2">
  <advance width="1716.9333333333334"/>
  <unicode hex="0040"/>
  <outline>
    <contour>
      <point x="992.76" y="513.28" type="curve"/>
      <point x="1010.0533333333334" y="550.4266666666666" type="line"/>
      <point x="967.44" y="572.88"/>
      <point x="929.6" y="584.5999999999999"/>
      <point x="857.16" y="584.5999999999999" type="curve" smooth="yes"/>
      <point x="581.8666666666667" y="584.5999999999999"/>
      <point x="449.4266666666666" y="485.1911111111111"/>
      <point x="449.4266666666666" y="335.0666666666666" type="curve" smooth="yes"/>
      <point x="449.4266666666666" y="207.84"/>
      <point x="558.2533333333333" y="121.36000000000001"/>
      <point x="718.4266666666667" y="121.36000000000001" type="curve" smooth="yes"/>
      <point x="838.1599999999999" y="121.36000000000001"/>
      <point x="952.1733333333334" y="172.44000000000003"/>
      <point x="1008.5999999999999" y="265.0133333333334" type="curve"/>
      <point x="989.8933333333331" y="299.5733333333333" type="line"/>
      <point x="964.4015234280025" y="259.5342217428747"/>
      <point x="918.3066666666665" y="235.93333333333334"/>
      <point x="871.4133333333334" y="235.93333333333334" type="curve" smooth="yes"/>
      <point x="805.3123809523811" y="235.93333333333334"/>
      <point x="758.2133333333334" y="286.3185009861933"/>
      <point x="758.2133333333334" y="384.35999999999996" type="curve" smooth="yes"/>
      <point x="758.2133333333334" y="483.62666666666667"/>
      <point x="808.2572413793102" y="538.3599999999999"/>
      <point x="882.3466666666667" y="538.3599999999999" type="curve" smooth="yes"/>
      <point x="926.7466666666666" y="538.3599999999999"/>
      <point x="956.2310800336392" y="529.5272411824819"/>
    </contour>
    <contour>
      <point x="1323.1066666666666" y="220.89333333333337" type="curve" smooth="yes"/>
      <point x="1282.0266666666666" y="220.89333333333337"/>
      <point x="1265.053333333333" y="242.96000000000006"/>
      <point x="1265.053333333333" y="284.0133333333333" type="curve" smooth="yes"/>
      <point x="1265.053333333333" y="762.3599999999998" type="line" smooth="yes"/>
      <point x="1265.053333333333" y="937.8400000000001"/>
      <point x="1130.6374483903085" y="1026.4400000000003"/>
      <point x="907.4533333333334" y="1026.4400000000003" type="curve" smooth="yes"/>
      <point x="635.3409395973155" y="1026.4400000000003"/>
      <point x="492.5199999999999" y="913.9433639143732"/>
      <point x="492.5199999999999" y="787.9599999999999" type="curve" smooth="yes"/>
      <point x="492.5199999999999" y="708.7466666666667"/>
      <point x="549.3626666666667" y="672.7066666666667"/>
      <point x="618.8666666666667" y="672.7066666666667" type="curve" smooth="yes"/>
      <point x="709.48" y="672.7066666666667"/>
      <point x="778.7466666666667" y="730.36"/>
      <point x="778.7466666666667" y="813.1600000000001" type="curve" smooth="yes"/>
      <point x="778.7466666666667" y="887.8533333333334" type="line" smooth="yes"/>
      <point x="778.7466666666667" y="935.3256737588653"/>
      <point x="811.5449824561402" y="971.2799999999999"/>
      <point x="870.16" y="971.2799999999999" type="curve" smooth="yes"/>
      <point x="927.4266666666667" y="971.2799999999999"/>
      <point x="960.1066666666666" y="928.0041904761905"/>
      <point x="960.1066666666666" y="860.2" type="curve" smooth="yes"/>
      <point x="960.1066666666666" y="256.1066666666667" type="line"/>
      <point x="976.8933333333334" y="250.9466666666667" type="line"/>
      <point x="992.1199952180107" y="167.74682925430608"/>
      <point x="1075.6933333333336" y="121.88000000000001"/>
      <point x="1211.7466666666667" y="121.45333333333335" type="curve" smooth="yes"/>
      <point x="1476.9684537693215" y="121.0174315631429"/>
      <point x="1650.4133333333334" y="321.09333333333336"/>
      <point x="1650.4133333333334" y="630.12" type="curve" smooth="yes"/>
      <point x="1650.4133333333334" y="1109.9630655586334"/>
      <point x="1310.4933333333336" y="1387.8533333333332"/>
      <point x="879.7466666666666" y="1387.8533333333332" type="curve" smooth="yes"/>
      <point x="394.08000000000004" y="1387.8533333333332"/>
      <point x="61.41333333333333" y="1028.72"/>
      <point x="61.41333333333333" y="557.2266666666666" type="curve" smooth="yes"/>
      <point x="61.41333333333333" y="39.160000000000004"/>
      <point x="413.6" y="-280.2266666666667"/>
      <point x="888.2400000000001" y="-280.2266666666667" type="curve" smooth="yes"/>
      <point x="1195.7733333333333" y="-280.2266666666667"/>
      <point x="1447.1733333333332" y="-150.30666666666664"/>
      <point x="1595.64" y="37.48000000000001" type="curve" smooth="yes"/>
      <point x="1619.0123024795862" y="63.6865568047536"/>
      <point x="1621.0691951062108" y="85.21164770697033"/>
      <point x="1608.8666666666666" y="95.50666666666666" type="curve" smooth="yes"/>
      <point x="1593.9199999999998" y="107.78666666666666"/>
      <point x="1575.9866666666665" y="103.42666666666668"/>
      <point x="1552.2400000000002" y="79.85333333333332" type="curve" smooth="yes"/>
      <point x="1375.6533333333334" y="-121.49333333333334"/>
      <point x="1145.5200000000002" y="-217.4266666666667"/>
      <point x="888.8800000000001" y="-217.4266666666667" type="curve" smooth="yes"/>
      <point x="446.95866666666666" y="-217.4266666666667"/>
      <point x="137.9733333333333" y="92.0133333333333"/>
      <point x="137.9733333333333" y="557.2266666666666" type="curve" smooth="yes"/>
      <point x="137.9733333333333" y="1000.2933333333334"/>
      <point x="434.46666666666664" y="1324.9466666666665"/>
      <point x="875.3733333333332" y="1324.9466666666665" type="curve" smooth="yes"/>
      <point x="1267.8933333333332" y="1324.9466666666665"/>
      <point x="1574.7066666666667" y="1064.4092687559353"/>
      <point x="1574.7066666666667" y="629.1600000000001" type="curve" smooth="yes"/>
      <point x="1574.7066666666667" y="365.2933333333333"/>
      <point x="1435.159640915117" y="220.89333333333337"/>
    </contour>
  </outline>
</glyph>
<glyph name="A" format="2">
  <advance width="1420.2533333333336"/>
  <unicode hex="0041"/>
  <anchor x="711.5333333333334" y="1466.6399999999999" name="center"/>
  <outline>
    <contour>
      <point x="313.47999999999996" y="561.8133333333333" type="line"/>
      <point x="308.4133333333333" y="483.46666666666664" type="line"/>
      <point x="861.8533333333334" y="483.46666666666664" type="line"/>
      <point x="858.6800000000001" y="561.8133333333333" type="line"/>
    </contour>
    <contour>
      <point x="426.94666666666666" y="34.08" type="curve" smooth="yes"/>
      <point x="426.94666666666666" y="51.28000000000001"/>
      <point x="416.35999999999996" y="60.0"/>
      <point x="396.8400000000001" y="68.26666666666664" type="curve" smooth="yes"/>
      <point x="362.84" y="78.77333333333335" type="line" smooth="yes"/>
      <point x="276.8360809580398" y="110.92517571258804"/>
      <point x="241.9878430703031" y="155.10982874379349"/>
      <point x="269.6666666666667" y="246.0533333333333" type="curve" smooth="yes"/>
      <point x="591.1066666666668" y="1303.9199999999998" type="line" smooth="yes"/>
      <point x="557.8799999999999" y="1258.933333333333" type="line"/>
      <point x="903.7733333333333" y="157.9733333333333" type="line" smooth="yes"/>
      <point x="918.2800000000001" y="110.48000000000002"/>
      <point x="920.76" y="92.29333333333332"/>
      <point x="886.0933333333334" y="80.48000000000002" type="curve" smooth="yes"/>
      <point x="843.16" y="69.12" type="line" smooth="yes"/>
      <point x="821.1066666666666" y="60.58666666666668"/>
      <point x="811.1333333333333" y="51.54666666666667"/>
      <point x="811.1333333333333" y="34.08" type="curve" smooth="yes"/>
      <point x="811.1333333333333" y="13.413333333333338"/>
      <point x="824.9733333333332" y="0.0"/>
      <point x="855.6666666666667" y="0.0" type="curve" smooth="yes"/>
      <point x="1350.9999999999998" y="0.0" type="line" smooth="yes"/>
      <point x="1381.3733333333334" y="0.0"/>
      <point x="1395.64" y="13.413333333333334"/>
      <point x="1395.64" y="34.08" type="curve" smooth="yes"/>
      <point x="1395.64" y="52.933333333333344"/>
      <point x="1387.7119820379617" y="62.93600598734611"/>
      <point x="1360.0666666666666" y="75.04" type="curve" smooth="yes"/>
      <point x="1325.5208849657247" y="86.38699114726944"/>
      <point x="1307.135150106113" y="110.60599603327616"/>
      <point x="1289.5866666666668" y="166.05333333333334" type="curve" smooth="yes"/>
      <point x="941.9066666666666" y="1253.3866666666665" type="line" smooth="yes"/>
      <point x="926.9733333333332" y="1299.6"/>
      <point x="932.84" y="1314.7733333333333"/>
      <point x="963.16" y="1325.0133333333333" type="curve" smooth="yes"/>
      <point x="989.7733333333333" y="1335.5733333333335"/>
      <point x="1001.2666666666668" y="1347.2800000000002"/>
      <point x="1001.2666666666668" y="1366.24" type="curve" smooth="yes"/>
      <point x="1001.2666666666668" y="1387.4399999999998"/>
      <point x="987.2133333333334" y="1400.0"/>
      <point x="956.7333333333333" y="1400.0" type="curve" smooth="yes"/>
      <point x="438.44" y="1400.0" type="line" smooth="yes"/>
      <point x="407.88" y="1400.0"/>
      <point x="393.6133333333333" y="1387.4399999999998"/>
      <point x="393.6133333333333" y="1366.1333333333334" type="curve" smooth="yes"/>
      <point x="393.6133333333333" y="1348.4533333333336"/>
      <point x="404.84" y="1337.8666666666668"/>
      <point x="433.40000000000003" y="1323.4133333333332" type="curve" smooth="yes"/>
      <point x="476.8133333333333" y="1302.2399999999998"/>
      <point x="487.8543908384215" y="1273.0055279582605"/>
      <point x="467.93333333333334" y="1206.4000000000003" type="curve" smooth="yes"/>
      <point x="173.1333333333333" y="237.09333333333328" type="line" smooth="yes"/>
      <point x="143.59667207987815" y="138.18036188940445"/>
      <point x="107.7820577746591" y="100.71638688779736"/>
      <point x="62.28000000000001" y="80.34666666666666" type="curve" smooth="yes"/>
      <point x="34.54666666666667" y="69.12000000000003" type="line" smooth="yes"/>
      <point x="15.586666666666673" y="59.09333333333332"/>
      <point x="7.0799999999999965" y="49.62666666666665"/>
      <point x="7.0799999999999965" y="33.973333333333336" type="curve" smooth="yes"/>
      <point x="7.0799999999999965" y="13.413333333333338"/>
      <point x="20.86666666666667" y="0.0"/>
      <point x="50.54666666666668" y="0.0" type="curve" smooth="yes"/>
      <point x="383.58666666666664" y="0.0" type="line" smooth="yes"/>
      <point x="413.6933333333333" y="0.0"/>
      <point x="426.94666666666666" y="13.413333333333338"/>
    </contour>
  </outline>
</glyph>
<glyph name="B" format="2">
  <advance width="1425.7200000000003"/>
  <unicode hex="0042"/>
  <outline>
    <contour>
      <point x="1380.9866666666665" y="335.25333333333333" type="curve" smooth="yes"/>
      <point x="1380.9866666666665" y="534.5944524479202"/>
      <point x="1171.0666666666666" y="674.2933333333334"/>
      <point x="864.4533333333334" y="674.2933333333334" type="curve"/>
      <point x="811.6266666666668" y="651.4933333333333" type="line"/>
      <point x="1120.6933333333334" y="651.4933333333333"/>
      <point x="1300.9866666666665" y="792.0043010752689"/>
      <point x="1300.9866666666665" y="993.84" type="curve" smooth="yes"/>
      <point x="1300.9866666666665" y="1234.56"/>
      <point x="1075.6533333333332" y="1400.0"/>
      <point x="682.7733333333333" y="1400.0" type="curve" smooth="yes"/>
      <point x="126.55999999999999" y="1400.0" type="line" smooth="yes"/>
      <point x="96.10666666666667" y="1400.0"/>
      <point x="82.16000000000001" y="1386.5866666666664"/>
      <point x="82.16000000000001" y="1365.92" type="curve" smooth="yes"/>
      <point x="82.16000000000001" y="1347.4933333333333"/>
      <point x="91.09333333333335" y="1335.2533333333336"/>
      <point x="113.97333333333331" y="1328.2133333333336" type="curve" smooth="yes"/>
      <point x="171.06666666666666" y="1315.84" type="line" smooth="yes"/>
      <point x="204.93333333333334" y="1307.066666666667"/>
      <point x="217.84" y="1293.5466666666666"/>
      <point x="217.84" y="1269.3333333333335" type="curve" smooth="yes"/>
      <point x="217.84" y="138.87999999999994" type="line" smooth="yes"/>
      <point x="217.84" y="108.69333333333334"/>
      <point x="202.69333333333333" y="92.55999999999999"/>
      <point x="171.06666666666666" y="84.16000000000001" type="curve" smooth="yes"/>
      <point x="113.97333333333331" y="71.78666666666668" type="line" smooth="yes"/>
      <point x="91.09333333333335" y="64.74666666666666"/>
      <point x="82.16000000000001" y="52.506666666666646"/>
      <point x="82.16000000000001" y="34.08" type="curve" smooth="yes"/>
      <point x="82.16000000000001" y="13.413333333333332"/>
      <point x="96.10666666666667" y="0.0"/>
      <point x="126.55999999999999" y="0.0" type="curve" smooth="yes"/>
      <point x="869.2266666666667" y="0.0" type="line" smooth="yes"/>
      <point x="1210.3179487179489" y="0.0"/>
      <point x="1380.9866666666665" y="136.4"/>
    </contour>
    <contour>
      <point x="734.9066666666665" y="620.72" type="line" smooth="yes"/>
      <point x="916.1059799713877" y="620.72"/>
      <point x="1015.3066666666667" y="515.3422222222223"/>
      <point x="1015.3066666666667" y="344.9066666666666" type="curve" smooth="yes"/>
      <point x="1015.3066666666667" y="175.41333333333336"/>
      <point x="928.0017582417581" y="69.81333333333333"/>
      <point x="778.4800000000001" y="69.81333333333333" type="curve" smooth="yes"/>
      <point x="680.3199999999999" y="69.81333333333333" type="line" smooth="yes"/>
      <point x="619.1999999999999" y="69.81333333333333"/>
      <point x="585.92" y="93.33333333333331"/>
      <point x="585.92" y="147.73333333333332" type="curve" smooth="yes"/>
      <point x="585.92" y="1330.1866666666665" type="line"/>
      <point x="643.5199999999999" y="1330.1866666666665" type="line" smooth="yes"/>
      <point x="833.358492343934" y="1330.1866666666665"/>
      <point x="961.3066666666666" y="1189.7599999999998"/>
      <point x="961.3066666666666" y="971.7866666666666" type="curve" smooth="yes"/>
      <point x="961.3066666666666" y="778.4015784008307"/>
      <point x="878.8760579710146" y="682.4266666666666"/>
      <point x="717.8399999999999" y="682.4266666666666" type="curve" smooth="yes"/>
      <point x="515.84" y="682.4266666666666" type="line"/>
      <point x="515.84" y="620.72" type="line"/>
    </contour>
  </outline>
</glyph>
<glyph name="C" format="2">
  <advance width="1367.4"/>
  <unicode hex="0043"/>
  <anchor x="747.5866666666666" y="1522.0" name="center"/>
  <outline>
    <contour>
      <point x="1315.36" y="410.16" type="curve" smooth="yes"/>
      <point x="1315.7333333333336" y="428.6533333333333"/>
      <point x="1308.5333333333335" y="441.2133333333333"/>
      <point x="1292.6533333333332" y="443.7733333333333" type="curve" smooth="yes"/>
      <point x="1276.0800000000002" y="446.4266666666667"/>
      <point x="1263.0266666666666" y="439.1333333333333"/>
      <point x="1251.7333333333333" y="416.06666666666666" type="curve" smooth="yes"/>
      <point x="1192.8133333333333" y="237.22666666666666"/>
      <point x="1058.8533333333332" y="141.19999999999996"/>
      <point x="889.0399999999998" y="141.19999999999996" type="curve" smooth="yes"/>
      <point x="628.3000673400674" y="141.19999999999996"/>
      <point x="444.2133333333333" y="353.9066666666667"/>
      <point x="444.2133333333333" y="779.1199999999999" type="curve" smooth="yes"/>
      <point x="444.2133333333333" y="1134.7438759689924"/>
      <point x="597.9208602150537" y="1344.56"/>
      <point x="812.8666666666667" y="1344.56" type="curve" smooth="yes"/>
      <point x="968.24" y="1344.56"/>
      <point x="1115.8516016669723" y="1255.7291701476618"/>
      <point x="1224.8133333333335" y="988.4133333333333" type="curve" smooth="yes"/>
      <point x="1236.506666666667" y="960.8266666666667"/>
      <point x="1257.4266666666667" y="951.0133333333334"/>
      <point x="1281.7333333333331" y="956.5466666666665" type="curve" smooth="yes"/>
      <point x="1305.2399999999998" y="961.6533333333333"/>
      <point x="1317.9199999999998" y="982.2"/>
      <point x="1310.8533333333335" y="1007.2" type="curve" smooth="yes"/>
      <point x="1211.8800000000003" y="1387.7466666666667" type="line" smooth="yes"/>
      <point x="1203.6399999999999" y="1417.373333333333"/>
      <point x="1191.9733333333338" y="1427.9733333333331"/>
      <point x="1173.7333333333333" y="1427.9733333333331" type="curve" smooth="yes"/>
      <point x="1137.613333333333" y="1427.9733333333331"/>
      <point x="1091.7866666666669" y="1356.8266666666666"/>
      <point x="1051.1333333333337" y="1356.8266666666666" type="curve" smooth="yes"/>
      <point x="1018.2799999999997" y="1356.8266666666666"/>
      <point x="933.4000000000001" y="1432.1866666666667"/>
      <point x="744.7066666666667" y="1432.1866666666667" type="curve" smooth="yes"/>
      <point x="345.51331355093964" y="1432.1866666666667"/>
      <point x="58.24" y="1120.2666666666667"/>
      <point x="58.24" y="685.6800000000001" type="curve" smooth="yes"/>
      <point x="58.24" y="258.86256694367495"/>
      <point x="322.50666666666666" y="-34.693333333333335"/>
      <point x="747.5333333333333" y="-34.693333333333335" type="curve" smooth="yes"/>
      <point x="1082.3880314960631" y="-34.693333333333335"/>
      <point x="1304.8133333333335" y="180.33333333333334"/>
    </contour>
  </outline>
</glyph>
<glyph name="D" format="2">
  <advance width="1560.32"/>
  <unicode hex="0044"/>
  <anchor x="760.0933333333334" y="1491.8" name="center"/>
  <outline>
    <contour>
      <point x="82.26666666666668" y="34.08" type="curve" smooth="yes"/>
      <point x="82.26666666666668" y="13.039999999999997"/>
      <point x="95.84" y="0.0"/>
      <point x="126.29333333333331" y="0.0" type="curve" smooth="yes"/>
      <point x="770.4933333333333" y="0.0" type="line" smooth="yes"/>
      <point x="1218.9200000000003" y="0.0"/>
      <point x="1501.053333333333" y="251.83999999999997"/>
      <point x="1501.053333333333" y="634.0266666666669" type="curve" smooth="yes"/>
      <point x="1501.053333333333" y="1103.5866666666666"/>
      <point x="1166.9066666666668" y="1400.0"/>
      <point x="679.3733333333333" y="1400.0" type="curve" smooth="yes"/>
      <point x="126.29333333333331" y="1400.0" type="line" smooth="yes"/>
      <point x="96.21333333333334" y="1400.0"/>
      <point x="82.26666666666668" y="1387.4266666666663"/>
      <point x="82.26666666666668" y="1366.293333333333" type="curve" smooth="yes"/>
      <point x="82.26666666666668" y="1347.7733333333333"/>
      <point x="90.82666666666667" y="1335.3466666666666"/>
      <point x="112.21333333333331" y="1328.5866666666668" type="curve" smooth="yes"/>
      <point x="173.6" y="1315.4666666666665" type="line" smooth="yes"/>
      <point x="203.45333333333332" y="1307.3466666666666"/>
      <point x="217.9466666666667" y="1293.1733333333336"/>
      <point x="217.9466666666667" y="1267.56" type="curve" smooth="yes"/>
      <point x="217.9466666666667" y="131.6933333333333" type="line" smooth="yes"/>
      <point x="217.9466666666667" y="106.5466666666667"/>
      <point x="203.73333333333332" y="92.56"/>
      <point x="173.31999999999996" y="84.53333333333335" type="curve" smooth="yes"/>
      <point x="113.23999999999998" y="71.78666666666668" type="line" smooth="yes"/>
      <point x="91.94666666666667" y="65.11999999999996"/>
      <point x="82.26666666666668" y="52.506666666666646"/>
    </contour>
    <contour>
      <point x="746.7066666666667" y="75.28" type="curve" smooth="yes"/>
      <point x="668.5333333333333" y="75.28" type="line" smooth="yes"/>
      <point x="617.0400000000001" y="75.28"/>
      <point x="589.6533333333332" y="97.94666666666666"/>
      <point x="589.6533333333332" y="147.14666666666668" type="curve" smooth="yes"/>
      <point x="589.6533333333332" y="1324.7199999999998" type="line"/>
      <point x="655.8799999999999" y="1324.7199999999998" type="line" smooth="yes"/>
      <point x="937.9866666666667" y="1324.7199999999998"/>
      <point x="1114.9066666666668" y="1083.5222342342342"/>
      <point x="1114.9066666666668" y="653.4133333333333" type="curve" smooth="yes"/>
      <point x="1114.9066666666668" y="247.026112886049"/>
      <point x="960.6666666666667" y="75.28"/>
    </contour>
  </outline>
</glyph>
<glyph name="E" format="2">
  <advance width="1295.32"/>
  <unicode hex="0045"/>
  <anchor x="660.7599999999999" y="1479.8799999999999" name="center"/>
  <outline>
    <contour>
      <point x="485.12" y="757.0133333333334" type="line"/>
      <point x="485.12" y="682.72" type="line"/>
      <point x="769.1733333333334" y="682.72" type="line" smooth="yes"/>
      <point x="873.92" y="682.72"/>
      <point x="919.4666666666667" y="656.1066666666666"/>
      <point x="999.9466666666668" y="542.1600000000001" type="curve" smooth="yes"/>
      <point x="1013.5733333333333" y="523.52"/>
      <point x="1030.9333333333334" y="519.4933333333332"/>
      <point x="1049.6800000000003" y="525.9999999999999" type="curve" smooth="yes"/>
      <point x="1068.9600000000003" y="532.6133333333332"/>
      <point x="1075.8666666666666" y="547.9466666666666"/>
      <point x="1069.3866666666668" y="574.0000000000001" type="curve" smooth="yes"/>
      <point x="975.9733333333331" y="910.4800000000001" type="line" smooth="yes"/>
      <point x="970.7733333333332" y="931.7066666666667"/>
      <point x="957.5733333333333" y="943.92"/>
      <point x="939.3866666666668" y="943.3066666666666" type="curve" smooth="yes"/>
      <point x="922.1333333333334" y="942.8799999999999"/>
      <point x="908.8000000000001" y="932.7733333333334"/>
      <point x="902.5066666666668" y="907.76" type="curve" smooth="yes"/>
      <point x="879.7066666666667" y="790.48"/>
      <point x="842.5733333333335" y="757.0133333333334"/>
      <point x="742.9866666666666" y="757.0133333333334" type="curve" smooth="yes"/>
    </contour>
    <contour>
      <point x="82.26666666666668" y="1365.92" type="curve" smooth="yes"/>
      <point x="82.26666666666668" y="1347.4933333333333"/>
      <point x="91.20000000000002" y="1335.2533333333336"/>
      <point x="114.07999999999998" y="1328.2133333333336" type="curve" smooth="yes"/>
      <point x="171.17333333333332" y="1315.84" type="line" smooth="yes"/>
      <point x="202.0533333333333" y="1307.8133333333335"/>
      <point x="217.9466666666667" y="1293.5466666666666"/>
      <point x="217.9466666666667" y="1269.3333333333335" type="curve" smooth="yes"/>
      <point x="217.9466666666667" y="130.66666666666663" type="line" smooth="yes"/>
      <point x="217.9466666666667" y="106.45333333333335"/>
      <point x="202.0533333333333" y="92.18666666666665"/>
      <point x="171.17333333333332" y="84.16000000000001" type="curve" smooth="yes"/>
      <point x="114.07999999999998" y="71.78666666666668" type="line" smooth="yes"/>
      <point x="91.20000000000002" y="64.74666666666664"/>
      <point x="82.26666666666668" y="52.506666666666646"/>
      <point x="82.26666666666668" y="34.08" type="curve" smooth="yes"/>
      <point x="82.26666666666668" y="13.413333333333332"/>
      <point x="96.21333333333332" y="0.0"/>
      <point x="126.66666666666666" y="0.0" type="curve" smooth="yes"/>
      <point x="966.7866666666666" y="0.0" type="line" smooth="yes"/>
      <point x="1035.4266666666667" y="0.0"/>
      <point x="1070.3066666666666" y="-30.8"/>
      <point x="1104.3066666666668" y="-30.8" type="curve" smooth="yes"/>
      <point x="1135.3200000000002" y="-30.8"/>
      <point x="1148.4133333333332" y="-13.440000000000001"/>
      <point x="1159.6666666666667" y="28.400000000000006" type="curve" smooth="yes"/>
      <point x="1259.2133333333334" y="425.0933333333334" type="line" smooth="yes"/>
      <point x="1266.9733333333331" y="453.91999999999996"/>
      <point x="1255.4533333333334" y="471.8666666666666"/>
      <point x="1231.9333333333334" y="476.8800000000001" type="curve" smooth="yes"/>
      <point x="1210.7599999999998" y="481.04000000000013"/>
      <point x="1193.2933333333333" y="473.4133333333333"/>
      <point x="1181.8" y="450.32000000000005" type="curve" smooth="yes"/>
      <point x="1019.5999999999998" y="139.73333333333335"/>
      <point x="922.3733333333334" y="75.57333333333334"/>
      <point x="788.7066666666666" y="75.57333333333334" type="curve" smooth="yes"/>
      <point x="674.7733333333333" y="75.57333333333334" type="line" smooth="yes"/>
      <point x="619.2" y="75.57333333333334"/>
      <point x="589.6533333333332" y="102.07999999999998"/>
      <point x="589.6533333333332" y="156.80000000000004" type="curve" smooth="yes"/>
      <point x="589.6533333333332" y="1324.4266666666665" type="line"/>
      <point x="766.3733333333333" y="1324.4266666666665" type="line" smooth="yes"/>
      <point x="902.8266666666667" y="1324.4266666666665"/>
      <point x="989.7333333333333" y="1272.7466666666667"/>
      <point x="1146.3733333333337" y="1017.5999999999999" type="curve" smooth="yes"/>
      <point x="1159.7866666666666" y="993.2266666666666"/>
      <point x="1179.4933333333336" y="983.8399999999999"/>
      <point x="1203.0400000000002" y="991.9466666666666" type="curve" smooth="yes"/>
      <point x="1223.6" y="999.3066666666666"/>
      <point x="1231.5733333333333" y="1015.7066666666666"/>
      <point x="1224.24" y="1042.5333333333333" type="curve" smooth="yes"/>
      <point x="1136.8" y="1372.9600000000003" type="line" smooth="yes"/>
      <point x="1124.6933333333336" y="1415.9733333333334"/>
      <point x="1112.2400000000002" y="1431.7600000000002"/>
      <point x="1083.5733333333333" y="1431.7600000000002" type="curve" smooth="yes"/>
      <point x="1046.8533333333332" y="1431.7600000000002"/>
      <point x="1012.8800000000001" y="1400.0"/>
      <point x="947.3333333333334" y="1400.0" type="curve" smooth="yes"/>
      <point x="126.66666666666666" y="1400.0" type="line" smooth="yes"/>
      <point x="96.21333333333332" y="1400.0"/>
      <point x="82.26666666666668" y="1386.5866666666664"/>
    </contour>
  </outline>
</glyph>
<glyph name="F" format="2">
  <advance width="1198.2399999999998"/>
  <unicode hex="0046"/>
  <outline>
    <contour>
      <point x="904.1866666666666" y="1400.0" type="curve" smooth="yes"/>
      <point x="126.66666666666666" y="1400.0" type="line" smooth="yes"/>
      <point x="96.21333333333332" y="1400.0"/>
      <point x="82.26666666666668" y="1386.5866666666664"/>
      <point x="82.26666666666668" y="1365.92" type="curve" smooth="yes"/>
      <point x="82.26666666666668" y="1347.4933333333333"/>
      <point x="91.20000000000002" y="1335.2533333333336"/>
      <point x="114.07999999999998" y="1328.2133333333336" type="curve" smooth="yes"/>
      <point x="171.17333333333332" y="1315.84" type="line" smooth="yes"/>
      <point x="202.0533333333333" y="1307.8133333333335"/>
      <point x="217.9466666666667" y="1293.5466666666666"/>
      <point x="217.9466666666667" y="1269.3333333333335" type="curve" smooth="yes"/>
      <point x="217.9466666666667" y="130.66666666666663" type="line" smooth="yes"/>
      <point x="217.9466666666667" y="106.45333333333335"/>
      <point x="202.0533333333333" y="92.18666666666667"/>
      <point x="171.17333333333332" y="84.16000000000001" type="curve" smooth="yes"/>
      <point x="114.07999999999998" y="71.78666666666668" type="line" smooth="yes"/>
      <point x="91.20000000000002" y="64.74666666666664"/>
      <point x="82.26666666666668" y="52.506666666666646"/>
      <point x="82.26666666666668" y="34.08" type="curve" smooth="yes"/>
      <point x="82.26666666666668" y="13.413333333333332"/>
      <point x="96.21333333333332" y="0.0"/>
      <point x="126.66666666666666" y="0.0" type="curve" smooth="yes"/>
      <point x="720.9333333333333" y="0.0" type="line" smooth="yes"/>
      <point x="751.3866666666667" y="0.0"/>
      <point x="765.3333333333335" y="13.413333333333332"/>
      <point x="765.3333333333335" y="34.08" type="curve" smooth="yes"/>
      <point x="765.3333333333335" y="56.346666666666664"/>
      <point x="755.12" y="67.78666666666665"/>
      <point x="730.1066666666668" y="72.21333333333334" type="curve" smooth="yes"/>
      <point x="638.2933333333334" y="84.16000000000001" type="line" smooth="yes"/>
      <point x="604.8266666666666" y="89.38666666666668"/>
      <point x="589.6533333333333" y="106.02666666666669"/>
      <point x="589.6533333333333" y="130.66666666666666" type="curve" smooth="yes"/>
      <point x="589.6533333333333" y="1324.4266666666665" type="line"/>
      <point x="733.04" y="1324.4266666666665" type="line" smooth="yes"/>
      <point x="867.7866666666666" y="1324.4266666666665"/>
      <point x="964.5952572138239" y="1260.5731028769058"/>
      <point x="1102.9066666666665" y="1015.4666666666666" type="curve" smooth="yes"/>
      <point x="1115.8933333333334" y="990.6666666666667"/>
      <point x="1134.32" y="985.6533333333333"/>
      <point x="1152.64" y="988.9600000000002" type="curve" smooth="yes"/>
      <point x="1174.4799999999998" y="993.0133333333333"/>
      <point x="1188.3333333333333" y="1008.9866666666667"/>
      <point x="1181.84" y="1033.2533333333336" type="curve" smooth="yes"/>
      <point x="1093.2266666666667" y="1372.9600000000003" type="line" smooth="yes"/>
      <point x="1081.9733333333334" y="1415.1200000000001"/>
      <point x="1068.773333333333" y="1429.6266666666668"/>
      <point x="1038.5066666666662" y="1429.6266666666668" type="curve" smooth="yes"/>
      <point x="1009.1466666666669" y="1429.6266666666668"/>
      <point x="970.9066666666665" y="1400.0"/>
    </contour>
    <contour>
      <point x="474.29333333333324" y="724.0" type="line"/>
      <point x="474.29333333333324" y="649.7066666666667" type="line"/>
      <point x="763.6533333333333" y="649.7066666666667" type="line" smooth="yes"/>
      <point x="866.1600000000001" y="649.7066666666667"/>
      <point x="907.774770906222" y="620.098990976367"/>
      <point x="985.3600000000001" y="512.5600000000001" type="curve" smooth="yes"/>
      <point x="1001.5466666666667" y="491.3599999999999"/>
      <point x="1018.0533333333334" y="486.48"/>
      <point x="1037.2266666666667" y="493.4133333333333" type="curve" smooth="yes"/>
      <point x="1054.8" y="500.02666666666676"/>
      <point x="1063.4133333333334" y="514.08"/>
      <point x="1056.9333333333334" y="539.7066666666668" type="curve" smooth="yes"/>
      <point x="978.7733333333334" y="877.4666666666666" type="line" smooth="yes"/>
      <point x="973.5733333333333" y="899.1199999999999"/>
      <point x="959.0933333333336" y="909.1999999999999"/>
      <point x="940.4800000000001" y="908.5866666666666" type="curve" smooth="yes"/>
      <point x="923.6533333333334" y="908.1599999999999"/>
      <point x="911.1733333333333" y="900.1866666666666"/>
      <point x="904.8799999999999" y="877.3066666666667" type="curve" smooth="yes"/>
      <point x="880.8799999999999" y="757.4666666666666"/>
      <point x="839.8266666666668" y="724.0"/>
      <point x="735.3333333333333" y="724.0" type="curve" smooth="yes"/>
    </contour>
  </outline>
</glyph>
<glyph name="G" format="2">
  <advance width="1481.9466666666667"/>
  <unicode hex="0047"/>
  <anchor x="763.44" y="1517.8666666666666" name="center"/>
  <outline>
    <contour>
      <point x="1326.0533333333333" y="19.20000000000001" type="curve" smooth="yes"/>
      <point x="1326.0533333333333" y="526.24" type="line" smooth="yes"/>
      <point x="1326.0533333333333" y="551.7333333333332"/>
      <point x="1338.8533333333337" y="563.3466666666667"/>
      <point x="1364.9333333333334" y="571.4666666666666" type="curve" smooth="yes"/>
      <point x="1403.9466666666667" y="581.92" type="line" smooth="yes"/>
      <point x="1425.9733333333334" y="590.0666666666666"/>
      <point x="1435.9733333333334" y="599.1733333333333"/>
      <point x="1435.9733333333334" y="616.6399999999999" type="curve" smooth="yes"/>
      <point x="1435.9733333333334" y="635.6000000000003"/>
      <point x="1421.7066666666667" y="648.9066666666666"/>
      <point x="1390.826666666667" y="648.9066666666666" type="curve" smooth="yes"/>
      <point x="876.4533333333333" y="648.9066666666666" type="line" smooth="yes"/>
      <point x="845.8933333333333" y="648.9066666666666"/>
      <point x="831.6266666666667" y="636.0266666666666"/>
      <point x="831.6266666666667" y="616.2133333333333" type="curve" smooth="yes"/>
      <point x="831.6266666666667" y="597.7866666666665"/>
      <point x="845.04" y="586.8266666666667"/>
      <point x="869.7333333333333" y="580.64" type="curve" smooth="yes"/>
      <point x="942.8800000000001" y="568.4800000000001" type="line" smooth="yes"/>
      <point x="979.4133333333333" y="560.8266666666668"/>
      <point x="992.1066666666666" y="549.6"/>
      <point x="992.1066666666666" y="526.24" type="curve" smooth="yes"/>
      <point x="992.1066666666666" y="215.94666666666663" type="line" smooth="yes"/>
      <point x="992.1066666666666" y="141.22666666666663"/>
      <point x="920.9599999999999" y="87.89333333333332"/>
      <point x="833.72" y="87.89333333333332" type="curve" smooth="yes"/>
      <point x="613.7333333333332" y="87.89333333333332"/>
      <point x="436.74666666666667" y="319.9866666666666"/>
      <point x="436.74666666666667" y="741.8933333333333" type="curve" smooth="yes"/>
      <point x="436.74666666666667" y="1132.8666666666666"/>
      <point x="583.328813422276" y="1349.2266666666667"/>
      <point x="811.24" y="1349.2266666666667" type="curve" smooth="yes"/>
      <point x="980.8606958473624" y="1349.2266666666667"/>
      <point x="1142.3494198740834" y="1251.8664953805192"/>
      <point x="1265.0266666666666" y="960.5066666666667" type="curve" smooth="yes"/>
      <point x="1276.6266666666668" y="935.8133333333334"/>
      <point x="1296.5200000000002" y="927.3066666666667"/>
      <point x="1318.68" y="932.9333333333334" type="curve" smooth="yes"/>
      <point x="1339.6666666666667" y="938.1333333333333"/>
      <point x="1352.0666666666668" y="957.28"/>
      <point x="1345.56" y="981.2533333333333" type="curve" smooth="yes"/>
      <point x="1255.5466666666666" y="1383.7333333333333" type="line" smooth="yes"/>
      <point x="1247.3999999999996" y="1415.7866666666666"/>
      <point x="1236.2933333333335" y="1425.3600000000001"/>
      <point x="1219.36" y="1425.3600000000001" type="curve" smooth="yes"/>
      <point x="1174.6533333333332" y="1425.3600000000001"/>
      <point x="1120.4266666666667" y="1353.0933333333332"/>
      <point x="1072.4" y="1353.0933333333332" type="curve" smooth="yes"/>
      <point x="1036.1725166512601" y="1353.0933333333332"/>
      <point x="957.8291107856248" y="1429.3866666666668"/>
      <point x="775.9333333333334" y="1429.3866666666668" type="curve" smooth="yes"/>
      <point x="356.31535360227366" y="1429.3866666666668"/>
      <point x="59.35999999999999" y="1118.2133333333334"/>
      <point x="59.35999999999999" y="679.3066666666666" type="curve" smooth="yes"/>
      <point x="59.35999999999999" y="254.7733333333333"/>
      <point x="320.06666666666666" y="-29.599999999999998"/>
      <point x="726.4399999999998" y="-29.599999999999998" type="curve" smooth="yes"/>
      <point x="925.6266666666666" y="-29.599999999999998"/>
      <point x="1009.9466666666668" y="79.30666666666667"/>
      <point x="1056.2666666666667" y="79.30666666666667" type="curve" smooth="yes"/>
      <point x="1115.4533333333334" y="79.30666666666667"/>
      <point x="1225.5866666666666" y="-30.960000000000004"/>
      <point x="1283.9733333333334" y="-30.960000000000004" type="curve" smooth="yes"/>
      <point x="1312.3200000000002" y="-30.960000000000004"/>
      <point x="1326.0533333333333" y="-16.69333333333333"/>
    </contour>
  </outline>
</glyph>
<glyph name="H" format="2">
  <advance width="1663.5733333333333"/>
  <unicode hex="0048"/>
  <outline>
    <contour>
      <point x="390.4533333333334" y="699.4533333333333" type="line"/>
      <point x="390.4533333333334" y="621.2933333333335" type="line"/>
      <point x="1210.613333333333" y="621.2933333333335" type="line"/>
      <point x="1210.613333333333" y="699.4533333333333" type="line"/>
    </contour>
    <contour>
      <point x="593.1733333333333" y="130.66666666666669" type="curve" smooth="yes"/>
      <point x="593.1733333333333" y="1269.3333333333333" type="line" smooth="yes"/>
      <point x="593.1733333333333" y="1293.5466666666666"/>
      <point x="609.0666666666666" y="1307.8133333333335"/>
      <point x="639.9466666666666" y="1315.84" type="curve" smooth="yes"/>
      <point x="697.0400000000001" y="1328.2133333333336" type="line" smooth="yes"/>
      <point x="719.9200000000001" y="1335.2533333333333"/>
      <point x="728.8533333333332" y="1347.4933333333336"/>
      <point x="728.8533333333332" y="1365.92" type="curve" smooth="yes"/>
      <point x="728.8533333333332" y="1386.5866666666664"/>
      <point x="714.9066666666666" y="1400.0"/>
      <point x="684.4533333333334" y="1400.0" type="curve" smooth="yes"/>
      <point x="130.18666666666664" y="1400.0" type="line" smooth="yes"/>
      <point x="99.73333333333332" y="1400.0"/>
      <point x="85.78666666666666" y="1386.5866666666664"/>
      <point x="85.78666666666666" y="1365.92" type="curve" smooth="yes"/>
      <point x="85.78666666666666" y="1347.4933333333333"/>
      <point x="94.72000000000001" y="1335.2533333333333"/>
      <point x="117.59999999999998" y="1328.2133333333336" type="curve" smooth="yes"/>
      <point x="174.69333333333333" y="1315.84" type="line" smooth="yes"/>
      <point x="205.57333333333335" y="1307.8133333333335"/>
      <point x="221.46666666666667" y="1293.5466666666666"/>
      <point x="221.46666666666667" y="1269.3333333333333" type="curve" smooth="yes"/>
      <point x="221.46666666666667" y="130.66666666666669" type="line" smooth="yes"/>
      <point x="221.46666666666667" y="106.45333333333332"/>
      <point x="205.57333333333335" y="92.18666666666668"/>
      <point x="174.69333333333333" y="84.16" type="curve" smooth="yes"/>
      <point x="117.59999999999998" y="71.78666666666668" type="line" smooth="yes"/>
      <point x="94.72000000000001" y="64.74666666666666"/>
      <point x="85.78666666666666" y="52.506666666666646"/>
      <point x="85.78666666666666" y="34.08" type="curve" smooth="yes"/>
      <point x="85.78666666666666" y="13.413333333333332"/>
      <point x="99.73333333333332" y="0.0"/>
      <point x="130.18666666666664" y="0.0" type="curve" smooth="yes"/>
      <point x="684.4533333333334" y="0.0" type="line" smooth="yes"/>
      <point x="714.9066666666666" y="0.0"/>
      <point x="728.8533333333332" y="13.413333333333332"/>
      <point x="728.8533333333332" y="34.08" type="curve" smooth="yes"/>
      <point x="728.8533333333332" y="52.50666666666665"/>
      <point x="719.92" y="64.74666666666666"/>
      <point x="697.0400000000001" y="71.78666666666668" type="curve" smooth="yes"/>
      <point x="639.9466666666666" y="84.16" type="line" smooth="yes"/>
      <point x="609.0666666666665" y="92.18666666666668"/>
      <point x="593.1733333333333" y="106.45333333333332"/>
    </contour>
    <contour>
      <point x="1442.1066666666666" y="130.66666666666669" type="curve" smooth="yes"/>
      <point x="1442.1066666666666" y="1269.3333333333333" type="line" smooth="yes"/>
      <point x="1442.1066666666666" y="1293.5466666666666"/>
      <point x="1457.9999999999995" y="1307.8133333333335"/>
      <point x="1488.8799999999999" y="1315.84" type="curve" smooth="yes"/>
      <point x="1545.9733333333336" y="1328.2133333333336" type="line" smooth="yes"/>
      <point x="1568.8533333333332" y="1335.2533333333333"/>
      <point x="1577.7866666666666" y="1347.4933333333336"/>
      <point x="1577.7866666666666" y="1365.92" type="curve" smooth="yes"/>
      <point x="1577.7866666666666" y="1386.5866666666664"/>
      <point x="1563.84" y="1400.0"/>
      <point x="1533.3866666666665" y="1400.0" type="curve" smooth="yes"/>
      <point x="979.1199999999999" y="1400.0" type="line" smooth="yes"/>
      <point x="948.6666666666667" y="1400.0"/>
      <point x="934.7199999999999" y="1386.5866666666664"/>
      <point x="934.7199999999999" y="1365.92" type="curve" smooth="yes"/>
      <point x="934.7199999999999" y="1347.4933333333333"/>
      <point x="943.6533333333334" y="1335.2533333333333"/>
      <point x="966.5333333333334" y="1328.2133333333336" type="curve" smooth="yes"/>
      <point x="1023.6266666666664" y="1315.84" type="line" smooth="yes"/>
      <point x="1054.5066666666664" y="1307.8133333333335"/>
      <point x="1070.4" y="1293.5466666666666"/>
      <point x="1070.4" y="1269.3333333333333" type="curve" smooth="yes"/>
      <point x="1070.4" y="130.66666666666669" type="line" smooth="yes"/>
      <point x="1070.4" y="106.45333333333332"/>
      <point x="1054.5066666666667" y="92.18666666666668"/>
      <point x="1023.6266666666666" y="84.16" type="curve" smooth="yes"/>
      <point x="966.5333333333334" y="71.78666666666668" type="line" smooth="yes"/>
      <point x="943.6533333333334" y="64.74666666666666"/>
      <point x="934.7199999999999" y="52.506666666666646"/>
      <point x="934.7199999999999" y="34.08" type="curve" smooth="yes"/>
      <point x="934.7199999999999" y="13.413333333333332"/>
      <point x="948.6666666666667" y="0.0"/>
      <point x="979.1199999999999" y="0.0" type="curve" smooth="yes"/>
      <point x="1533.3866666666665" y="0.0" type="line" smooth="yes"/>
      <point x="1563.84" y="0.0"/>
      <point x="1577.7866666666666" y="13.413333333333332"/>
      <point x="1577.7866666666666" y="34.08" type="curve" smooth="yes"/>
      <point x="1577.7866666666666" y="52.50666666666665"/>
      <point x="1568.8533333333335" y="64.74666666666666"/>
      <point x="1545.9733333333336" y="71.78666666666668" type="curve" smooth="yes"/>
      <point x="1488.8799999999999" y="84.16" type="line" smooth="yes"/>
      <point x="1458.0" y="92.18666666666668"/>
      <point x="1442.1066666666666" y="106.45333333333332"/>
    </contour>
  </outline>
</glyph>
<glyph name="I" format="2">
  <advance width="807.1733333333333"/>
  <unicode hex="0049"/>
  <outline>
    <contour>
      <point x="589.4399999999998" y="130.66666666666669" type="curve" smooth="yes"/>
      <point x="589.4399999999998" y="1269.3333333333333" type="line" smooth="yes"/>
      <point x="589.4399999999998" y="1293.5466666666666"/>
      <point x="605.3333333333334" y="1307.8133333333335"/>
      <point x="636.2133333333334" y="1315.84" type="curve" smooth="yes"/>
      <point x="693.3066666666666" y="1328.2133333333336" type="line" smooth="yes"/>
      <point x="716.1866666666666" y="1335.2533333333333"/>
      <point x="725.1200000000001" y="1347.4933333333336"/>
      <point x="725.1200000000001" y="1365.92" type="curve" smooth="yes"/>
      <point x="725.1200000000001" y="1386.5866666666664"/>
      <point x="711.1733333333333" y="1400.0"/>
      <point x="680.72" y="1400.0" type="curve" smooth="yes"/>
      <point x="126.4533333333333" y="1400.0" type="line" smooth="yes"/>
      <point x="96.00000000000001" y="1400.0"/>
      <point x="82.05333333333334" y="1386.5866666666664"/>
      <point x="82.05333333333334" y="1365.92" type="curve" smooth="yes"/>
      <point x="82.05333333333334" y="1347.4933333333333"/>
      <point x="90.98666666666668" y="1335.2533333333333"/>
      <point x="113.86666666666666" y="1328.2133333333336" type="curve" smooth="yes"/>
      <point x="170.95999999999998" y="1315.84" type="line" smooth="yes"/>
      <point x="201.83999999999997" y="1307.8133333333335"/>
      <point x="217.73333333333335" y="1293.5466666666666"/>
      <point x="217.73333333333335" y="1269.3333333333333" type="curve" smooth="yes"/>
      <point x="217.73333333333335" y="130.66666666666669" type="line" smooth="yes"/>
      <point x="217.73333333333335" y="106.45333333333332"/>
      <point x="201.83999999999997" y="92.18666666666668"/>
      <point x="170.96" y="84.16" type="curve" smooth="yes"/>
      <point x="113.86666666666666" y="71.78666666666668" type="line" smooth="yes"/>
      <point x="90.98666666666666" y="64.74666666666666"/>
      <point x="82.05333333333334" y="52.506666666666646"/>
      <point x="82.05333333333334" y="34.08" type="curve" smooth="yes"/>
      <point x="82.05333333333334" y="13.413333333333332"/>
      <point x="96.00000000000001" y="0.0"/>
      <point x="126.4533333333333" y="0.0" type="curve" smooth="yes"/>
      <point x="680.72" y="0.0" type="line" smooth="yes"/>
      <point x="711.1733333333333" y="0.0"/>
      <point x="725.1200000000001" y="13.413333333333332"/>
      <point x="725.1200000000001" y="34.08" type="curve" smooth="yes"/>
      <point x="725.1200000000001" y="52.50666666666665"/>
      <point x="716.1866666666667" y="64.74666666666666"/>
      <point x="693.3066666666666" y="71.78666666666668" type="curve" smooth="yes"/>
      <point x="636.2133333333333" y="84.16" type="line" smooth="yes"/>
      <point x="605.3333333333333" y="92.18666666666668"/>
      <point x="589.4399999999998" y="106.45333333333332"/>
    </contour>
  </outline>
</glyph>
<glyph name="J" format="2">
  <advance width="987.12"/>
  <unicode hex="004A"/>
  <anchor x="579.3600000000001" y="1463.5733333333333" name="center"/>
  <outline>
    <contour>
      <point x="866.0933333333334" y="264.53333333333336" type="curve" smooth="yes"/>
      <point x="866.0933333333334" y="414.80000000000007"/>
      <point x="768.2133333333333" y="486.9733333333333"/>
      <point x="768.2133333333333" y="686.6133333333333" type="curve" smooth="yes"/>
      <point x="768.2133333333333" y="1267.3733333333334" type="line" smooth="yes"/>
      <point x="768.2133333333333" y="1292.8933333333332"/>
      <point x="783.2666666666668" y="1306.6"/>
      <point x="813.2133333333334" y="1315.3733333333334" type="curve" smooth="yes"/>
      <point x="863.8666666666667" y="1327.4666666666667" type="line" smooth="yes"/>
      <point x="892.0666666666666" y="1336.0933333333335"/>
      <point x="902.3999999999999" y="1347.12"/>
      <point x="902.3999999999999" y="1365.92" type="curve" smooth="yes"/>
      <point x="902.3999999999999" y="1387.053333333333"/>
      <point x="887.9866666666667" y="1400.0"/>
      <point x="856.1333333333334" y="1400.0" type="curve" smooth="yes"/>
      <point x="295.41333333333336" y="1400.0" type="line" smooth="yes"/>
      <point x="266.08" y="1400.0"/>
      <point x="249.8933333333334" y="1386.96"/>
      <point x="249.8933333333334" y="1365.1733333333334" type="curve" smooth="yes"/>
      <point x="249.8933333333334" y="1342.9066666666665"/>
      <point x="260.76" y="1332.04"/>
      <point x="287.3599999999999" y="1326.6666666666667" type="curve" smooth="yes"/>
      <point x="355.23999999999995" y="1314.9999999999998" type="line" smooth="yes"/>
      <point x="385.8133333333334" y="1309.4800000000002"/>
      <point x="397.2533333333334" y="1291.0800000000004"/>
      <point x="397.2533333333334" y="1261.3999999999999" type="curve" smooth="yes"/>
      <point x="397.2533333333334" y="672.1333333333333" type="line" smooth="yes"/>
      <point x="397.2533333333334" y="409.1567266140686"/>
      <point x="564.3333333333334" y="309.88179276877395"/>
      <point x="564.3333333333334" y="169.0666666666667" type="curve" smooth="yes"/>
      <point x="564.3333333333334" y="82.00541868140303"/>
      <point x="517.5691089108909" y="33.18666666666665"/>
      <point x="448.08000000000004" y="33.18666666666665" type="curve" smooth="yes"/>
      <point x="377.92" y="33.18666666666665"/>
      <point x="349.24" y="75.17509228291834"/>
      <point x="349.24" y="143.11999999999998" type="curve" smooth="yes"/>
      <point x="349.24" y="230.0666666666667" type="line" smooth="yes"/>
      <point x="349.24" y="339.4858914728682"/>
      <point x="286.3502508960574" y="403.61333333333334"/>
      <point x="202.92000000000002" y="403.61333333333334" type="curve" smooth="yes"/>
      <point x="100.33250112798916" y="403.61333333333334"/>
      <point x="39.69333333333333" y="333.06476190476195"/>
      <point x="39.69333333333333" y="228.09333333333336" type="curve" smooth="yes"/>
      <point x="39.69333333333333" y="72.31555555555555"/>
      <point x="182.4796836158192" y="-30.826666666666668"/>
      <point x="430.4933333333333" y="-30.826666666666668" type="curve" smooth="yes"/>
      <point x="698.8396610990075" y="-30.826666666666668"/>
      <point x="866.0933333333334" y="86.5500487804878"/>
    </contour>
  </outline>
</glyph>
<glyph name="K" format="2">
  <advance width="1563.1200000000001"/>
  <unicode hex="004B"/>
  <anchor x="831.7866666666666" y="1469.3333333333333" name="center"/>
  <outline>
    <contour>
      <point x="498.43999999999994" y="546.7733333333333" type="line"/>
      <point x="531.4666666666667" y="475.25333333333333" type="line"/>
      <point x="1141.32" y="1079.1733333333334" type="line" smooth="yes"/>
      <point x="1341.8933333333332" y="1272.6666666666665"/>
      <point x="1392.56" y="1305.7733333333335"/>
      <point x="1449.16" y="1327.1599999999999" type="curve" smooth="yes"/>
      <point x="1480.9066666666668" y="1339.48"/>
      <point x="1491.0133333333333" y="1347.3226666666667"/>
      <point x="1491.0133333333333" y="1366.293333333333" type="curve" smooth="yes"/>
      <point x="1491.0133333333333" y="1386.773333333333"/>
      <point x="1477.3333333333335" y="1400.0"/>
      <point x="1447.12" y="1400.0" type="curve" smooth="yes"/>
      <point x="1012.28" y="1400.0" type="line" smooth="yes"/>
      <point x="982.3866666666667" y="1400.0"/>
      <point x="968.4" y="1386.7866666666664"/>
      <point x="968.4" y="1366.0133333333333" type="curve" smooth="yes"/>
      <point x="968.4" y="1347.9733333333334"/>
      <point x="977.28" y="1337.5333333333333"/>
      <point x="998.5066666666667" y="1329.1733333333334" type="curve" smooth="yes"/>
      <point x="1036.6533333333332" y="1318.8933333333332" type="line" smooth="yes"/>
      <point x="1130.2133333333334" y="1287.4266666666667"/>
      <point x="1137.7733333333333" y="1193.946666666667"/>
      <point x="1030.8800000000003" y="1088.1066666666668" type="curve" smooth="yes"/>
    </contour>
    <contour>
      <point x="701.3466666666667" y="720.12" type="line"/>
      <point x="1012.1866666666665" y="151.55999999999997" type="line" smooth="yes"/>
      <point x="1038.2133333333334" y="103.56"/>
      <point x="1032.2666666666667" y="85.50666666666666"/>
      <point x="1010.4666666666667" y="80.10666666666665" type="curve" smooth="yes"/>
      <point x="960.5600000000001" y="70.26666666666667" type="line" smooth="yes"/>
      <point x="943.9200000000001" y="65.30666666666666"/>
      <point x="933.6533333333333" y="53.49333333333334"/>
      <point x="933.6533333333333" y="34.973333333333336" type="curve" smooth="yes"/>
      <point x="933.6533333333333" y="12.946666666666673"/>
      <point x="947.8133333333334" y="0.0"/>
      <point x="977.92" y="0.0" type="curve" smooth="yes"/>
      <point x="1513.413333333333" y="0.0" type="line" smooth="yes"/>
      <point x="1543.6933333333334" y="0.0"/>
      <point x="1558.16" y="13.040000000000004"/>
      <point x="1558.16" y="34.160000000000004" type="curve" smooth="yes"/>
      <point x="1558.16" y="51.29333333333334"/>
      <point x="1549.9333333333332" y="65.17333333333333"/>
      <point x="1525.52" y="74.50666666666666" type="curve" smooth="yes"/>
      <point x="1487.093333333333" y="81.06666666666666"/>
      <point x="1465.12" y="100.77333333333334"/>
      <point x="1433.96" y="156.72" type="curve" smooth="yes"/>
      <point x="979.0400000000001" y="968.3866666666667" type="line"/>
    </contour>
    <contour>
      <point x="589.6533333333332" y="130.66666666666663" type="curve" smooth="yes"/>
      <point x="589.6533333333332" y="1269.3333333333335" type="line" smooth="yes"/>
      <point x="589.6533333333332" y="1293.5466666666666"/>
      <point x="605.5466666666666" y="1307.8133333333335"/>
      <point x="636.4266666666666" y="1315.84" type="curve" smooth="yes"/>
      <point x="693.52" y="1328.2133333333336" type="line" smooth="yes"/>
      <point x="716.4000000000001" y="1335.2533333333333"/>
      <point x="725.3333333333333" y="1347.4933333333336"/>
      <point x="725.3333333333333" y="1365.92" type="curve" smooth="yes"/>
      <point x="725.3333333333333" y="1386.5866666666666"/>
      <point x="711.3866666666665" y="1400.0"/>
      <point x="680.9333333333334" y="1400.0" type="curve" smooth="yes"/>
      <point x="126.66666666666666" y="1400.0" type="line" smooth="yes"/>
      <point x="96.21333333333332" y="1400.0"/>
      <point x="82.26666666666668" y="1386.5866666666664"/>
      <point x="82.26666666666668" y="1365.92" type="curve" smooth="yes"/>
      <point x="82.26666666666668" y="1347.4933333333333"/>
      <point x="91.20000000000002" y="1335.2533333333336"/>
      <point x="114.07999999999998" y="1328.2133333333336" type="curve" smooth="yes"/>
      <point x="171.17333333333332" y="1315.84" type="line" smooth="yes"/>
      <point x="202.0533333333333" y="1307.8133333333333"/>
      <point x="217.9466666666667" y="1293.5466666666666"/>
      <point x="217.9466666666667" y="1269.3333333333335" type="curve" smooth="yes"/>
      <point x="217.9466666666667" y="130.66666666666663" type="line" smooth="yes"/>
      <point x="217.9466666666667" y="106.45333333333333"/>
      <point x="202.05333333333337" y="92.18666666666667"/>
      <point x="171.17333333333332" y="84.16000000000001" type="curve" smooth="yes"/>
      <point x="114.07999999999998" y="71.78666666666668" type="line" smooth="yes"/>
      <point x="91.20000000000002" y="64.74666666666664"/>
      <point x="82.26666666666668" y="52.506666666666646"/>
      <point x="82.26666666666668" y="34.08" type="curve" smooth="yes"/>
      <point x="82.26666666666668" y="13.413333333333332"/>
      <point x="96.21333333333332" y="0.0"/>
      <point x="126.66666666666666" y="0.0" type="curve" smooth="yes"/>
      <point x="672.4" y="0.0" type="line" smooth="yes"/>
      <point x="702.8533333333332" y="0.0"/>
      <point x="716.8000000000001" y="13.413333333333334"/>
      <point x="716.8000000000001" y="34.08" type="curve" smooth="yes"/>
      <point x="716.8000000000001" y="52.50666666666666"/>
      <point x="709.5733333333333" y="62.18666666666665"/>
      <point x="684.9866666666667" y="71.78666666666665" type="curve" smooth="yes"/>
      <point x="632.1599999999999" y="84.15999999999998" type="line" smooth="yes"/>
      <point x="602.9866666666666" y="93.03999999999999"/>
      <point x="589.6533333333332" y="106.45333333333332"/>
    </contour>
  </outline>
</glyph>
<glyph name="L" format="2">
  <advance width="1233.0133333333333"/>
  <unicode hex="004C"/>
  <anchor x="888.9466666666667" y="1390.4533333333334" name="right"/>
  <anchor x="436.36000000000007" y="1483.3333333333333" name="center"/>
  <outline>
    <contour>
      <point x="693.3066666666666" y="1328.2133333333336" type="line" smooth="yes"/>
      <point x="716.1866666666667" y="1335.2533333333333"/>
      <point x="725.12" y="1347.4933333333333"/>
      <point x="725.12" y="1365.92" type="curve" smooth="yes"/>
      <point x="725.12" y="1386.5866666666664"/>
      <point x="711.1733333333333" y="1400.0"/>
      <point x="680.72" y="1400.0" type="curve" smooth="yes"/>
      <point x="126.45333333333332" y="1400.0" type="line" smooth="yes"/>
      <point x="96.0" y="1400.0"/>
      <point x="82.05333333333334" y="1386.5866666666664"/>
      <point x="82.05333333333334" y="1365.92" type="curve" smooth="yes"/>
      <point x="82.05333333333334" y="1347.4933333333333"/>
      <point x="90.98666666666668" y="1335.2533333333336"/>
      <point x="113.86666666666666" y="1328.2133333333336" type="curve" smooth="yes"/>
      <point x="170.96" y="1315.84" type="line" smooth="yes"/>
      <point x="201.83999999999997" y="1307.8133333333333"/>
      <point x="217.73333333333335" y="1293.5466666666666"/>
      <point x="217.73333333333335" y="1269.3333333333335" type="curve" smooth="yes"/>
      <point x="217.73333333333335" y="130.66666666666663" type="line" smooth="yes"/>
      <point x="217.73333333333335" y="106.45333333333335"/>
      <point x="201.83999999999997" y="92.18666666666665"/>
      <point x="170.96" y="84.16000000000001" type="curve" smooth="yes"/>
      <point x="113.86666666666666" y="71.78666666666668" type="line" smooth="yes"/>
      <point x="90.98666666666668" y="64.74666666666664"/>
      <point x="82.05333333333334" y="52.506666666666646"/>
      <point x="82.05333333333334" y="34.08" type="curve" smooth="yes"/>
      <point x="82.05333333333334" y="13.413333333333332"/>
      <point x="96.0" y="0.0"/>
      <point x="126.45333333333332" y="0.0" type="curve" smooth="yes"/>
      <point x="921.8666666666666" y="0.0" type="line" smooth="yes"/>
      <point x="991.3599999999998" y="0.0"/>
      <point x="1029.3333333333333" y="-31.01333333333333"/>
      <point x="1059.7066666666667" y="-31.01333333333333" type="curve" smooth="yes"/>
      <point x="1089.9733333333334" y="-31.01333333333333"/>
      <point x="1103.4933333333333" y="-14.826666666666666"/>
      <point x="1114.7466666666667" y="28.186666666666664" type="curve" smooth="yes"/>
      <point x="1210.026666666667" y="439.6" type="line" smooth="yes"/>
      <point x="1217.7866666666666" y="468.64000000000004"/>
      <point x="1207.5466666666669" y="484.6666666666667"/>
      <point x="1184.1333333333334" y="490.96000000000004" type="curve" smooth="yes"/>
      <point x="1162.106666666667" y="497.2533333333334"/>
      <point x="1144.4266666666667" y="489.52"/>
      <point x="1132.7199999999998" y="464.50666666666666" type="curve" smooth="yes"/>
      <point x="1046.4533333333334" y="292.9066666666667" type="line" smooth="yes"/>
      <point x="957.9599999999999" y="117.09333333333333"/>
      <point x="882.32" y="75.57333333333332"/>
      <point x="778.9333333333333" y="75.57333333333332" type="curve" smooth="yes"/>
      <point x="657.0666666666667" y="75.57333333333332" type="line" smooth="yes"/>
      <point x="613.0133333333334" y="75.57333333333332"/>
      <point x="589.4399999999999" y="90.88"/>
      <point x="589.4399999999999" y="134.50666666666666" type="curve" smooth="yes"/>
      <point x="589.4399999999999" y="1269.3333333333335" type="line" smooth="yes"/>
      <point x="589.4399999999999" y="1293.5466666666666"/>
      <point x="605.3333333333334" y="1307.8133333333335"/>
      <point x="636.2133333333334" y="1315.84" type="curve" smooth="yes"/>
    </contour>
  </outline>
</glyph>
<glyph name="M" format="2">
  <advance width="1801.6799999999998"/>
  <unicode hex="004D"/>
  <anchor x="843.68" y="1481.7599999999998" name="center"/>
  <outline>
    <contour>
      <point x="953.2" y="506.3466666666666" type="line"/>
      <point x="631.92" y="1327.4933333333333" type="line" smooth="yes"/>
      <point x="609.76" y="1385.0933333333332"/>
      <point x="585.2" y="1400.0"/>
      <point x="540.5066666666668" y="1400.0" type="curve" smooth="yes"/>
      <point x="172.55999999999997" y="1400.0" type="line" smooth="yes"/>
      <point x="141.57333333333335" y="1400.0"/>
      <point x="126.21333333333332" y="1386.5866666666664"/>
      <point x="126.21333333333332" y="1365.3333333333333" type="curve" smooth="yes"/>
      <point x="126.21333333333332" y="1345.1466666666668"/>
      <point x="136.85333333333332" y="1334.0533333333335"/>
      <point x="160.82666666666668" y="1327.146666666667" type="curve" smooth="yes"/>
      <point x="213.44000000000003" y="1315.2533333333333" type="line" smooth="yes"/>
      <point x="254.45333333333332" y="1304.4"/>
      <point x="266.1866666666666" y="1264.24"/>
      <point x="259.3866666666667" y="1179.1466666666668" type="curve" smooth="yes"/>
      <point x="181.92000000000002" y="207.22666666666672" type="line" smooth="yes"/>
      <point x="176.56" y="141.8133333333333"/>
      <point x="134.0" y="103.2"/>
      <point x="79.41333333333334" y="84.0" type="curve" smooth="yes"/>
      <point x="45.013333333333335" y="72.96000000000002" type="line" smooth="yes"/>
      <point x="25.146666666666658" y="64.45333333333335"/>
      <point x="11.62666666666666" y="55.06666666666667"/>
      <point x="11.62666666666666" y="34.08" type="curve" smooth="yes"/>
      <point x="11.62666666666666" y="13.413333333333338"/>
      <point x="25.093333333333337" y="0.0"/>
      <point x="55.28" y="0.0" type="curve" smooth="yes"/>
      <point x="393.6266666666666" y="0.0" type="line" smooth="yes"/>
      <point x="423.38666666666666" y="0.0"/>
      <point x="437.0133333333334" y="14.26666666666667"/>
      <point x="437.0133333333334" y="35.36" type="curve" smooth="yes"/>
      <point x="437.0133333333334" y="51.279999999999994"/>
      <point x="428.53333333333336" y="61.06666666666665"/>
      <point x="413.28" y="67.83999999999999" type="curve" smooth="yes"/>
      <point x="369.11999999999995" y="81.62666666666667" type="line" smooth="yes"/>
      <point x="305.4933333333334" y="105.68000000000002"/>
      <point x="261.2" y="142.45333333333335"/>
      <point x="266.18666666666667" y="205.30666666666664" type="curve" smooth="yes"/>
      <point x="348.90666666666664" y="1249.92" type="line"/>
      <point x="283.4133333333333" y="1220.6666666666667" type="line"/>
      <point x="709.5199999999999" y="127.73333333333333" type="line" smooth="yes"/>
      <point x="733.7866666666667" y="66.13333333333333"/>
      <point x="753.3333333333334" y="59.120000000000005"/>
      <point x="783.3066666666667" y="59.120000000000005" type="curve" smooth="yes"/>
      <point x="810.5066666666667" y="59.120000000000005"/>
      <point x="830.0533333333333" y="68.39999999999999"/>
      <point x="850.2133333333334" y="124.74666666666666" type="curve" smooth="yes"/>
      <point x="1252.0266666666669" y="1249.5733333333333" type="line"/>
      <point x="1182.986666666667" y="1235.8400000000001" type="line"/>
      <point x="1263.4399999999998" y="148.48" type="line" smooth="yes"/>
      <point x="1266.1599999999996" y="108.87999999999998"/>
      <point x="1254.48" y="93.94666666666667"/>
      <point x="1216.1866666666667" y="84.26666666666668" type="curve" smooth="yes"/>
      <point x="1161.3333333333333" y="71.68000000000002" type="line" smooth="yes"/>
      <point x="1137.28" y="64.42666666666665"/>
      <point x="1129.2000000000003" y="51.86666666666666"/>
      <point x="1129.2000000000003" y="34.08" type="curve" smooth="yes"/>
      <point x="1129.2000000000003" y="13.413333333333338"/>
      <point x="1143.4666666666667" y="0.0"/>
      <point x="1174.3466666666666" y="0.0" type="curve" smooth="yes"/>
      <point x="1720.0533333333333" y="0.0" type="line" smooth="yes"/>
      <point x="1749.7066666666667" y="0.0"/>
      <point x="1764.4" y="15.120000000000006"/>
      <point x="1764.4" y="35.78666666666667" type="curve" smooth="yes"/>
      <point x="1764.4" y="53.99999999999998"/>
      <point x="1754.72" y="65.70666666666665"/>
      <point x="1734.773333333333" y="71.68000000000002" type="curve" smooth="yes"/>
      <point x="1679.9733333333336" y="84.26666666666668" type="line" smooth="yes"/>
      <point x="1645.7066666666667" y="92.88000000000001"/>
      <point x="1636.3466666666666" y="104.39999999999999"/>
      <point x="1633.4399999999998" y="147.70666666666662" type="curve" smooth="yes"/>
      <point x="1555.4666666666665" y="1243.2533333333336" type="line" smooth="yes"/>
      <point x="1552.533333333333" y="1285.8400000000001"/>
      <point x="1564.7199999999998" y="1305.44"/>
      <point x="1601.0933333333335" y="1315.44" type="curve" smooth="yes"/>
      <point x="1657.3333333333333" y="1328.3200000000002" type="line" smooth="yes"/>
      <point x="1678.2399999999998" y="1334.7199999999996"/>
      <point x="1688.6666666666667" y="1346.533333333333"/>
      <point x="1688.6666666666667" y="1365.92" type="curve" smooth="yes"/>
      <point x="1688.6666666666667" y="1386.5866666666666"/>
      <point x="1674.4" y="1400.0"/>
      <point x="1644.2133333333331" y="1400.0" type="curve" smooth="yes"/>
      <point x="1279.36" y="1400.0" type="line" smooth="yes"/>
      <point x="1230.4266666666667" y="1400.0"/>
      <point x="1206.6133333333332" y="1381.6800000000003"/>
      <point x="1184.8799999999999" y="1322.0266666666666" type="curve" smooth="yes"/>
      <point x="875.4399999999999" y="472.45333333333326" type="line"/>
    </contour>
  </outline>
</glyph>
<glyph name="N" format="2">
  <advance width="1458.6933333333334"/>
  <unicode hex="004E"/>
  <anchor x="777.88" y="1514.3733333333332" name="center"/>
  <outline>
    <contour>
      <point x="489.7066666666667" y="34.08" type="curve" smooth="yes"/>
      <point x="489.7066666666667" y="52.346666666666664"/>
      <point x="481.0399999999999" y="62.90666666666665"/>
      <point x="456.96000000000004" y="72.85333333333335" type="curve" smooth="yes"/>
      <point x="413.0133333333334" y="84.56000000000002" type="line" smooth="yes"/>
      <point x="344.3466666666667" y="109.78666666666666"/>
      <point x="308.9066666666667" y="146.79999999999998"/>
      <point x="308.9066666666667" y="225.65333333333336" type="curve" smooth="yes"/>
      <point x="308.9066666666667" y="1205.1999999999996" type="line"/>
      <point x="221.81333333333336" y="1163.4933333333336" type="line"/>
      <point x="915.6533333333334" y="96.02666666666667" type="line" smooth="yes"/>
      <point x="940.4799999999999" y="60.72000000000001"/>
      <point x="944.4533333333333" y="47.44"/>
      <point x="944.4533333333333" y="31.62666666666667" type="curve" smooth="yes"/>
      <point x="944.4533333333333" y="11.360000000000001"/>
      <point x="956.4533333333333" y="0.0"/>
      <point x="981.6800000000001" y="0.0" type="curve" smooth="yes"/>
      <point x="1325.52" y="0.0" type="line" smooth="yes"/>
      <point x="1351.253333333333" y="0.0"/>
      <point x="1366.5866666666668" y="13.546666666666667"/>
      <point x="1366.5866666666668" y="33.253333333333345" type="curve" smooth="yes"/>
      <point x="1366.5866666666668" y="46.98666666666667"/>
      <point x="1363.6266666666668" y="59.84"/>
      <point x="1340.2933333333335" y="94.02666666666667" type="curve" smooth="yes"/>
      <point x="1272.9866666666667" y="195.68" type="line" smooth="yes"/>
      <point x="1258.36" y="216.61333333333332"/>
      <point x="1252.0266666666666" y="240.74666666666664"/>
      <point x="1252.0266666666666" y="274.9066666666666" type="curve" smooth="yes"/>
      <point x="1252.0266666666666" y="1173.5466666666666" type="line" smooth="yes"/>
      <point x="1252.0266666666666" y="1255.7066666666665"/>
      <point x="1289.6533333333334" y="1292.3466666666666"/>
      <point x="1356.1333333333332" y="1315.44" type="curve" smooth="yes"/>
      <point x="1393.04" y="1327.1466666666665" type="line" smooth="yes"/>
      <point x="1415.9999999999998" y="1336.72"/>
      <point x="1425.7866666666669" y="1347.2799999999997"/>
      <point x="1425.7866666666669" y="1365.92" type="curve" smooth="yes"/>
      <point x="1425.7866666666669" y="1386.5866666666666"/>
      <point x="1411.8933333333334" y="1400.0"/>
      <point x="1381.7066666666665" y="1400.0" type="curve" smooth="yes"/>
      <point x="1031.3066666666668" y="1400.0" type="line" smooth="yes"/>
      <point x="1001.5466666666666" y="1400.0"/>
      <point x="987.6533333333333" y="1386.5866666666666"/>
      <point x="987.6533333333333" y="1365.92" type="curve" smooth="yes"/>
      <point x="987.6533333333333" y="1348.0799999999997"/>
      <point x="996.32" y="1337.5199999999998"/>
      <point x="1020.3999999999999" y="1327.1466666666665" type="curve" smooth="yes"/>
      <point x="1063.9733333333336" y="1315.44" type="line" smooth="yes"/>
      <point x="1133.5733333333333" y="1290.64"/>
      <point x="1168.4533333333334" y="1253.6266666666666"/>
      <point x="1168.4533333333334" y="1173.5466666666666" type="curve" smooth="yes"/>
      <point x="1168.4533333333334" y="198.77333333333337" type="line"/>
      <point x="1205.28" y="295.6000000000001" type="line"/>
      <point x="519.0933333333332" y="1361.2" type="line" smooth="yes"/>
      <point x="498.7733333333333" y="1390.5333333333335"/>
      <point x="482.1066666666666" y="1400.0"/>
      <point x="454.08" y="1400.0" type="curve" smooth="yes"/>
      <point x="123.36000000000003" y="1400.0" type="line" smooth="yes"/>
      <point x="99.41333333333334" y="1400.0"/>
      <point x="85.03999999999998" y="1388.8"/>
      <point x="85.03999999999998" y="1369.84" type="curve" smooth="yes"/>
      <point x="85.03999999999998" y="1356.32"/>
      <point x="93.29333333333332" y="1342.8400000000004"/>
      <point x="110.16000000000001" y="1318.7466666666667" type="curve" smooth="yes"/>
      <point x="197.19999999999996" y="1187.04" type="line" smooth="yes"/>
      <point x="222.0266666666667" y="1153.28"/>
      <point x="225.33333333333331" y="1142.2133333333334"/>
      <point x="225.33333333333331" y="1109.44" type="curve" smooth="yes"/>
      <point x="225.33333333333331" y="226.45333333333335" type="line" smooth="yes"/>
      <point x="225.33333333333331" y="144.71999999999997"/>
      <point x="187.70666666666668" y="108.26666666666668"/>
      <point x="121.22666666666667" y="84.56000000000002" type="curve" smooth="yes"/>
      <point x="84.31999999999998" y="72.85333333333335" type="line" smooth="yes"/>
      <point x="61.36" y="63.70666666666665"/>
      <point x="51.57333333333334" y="53.14666666666666"/>
      <point x="51.57333333333334" y="34.08" type="curve" smooth="yes"/>
      <point x="51.57333333333334" y="13.840000000000002"/>
      <point x="65.46666666666667" y="0.42666666666666664"/>
      <point x="95.65333333333336" y="0.0" type="curve" smooth="yes"/>
      <point x="446.05333333333334" y="0.0" type="line" smooth="yes"/>
      <point x="475.8133333333333" y="0.42666666666666664"/>
      <point x="489.7066666666667" y="13.840000000000002"/>
    </contour>
  </outline>
</glyph>
<glyph name="O" format="2">
  <advance width="1545.7066666666667"/>
  <unicode hex="004F"/>
  <outline>
    <contour>
      <point x="764.4" y="1429.4933333333336" type="curve" smooth="yes"/>
      <point x="342.0599963582068" y="1429.4933333333336"/>
      <point x="60.160000000000004" y="1124.2266666666665"/>
      <point x="60.160000000000004" y="707.6533333333334" type="curve" smooth="yes"/>
      <point x="60.160000000000004" y="265.1866666666667"/>
      <point x="341.1548049382715" y="-30.026666666666664"/>
      <point x="780.1600000000001" y="-30.026666666666664" type="curve" smooth="yes"/>
      <point x="1206.4091361639826" y="-30.026666666666664"/>
      <point x="1485.3333333333335" y="274.58666666666664"/>
      <point x="1485.3333333333335" y="698.64" type="curve" smooth="yes"/>
      <point x="1485.3333333333335" y="1131.9466666666667"/>
      <point x="1204.6360490454756" y="1429.4933333333336"/>
    </contour>
    <contour>
      <point x="1106.3733333333332" y="450.4533333333333" type="curve" smooth="yes"/>
      <point x="1106.3733333333332" y="184.01397642015004"/>
      <point x="1016.9333333333334" y="48.26666666666664"/>
      <point x="861.3333333333334" y="48.26666666666664" type="curve" smooth="yes"/>
      <point x="647.12" y="48.26666666666664"/>
      <point x="440.8533333333333" y="486.7398418079095"/>
      <point x="440.8533333333333" y="956.4799999999998" type="curve" smooth="yes"/>
      <point x="440.8533333333333" y="1210.7460235798499"/>
      <point x="533.5733333333334" y="1350.773333333333"/>
      <point x="685.3600000000001" y="1350.773333333333" type="curve" smooth="yes"/>
      <point x="899.2266666666666" y="1350.773333333333"/>
      <point x="1106.3733333333332" y="914.5709464082097"/>
    </contour>
  </outline>
</glyph>
<glyph name="P" format="2">
  <advance width="1393.8133333333328"/>
  <unicode hex="0050"/>
  <outline>
    <contour>
      <point x="1350.1333333333334" y="872.7199999999999" type="curve" smooth="yes"/>
      <point x="1350.1333333333334" y="1183.5784423676012"/>
      <point x="1084.7066666666667" y="1400.0"/>
      <point x="651.6800000000001" y="1400.0" type="curve" smooth="yes"/>
      <point x="126.38666666666663" y="1400.0" type="line" smooth="yes"/>
      <point x="95.93333333333332" y="1400.0"/>
      <point x="82.26666666666668" y="1387.0533333333328"/>
      <point x="82.26666666666668" y="1365.5466666666666" type="curve" smooth="yes"/>
      <point x="82.26666666666668" y="1347.8666666666666"/>
      <point x="90.08" y="1335.6266666666668"/>
      <point x="112.11999999999998" y="1328.5866666666668" type="curve" smooth="yes"/>
      <point x="173.50666666666663" y="1315.3733333333332" type="line" smooth="yes"/>
      <point x="202.98666666666665" y="1307.3466666666666"/>
      <point x="217.9466666666667" y="1291.4"/>
      <point x="217.9466666666667" y="1266.8133333333333" type="curve" smooth="yes"/>
      <point x="217.9466666666667" y="130.5733333333333" type="line" smooth="yes"/>
      <point x="217.9466666666667" y="107.48"/>
      <point x="202.98666666666665" y="92.65333333333334"/>
      <point x="172.8533333333333" y="84.62666666666668" type="curve" smooth="yes"/>
      <point x="113.33333333333333" y="71.78666666666668" type="line" smooth="yes"/>
      <point x="90.82666666666667" y="64.6533333333333"/>
      <point x="82.26666666666668" y="52.506666666666646"/>
      <point x="82.26666666666668" y="34.45333333333333" type="curve" smooth="yes"/>
      <point x="82.26666666666668" y="13.319999999999997"/>
      <point x="96.30666666666667" y="0.0"/>
      <point x="126.75999999999998" y="0.0" type="curve" smooth="yes"/>
      <point x="698.9066666666666" y="0.0" type="line" smooth="yes"/>
      <point x="729.3599999999999" y="0.0"/>
      <point x="742.9333333333334" y="13.319999999999997"/>
      <point x="742.9333333333334" y="34.08" type="curve" smooth="yes"/>
      <point x="742.9333333333334" y="55.97333333333333"/>
      <point x="732.72" y="67.31999999999998"/>
      <point x="709.1999999999999" y="71.84" type="curve" smooth="yes"/>
      <point x="635.7733333333334" y="84.25333333333333" type="line" smooth="yes"/>
      <point x="603.7066666666667" y="90.41333333333336"/>
      <point x="589.6533333333332" y="106.3066666666667"/>
      <point x="589.6533333333332" y="131.59999999999994" type="curve" smooth="yes"/>
      <point x="589.6533333333332" y="1325.1466666666665" type="line"/>
      <point x="645.7066666666667" y="1325.1466666666665" type="line" smooth="yes"/>
      <point x="842.6933333333334" y="1325.1466666666665"/>
      <point x="988.48" y="1161.7971303587049"/>
      <point x="988.48" y="880.9333333333333" type="curve" smooth="yes"/>
      <point x="988.48" y="643.0043097643096"/>
      <point x="861.5200000000001" y="520.9333333333333"/>
      <point x="705.9599999999999" y="520.9333333333333" type="curve" smooth="yes"/>
      <point x="618.2266666666667" y="520.9333333333333"/>
      <point x="547.0533333333334" y="543.9599999999999"/>
      <point x="464.53333333333325" y="601.8666666666668" type="curve"/>
      <point x="454.98666666666657" y="536.3733333333333" type="line"/>
      <point x="545.7333333333333" y="473.62666666666667"/>
      <point x="656.0666666666666" y="438.88"/>
      <point x="813.7333333333333" y="438.88" type="curve" smooth="yes"/>
      <point x="1137.9600000000003" y="438.88"/>
      <point x="1350.1333333333334" y="607.0870019622018"/>
    </contour>
  </outline>
</glyph>
<glyph name="Q" format="2">
  <advance width="1559.8933333333334"/>
  <unicode hex="0051"/>
  <outline>
    <contour>
      <point x="765.7866666666666" y="1429.4933333333336" type="curve" smooth="yes"/>
      <point x="339.5733333333334" y="1429.4933333333336"/>
      <point x="55.57333333333332" y="1124.2266666666667"/>
      <point x="55.57333333333332" y="707.6533333333334" type="curve" smooth="yes"/>
      <point x="55.57333333333332" y="262.20000000000005"/>
      <point x="335.12" y="-30.026666666666664"/>
      <point x="781.9200000000001" y="-30.026666666666664" type="curve" smooth="yes"/>
      <point x="1211.5733333333335" y="-30.026666666666664"/>
      <point x="1492.6933333333334" y="274.58666666666664"/>
      <point x="1492.6933333333334" y="698.64" type="curve" smooth="yes"/>
      <point x="1492.6933333333334" y="1131.9466666666665"/>
      <point x="1205.1466666666668" y="1429.4933333333336"/>
    </contour>
    <contour>
      <point x="1110.8533333333335" y="450.4533333333333" type="curve" smooth="yes"/>
      <point x="1110.8533333333335" y="181.89333333333335"/>
      <point x="1021.0400000000002" y="44.90666666666664"/>
      <point x="864.6933333333334" y="44.90666666666664" type="curve" smooth="yes"/>
      <point x="648.6133333333332" y="44.90666666666664"/>
      <point x="440.8533333333333" y="485.4533333333333"/>
      <point x="440.8533333333333" y="956.4799999999999" type="curve" smooth="yes"/>
      <point x="440.8533333333333" y="1212.8666666666663"/>
      <point x="533.9466666666667" y="1354.1333333333332"/>
      <point x="686.8533333333335" y="1354.1333333333332" type="curve" smooth="yes"/>
      <point x="902.2133333333333" y="1354.1333333333332"/>
      <point x="1110.8533333333335" y="916.2666666666667"/>
    </contour>
    <contour>
      <point x="812.6933333333334" y="360.70666666666665" type="curve" smooth="yes"/>
      <point x="930.7017071356559" y="-118.6533352560223"/>
      <point x="1101.0904276007689" y="-293.46666666666664"/>
      <point x="1328.6666666666665" y="-293.46666666666664" type="curve" smooth="yes"/>
      <point x="1392.6933333333332" y="-293.46666666666664"/>
      <point x="1426.6666666666667" y="-275.17333333333335"/>
      <point x="1445.1999999999998" y="-237.50666666666666" type="curve" smooth="yes"/>
      <point x="1520.2533333333333" y="-97.20000000000003" type="line" smooth="yes"/>
      <point x="1530.5441129075443" y="-76.12564538562069"/>
      <point x="1533.6038182376299" y="-61.99456280245516"/>
      <point x="1530.9066666666668" y="-51.29333333333333" type="curve" smooth="yes"/>
      <point x="1528.1066666666666" y="-36.58666666666667"/>
      <point x="1518.1200000000001" y="-30.653333333333336"/>
      <point x="1502.88" y="-35.92" type="curve" smooth="yes"/>
      <point x="1467.28" y="-53.066666666666656"/>
      <point x="1442.1866666666667" y="-84.2"/>
      <point x="1334.0266666666666" y="-84.2" type="curve" smooth="yes"/>
      <point x="1113.9333333333334" y="-84.2"/>
      <point x="986.1356791736022" y="2.0644282054340586"/>
      <point x="882.2533333333333" y="380.0133333333334" type="curve" smooth="yes"/>
      <point x="874.3469180367387" y="407.1111956157699"/>
      <point x="859.28" y="423.85333333333335"/>
      <point x="834.6133333333335" y="416.9866666666666" type="curve" smooth="yes"/>
      <point x="810.5750724637682" y="410.5466666666667"/>
      <point x="805.3480956099879" y="388.2473317713843"/>
    </contour>
  </outline>
</glyph>
<glyph name="R" format="2">
  <advance width="1497.5066666666667"/>
  <unicode hex="0052"/>
  <anchor x="740.56" y="1476.0" name="center"/>
  <outline>
    <contour>
      <point x="1382.6399999999999" y="909.52" type="curve" smooth="yes"/>
      <point x="1382.6399999999999" y="1203.6"/>
      <point x="1117.8133333333333" y="1400.0"/>
      <point x="660.9466666666666" y="1400.0" type="curve" smooth="yes"/>
      <point x="126.45333333333332" y="1400.0" type="line" smooth="yes"/>
      <point x="96.0" y="1400.0"/>
      <point x="82.05333333333334" y="1386.5866666666664"/>
      <point x="82.05333333333334" y="1365.92" type="curve" smooth="yes"/>
      <point x="82.05333333333334" y="1347.4933333333333"/>
      <point x="90.98666666666668" y="1335.2533333333333"/>
      <point x="113.86666666666666" y="1328.2133333333336" type="curve" smooth="yes"/>
      <point x="170.96" y="1315.84" type="line" smooth="yes"/>
      <point x="201.84" y="1307.8133333333335"/>
      <point x="217.73333333333335" y="1293.5466666666666"/>
      <point x="217.73333333333335" y="1269.3333333333335" type="curve" smooth="yes"/>
      <point x="217.73333333333335" y="138.87999999999994" type="line" smooth="yes"/>
      <point x="217.73333333333335" y="108.69333333333334"/>
      <point x="202.58666666666667" y="92.55999999999999"/>
      <point x="170.96" y="84.16000000000001" type="curve" smooth="yes"/>
      <point x="113.86666666666666" y="71.78666666666668" type="line" smooth="yes"/>
      <point x="90.98666666666668" y="64.74666666666666"/>
      <point x="82.05333333333334" y="52.506666666666646"/>
      <point x="82.05333333333334" y="34.08" type="curve" smooth="yes"/>
      <point x="82.05333333333334" y="13.413333333333332"/>
      <point x="96.0" y="0.0"/>
      <point x="126.45333333333332" y="0.0" type="curve" smooth="yes"/>
      <point x="676.9866666666667" y="0.0" type="line" smooth="yes"/>
      <point x="707.4399999999999" y="0.0"/>
      <point x="721.3866666666668" y="13.413333333333334"/>
      <point x="721.3866666666668" y="34.08" type="curve" smooth="yes"/>
      <point x="721.3866666666668" y="52.50666666666667"/>
      <point x="714.16" y="62.29333333333333"/>
      <point x="689.5733333333333" y="71.78666666666666" type="curve" smooth="yes"/>
      <point x="631.9466666666666" y="84.15999999999998" type="line" smooth="yes"/>
      <point x="602.0266666666666" y="93.30666666666669"/>
      <point x="589.4399999999999" y="108.69333333333331"/>
      <point x="589.4399999999999" y="138.87999999999994" type="curve" smooth="yes"/>
      <point x="589.4399999999999" y="1329.9733333333334" type="line"/>
      <point x="653.5866666666666" y="1329.9733333333334" type="line" smooth="yes"/>
      <point x="854.4348717948719" y="1329.9733333333334"/>
      <point x="1004.6666666666666" y="1147.293333333333"/>
      <point x="1004.6666666666666" y="895.8933333333334" type="curve" smooth="yes"/>
      <point x="1004.6666666666666" y="679.4386570743404"/>
      <point x="901.8399999999999" y="580.1333333333333"/>
      <point x="735.6933333333334" y="580.1333333333333" type="curve" smooth="yes"/>
      <point x="643.6533333333334" y="580.1333333333333"/>
      <point x="575.4933333333333" y="599.6799999999998"/>
      <point x="516.6933333333333" y="645.3066666666666" type="curve"/>
      <point x="509.8399999999999" y="578.64" type="line"/>
      <point x="580.3733333333332" y="529.6800000000002"/>
      <point x="669.7333333333333" y="500.10666666666674"/>
      <point x="815.48" y="500.10666666666674" type="curve" smooth="yes"/>
      <point x="892.3999999999999" y="500.10666666666674"/>
      <point x="947.109517113752" y="516.2726266260034"/>
      <point x="1018.1199999999998" y="528.9733333333334" type="curve" smooth="yes"/>
      <point x="1244.1487876535452" y="569.5609956305143"/>
      <point x="1382.6399999999999" y="716.0133333333334"/>
    </contour>
    <contour>
      <point x="754.9733333333332" y="535.52" type="line"/>
      <point x="974.0933333333332" y="138.21333333333334" type="line" smooth="yes"/>
      <point x="995.3733333333333" y="99.6"/>
      <point x="987.3200000000002" y="84.96000000000001"/>
      <point x="957.2933333333333" y="71.06666666666668" type="curve" smooth="yes"/>
      <point x="930.8133333333333" y="62.29333333333334" type="line" smooth="yes"/>
      <point x="915.24" y="53.81333333333334"/>
      <point x="908.6000000000001" y="46.533333333333324"/>
      <point x="908.6000000000001" y="34.08" type="curve" smooth="yes"/>
      <point x="908.6000000000001" y="12.559999999999999"/>
      <point x="923.2933333333334" y="0.0"/>
      <point x="951.6133333333332" y="0.0" type="curve" smooth="yes"/>
      <point x="1438.8266666666664" y="0.0" type="line" smooth="yes"/>
      <point x="1469.3866666666663" y="0.0"/>
      <point x="1483.6533333333332" y="13.413333333333338"/>
      <point x="1483.6533333333332" y="34.08" type="curve" smooth="yes"/>
      <point x="1483.6533333333332" y="52.506666666666646"/>
      <point x="1474.72" y="62.186666666666675"/>
      <point x="1449.8133333333333" y="71.36000000000003" type="curve" smooth="yes"/>
      <point x="1414.0800000000002" y="82.82666666666668"/>
      <point x="1393.2666666666669" y="98.45333333333335"/>
      <point x="1369.9066666666665" y="137.38666666666668" type="curve" smooth="yes"/>
      <point x="1108.9866666666665" y="575.4133333333334" type="line"/>
    </contour>
  </outline>
</glyph>
<glyph name="S" format="2">
  <advance width="1212.1066666666666"/>
  <unicode hex="0053"/>
  <anchor x="608.7866666666666" y="1510.7333333333333" name="center"/>
  <outline>
    <contour>
      <point x="643.9200000000001" y="-25.84" type="curve" smooth="yes"/>
      <point x="956.8" y="-25.84"/>
      <point x="1140.9333333333334" y="157.86666666666665"/>
      <point x="1141.1466666666668" y="388.4266666666667" type="curve" smooth="yes"/>
      <point x="1141.2533333358651" y="599.2800004455743"/>
      <point x="1030.1935289798246" y="733.0248781540065"/>
      <point x="708.1066666666667" y="846.7733333333334" type="curve" smooth="yes"/>
      <point x="459.2067704513458" y="935.5922106055176"/>
      <point x="400.34666666666664" y="1019.2757381704915"/>
      <point x="400.34666666666664" y="1140.2933333333333" type="curve" smooth="yes"/>
      <point x="400.34666666666664" y="1264.9599999999998"/>
      <point x="480.56" y="1346.4533333333334"/>
      <point x="602.6666666666666" y="1346.4533333333334" type="curve" smooth="yes"/>
      <point x="750.0799999999999" y="1346.4533333333334"/>
      <point x="899.5200000000001" y="1262.48"/>
      <point x="1065.1999999999998" y="961.6266666666667" type="curve" smooth="yes"/>
      <point x="1077.1200000000001" y="938.96"/>
      <point x="1095.84" y="928.64"/>
      <point x="1118.1066666666666" y="936.4" type="curve" smooth="yes"/>
      <point x="1139.84" y="944.16"/>
      <point x="1149.0933333333332" y="965.0133333333333"/>
      <point x="1141.8933333333332" y="992.1866666666666" type="curve" smooth="yes"/>
      <point x="1042.08" y="1377.1200000000001" type="line" smooth="yes"/>
      <point x="1031.28" y="1416.1866666666667"/>
      <point x="1014.9333333333333" y="1428.4533333333334"/>
      <point x="992.6666666666667" y="1428.4533333333334" type="curve" smooth="yes"/>
      <point x="946.4133333333333" y="1428.4533333333334"/>
      <point x="894.2266666666667" y="1354.6133333333335"/>
      <point x="854.1333333333333" y="1354.6133333333335" type="curve" smooth="yes"/>
      <point x="809.3333333333333" y="1354.6133333333335"/>
      <point x="732.1466666666668" y="1423.3066666666666"/>
      <point x="568.5333333333333" y="1423.3066666666666" type="curve" smooth="yes"/>
      <point x="271.62666666666667" y="1423.3066666666668"/>
      <point x="73.54666666666665" y="1250.5866666666664"/>
      <point x="73.54666666666665" y="1002.24" type="curve" smooth="yes"/>
      <point x="73.54666666666665" y="773.3239389209365"/>
      <point x="190.73268740459918" y="630.6076466644381"/>
      <point x="506.50666666666666" y="527.6800000000001" type="curve" smooth="yes"/>
      <point x="764.9988768077992" y="444.53218801736546"/>
      <point x="827.7866667040544" y="365.5866692838142"/>
      <point x="827.5733333333333" y="244.08" type="curve" smooth="yes"/>
      <point x="827.3599999999999" y="118.9066666666667"/>
      <point x="745.12" y="51.12"/>
      <point x="616.1866666666666" y="51.12" type="curve" smooth="yes"/>
      <point x="482.2399999999999" y="51.12"/>
      <point x="348.4112297496242" y="129.25531923159508"/>
      <point x="194.45333333333332" y="427.14666666666665" type="curve" smooth="yes"/>
      <point x="180.93333333333334" y="452.26666666666665"/>
      <point x="163.17333333333335" y="461.84"/>
      <point x="140.90666666666667" y="453.6533333333333" type="curve" smooth="yes"/>
      <point x="119.81333333333333" y="445.8933333333334"/>
      <point x="111.04" y="430.37333333333333"/>
      <point x="114.88000000000001" y="407.78666666666663" type="curve" smooth="yes"/>
      <point x="181.30666666666667" y="14.26666666666667" type="line" smooth="yes"/>
      <point x="186.50666666666666" y="-16.826666666666668"/>
      <point x="205.25333333333333" y="-30.880000000000003"/>
      <point x="227.81333333333336" y="-30.880000000000003" type="curve" smooth="yes"/>
      <point x="270.49333333333334" y="-30.880000000000003"/>
      <point x="324.96000000000004" y="58.18666666666665"/>
      <point x="366.6666666666667" y="58.18666666666665" type="curve" smooth="yes"/>
      <point x="400.3168768768769" y="58.18666666666665"/>
      <point x="481.13217217217215" y="-25.84"/>
    </contour>
  </outline>
</glyph>
<glyph name="T" format="2">
  <advance width="1376.0"/>
  <unicode hex="0054"/>
  <outline>
    <contour>
      <point x="289.6133333333334" y="1400.0" type="line" smooth="yes"/>
      <point x="224.0133333333333" y="1400.0"/>
      <point x="187.77333333333328" y="1429.6266666666666"/>
      <point x="158.33333333333331" y="1429.6266666666666" type="curve" smooth="yes"/>
      <point x="127.32" y="1429.6266666666666"/>
      <point x="113.32" y="1415.5733333333335"/>
      <point x="102.86666666666666" y="1372.6666666666667" type="curve" smooth="yes"/>
      <point x="38.866666666666674" y="1004.1333333333333" type="line" smooth="yes"/>
      <point x="33.24" y="974.56"/>
      <point x="43.053333333333335" y="956.4000000000001"/>
      <point x="65.93333333333332" y="951.9200000000001" type="curve" smooth="yes"/>
      <point x="87.53333333333335" y="947.0133333333334"/>
      <point x="104.89333333333333" y="954.1066666666667"/>
      <point x="117.02666666666667" y="978.9066666666666" type="curve" smooth="yes"/>
      <point x="249.56967725764147" y="1255.3517142742542"/>
      <point x="326.6608754208754" y="1321.3066666666666"/>
      <point x="419.0" y="1321.3066666666666" type="curve" smooth="yes"/>
      <point x="502.1466666666667" y="1321.3066666666666" type="line"/>
      <point x="502.1466666666667" y="130.66666666666663" type="line" smooth="yes"/>
      <point x="502.1466666666667" y="106.45333333333335"/>
      <point x="486.2533333333333" y="92.18666666666665"/>
      <point x="455.3733333333333" y="84.16000000000001" type="curve" smooth="yes"/>
      <point x="398.28000000000003" y="71.78666666666668" type="line" smooth="yes"/>
      <point x="375.4" y="64.74666666666664"/>
      <point x="366.4666666666667" y="52.506666666666646"/>
      <point x="366.4666666666667" y="34.08" type="curve" smooth="yes"/>
      <point x="366.4666666666667" y="13.413333333333332"/>
      <point x="380.4133333333333" y="0.0"/>
      <point x="410.8666666666666" y="0.0" type="curve" smooth="yes"/>
      <point x="965.1333333333333" y="0.0" type="line" smooth="yes"/>
      <point x="995.5866666666668" y="0.0"/>
      <point x="1009.5333333333333" y="13.413333333333334"/>
      <point x="1009.5333333333333" y="34.08" type="curve" smooth="yes"/>
      <point x="1009.5333333333333" y="52.50666666666665"/>
      <point x="1000.5999999999999" y="64.74666666666664"/>
      <point x="977.7200000000001" y="71.78666666666668" type="curve" smooth="yes"/>
      <point x="920.6266666666666" y="84.16000000000001" type="line" smooth="yes"/>
      <point x="889.7466666666668" y="92.18666666666668"/>
      <point x="873.8533333333334" y="106.45333333333335"/>
      <point x="873.8533333333334" y="130.66666666666663" type="curve" smooth="yes"/>
      <point x="873.8533333333334" y="1321.3066666666666" type="line"/>
      <point x="956.9999999999999" y="1321.3066666666666" type="line" smooth="yes"/>
      <point x="1052.0448484848484" y="1321.3066666666666"/>
      <point x="1128.7910382866544" y="1263.4473769741926"/>
      <point x="1258.9733333333334" y="978.9066666666666" type="curve" smooth="yes"/>
      <point x="1271.1066666666668" y="954.1066666666667"/>
      <point x="1288.4666666666667" y="947.0133333333334"/>
      <point x="1310.0666666666666" y="951.9200000000001" type="curve" smooth="yes"/>
      <point x="1332.9466666666667" y="956.4000000000001"/>
      <point x="1342.7600000000004" y="974.56"/>
      <point x="1337.1333333333334" y="1004.1333333333333" type="curve" smooth="yes"/>
      <point x="1273.1333333333332" y="1372.6666666666667" type="line" smooth="yes"/>
      <point x="1262.68" y="1415.5733333333335"/>
      <point x="1248.6799999999996" y="1429.6266666666668"/>
      <point x="1217.666666666667" y="1429.6266666666668" type="curve" smooth="yes"/>
      <point x="1187.9466666666667" y="1429.6266666666668"/>
      <point x="1150.4933333333333" y="1400.0"/>
      <point x="1084.52" y="1400.0" type="curve" smooth="yes"/>
    </contour>
  </outline>
</glyph>
<glyph name="U" format="2">
  <advance width="1437.093333333333"/>
  <unicode hex="0055"/>
  <anchor x="820.6" y="1462.4266666666667" name="center"/>
  <outline>
    <contour>
      <point x="1175.1999999999998" y="611.8399999999998" type="line" smooth="yes"/>
      <point x="1178.8933333333334" y="556.0533333333334"/>
      <point x="1182.9733333333334" y="498.4533333333334"/>
      <point x="1183.4" y="403.2533333333333" type="curve" smooth="yes"/>
      <point x="1184.5733333333333" y="188.93333333333337"/>
      <point x="1045.7333333333333" y="58.720000000000006"/>
      <point x="837.5999999999999" y="58.720000000000006" type="curve" smooth="yes"/>
      <point x="662.8666666666666" y="58.720000000000006"/>
      <point x="552.1199999999999" y="163.42666666666668"/>
      <point x="553.0799999999999" y="409.1999999999999" type="curve" smooth="yes"/>
      <point x="553.4000000000001" y="465.19999999999993"/>
      <point x="553.9733333333332" y="545.44"/>
      <point x="559.7199999999999" y="640.1066666666666" type="curve" smooth="yes"/>
      <point x="598.2666666666667" y="1267.6" type="line" smooth="yes"/>
      <point x="599.8000000000001" y="1296.5066666666667"/>
      <point x="614.5066666666667" y="1309.8533333333335"/>
      <point x="646.9599999999999" y="1316.1599999999999" type="curve" smooth="yes"/>
      <point x="705.6533333333334" y="1326.72" type="line" smooth="yes"/>
      <point x="734.6133333333333" y="1333.1066666666666"/>
      <point x="746.7466666666668" y="1344.3999999999999"/>
      <point x="746.7466666666668" y="1365.4933333333329" type="curve" smooth="yes"/>
      <point x="746.7466666666668" y="1385.7333333333331"/>
      <point x="731.6266666666667" y="1400.0"/>
      <point x="704.1600000000001" y="1400.0" type="curve" smooth="yes"/>
      <point x="122.37333333333333" y="1400.0" type="line" smooth="yes"/>
      <point x="94.8" y="1400.0"/>
      <point x="79.67999999999999" y="1385.7333333333331"/>
      <point x="79.67999999999999" y="1365.4933333333329" type="curve" smooth="yes"/>
      <point x="79.67999999999999" y="1344.293333333333"/>
      <point x="92.77333333333334" y="1332.2533333333333"/>
      <point x="120.77333333333333" y="1326.2933333333333" type="curve" smooth="yes"/>
      <point x="176.37333333333333" y="1316.1599999999999" type="line" smooth="yes"/>
      <point x="214.93333333333334" y="1308.5733333333333"/>
      <point x="230.11999999999998" y="1295.5733333333333"/>
      <point x="228.15999999999997" y="1267.52" type="curve" smooth="yes"/>
      <point x="189.10666666666663" y="638.0533333333333" type="line" smooth="yes"/>
      <point x="182.6533333333333" y="538.1600000000001"/>
      <point x="175.98666666666668" y="444.82666666666665"/>
      <point x="175.77333333333334" y="396.77333333333337" type="curve" smooth="yes"/>
      <point x="174.7066631081727" y="141.95991459614504"/>
      <point x="363.47070242656446" y="-30.53333333333333"/>
      <point x="755.8933333333332" y="-30.53333333333333" type="curve" smooth="yes"/>
      <point x="1118.7333333333333" y="-30.53333333333333"/>
      <point x="1271.6" y="160.89333333333332"/>
      <point x="1270.1066666666668" y="407.52" type="curve" smooth="yes"/>
      <point x="1269.68" y="480.0533333333332"/>
      <point x="1265.6533333333334" y="547.2799999999999"/>
      <point x="1260.106666666667" y="617.9999999999999" type="curve" smooth="yes"/>
      <point x="1222.6266666666666" y="1173.1466666666668" type="line" smooth="yes"/>
      <point x="1217.2533333333333" y="1245.1200000000001"/>
      <point x="1251.5866666666668" y="1294.4266666666667"/>
      <point x="1327.5600000000002" y="1316.1333333333332" type="curve" smooth="yes"/>
      <point x="1365.8799999999999" y="1326.4266666666665" type="line" smooth="yes"/>
      <point x="1393.4" y="1334.5066666666667"/>
      <point x="1406.0400000000004" y="1345.1999999999998"/>
      <point x="1406.0400000000004" y="1365.5999999999997" type="curve" smooth="yes"/>
      <point x="1406.0400000000004" y="1385.7333333333331"/>
      <point x="1391.2933333333335" y="1400.0"/>
      <point x="1364.1999999999998" y="1400.0" type="curve" smooth="yes"/>
      <point x="992.9733333333335" y="1400.0" type="line" smooth="yes"/>
      <point x="966.3066666666666" y="1400.0"/>
      <point x="951.56" y="1385.7333333333331"/>
      <point x="951.56" y="1365.5999999999997" type="curve" smooth="yes"/>
      <point x="951.56" y="1345.3066666666664"/>
      <point x="961.8266666666668" y="1333.9066666666668"/>
      <point x="990.7333333333335" y="1326.2933333333333" type="curve" smooth="yes"/>
      <point x="1032.4399999999998" y="1316.2933333333335" type="line" smooth="yes"/>
      <point x="1102.9866666666665" y="1296.72"/>
      <point x="1133.52" y="1253.8666666666666"/>
      <point x="1138.8933333333332" y="1176.4533333333334" type="curve" smooth="yes"/>
    </contour>
  </outline>
</glyph>
<glyph name="V" format="2">
  <advance width="1369.0000000000002"/>
  <unicode hex="0056"/>
  <outline>
    <contour>
      <point x="961.8" y="1365.92" type="curve" smooth="yes"/>
      <point x="961.8" y="1347.8666666666666"/>
      <point x="972.0666666666667" y="1339.9866666666665"/>
      <point x="992.0133333333332" y="1331.7333333333331" type="curve" smooth="yes"/>
      <point x="1031.746666666667" y="1320.9333333333334" type="line" smooth="yes"/>
      <point x="1115.5866666666668" y="1292.2133333333336"/>
      <point x="1131.6399999999999" y="1238.9866666666667"/>
      <point x="1109.2933333333333" y="1166.0" type="curve" smooth="yes"/>
      <point x="780.7866666666667" y="117.0933333333333" type="line"/>
      <point x="854.1866666666666" y="199.90666666666667" type="line"/>
      <point x="522.04" y="1237.76" type="line" smooth="yes"/>
      <point x="506.33333333333326" y="1286.3733333333334"/>
      <point x="513.0799999999999" y="1307.04"/>
      <point x="547.6933333333334" y="1318.5866666666668" type="curve" smooth="yes"/>
      <point x="600.8933333333333" y="1331.3066666666664" type="line" smooth="yes"/>
      <point x="623.0533333333334" y="1339.84"/>
      <point x="633.0266666666668" y="1348.3466666666666"/>
      <point x="633.0266666666668" y="1365.92" type="curve" smooth="yes"/>
      <point x="633.0266666666668" y="1386.5866666666666"/>
      <point x="619.1866666666666" y="1400.0"/>
      <point x="588.4933333333333" y="1400.0" type="curve" smooth="yes"/>
      <point x="56.68000000000001" y="1400.0" type="line" smooth="yes"/>
      <point x="26.306666666666676" y="1400.0"/>
      <point x="12.04" y="1386.5866666666666"/>
      <point x="12.04" y="1365.92" type="curve" smooth="yes"/>
      <point x="12.04" y="1348.826666666667"/>
      <point x="20.493333333333332" y="1338.4400000000003"/>
      <point x="40.33333333333334" y="1329.28" type="curve" smooth="yes"/>
      <point x="75.72" y="1316.3466666666668" type="line" smooth="yes"/>
      <point x="99.53333333333336" y="1305.6133333333337"/>
      <point x="110.96" y="1291.84"/>
      <point x="123.29333333333332" y="1255.2" type="curve" smooth="yes"/>
      <point x="475.9066666666667" y="178.21333333333334" type="line" smooth="yes"/>
      <point x="486.48567688262165" y="145.27335733853812"/>
      <point x="494.8133333333334" y="117.19999999999999"/>
      <point x="494.8133333333334" y="97.12" type="curve" smooth="yes"/>
      <point x="494.8133333333334" y="36.77333333333332" type="line" smooth="yes"/>
      <point x="494.8133333333334" y="12.426666666666668"/>
      <point x="508.8666666666666" y="0.0"/>
      <point x="530.8666666666667" y="0.0" type="curve" smooth="yes"/>
      <point x="842.4666666666667" y="0.0" type="line" smooth="yes"/>
      <point x="864.4666666666666" y="0.0"/>
      <point x="878.6266666666667" y="12.853333333333333"/>
      <point x="878.6266666666667" y="35.49333333333334" type="curve" smooth="yes"/>
      <point x="878.6266666666667" y="96.64" type="line" smooth="yes"/>
      <point x="878.6266666666667" y="128.4"/>
      <point x="882.3333333333333" y="154.66666666666666"/>
      <point x="896.3866666666668" y="199.65333333333336" type="curve" smooth="yes"/>
      <point x="1195.0533333333335" y="1160.7733333333333" type="line" smooth="yes"/>
      <point x="1223.093333333333" y="1253.8400000000001"/>
      <point x="1262.6000000000004" y="1298.5333333333335"/>
      <point x="1313.2666666666664" y="1319.706666666667" type="curve" smooth="yes"/>
      <point x="1344.4133333333332" y="1331.7333333333331" type="line" smooth="yes"/>
      <point x="1365.5066666666667" y="1340.9466666666667"/>
      <point x="1374.5466666666669" y="1349.9999999999998"/>
      <point x="1374.5466666666669" y="1366.1333333333334" type="curve" smooth="yes"/>
      <point x="1374.5466666666669" y="1386.6933333333332"/>
      <point x="1360.8666666666666" y="1400.0"/>
      <point x="1330.6533333333334" y="1400.0" type="curve" smooth="yes"/>
      <point x="1005.1600000000001" y="1400.0" type="line" smooth="yes"/>
      <point x="975.2666666666667" y="1400.0"/>
      <point x="961.8" y="1386.5866666666666"/>
    </contour>
  </outline>
</glyph>
<glyph name="W" format="2">
  <advance width="2055.72"/>
  <unicode hex="0057"/>
  <anchor x="1139.1066666666668" y="1492.2133333333331" name="center"/>
  <outline>
    <contour>
      <point x="1018.1866666666665" y="1097.3066666666664" type="line"/>
      <point x="724.5200000000001" y="91.6" type="line"/>
      <point x="803.6666666666666" y="160.16000000000003" type="line"/>
      <point x="516.0399999999998" y="1255.5733333333333" type="line" smooth="yes"/>
      <point x="505.33333333333337" y="1294.2666666666667"/>
      <point x="510.06666666666666" y="1316.3733333333334"/>
      <point x="537.4266666666667" y="1323.1733333333332" type="curve" smooth="yes"/>
      <point x="601.0799999999999" y="1335.6799999999998" type="line" smooth="yes"/>
      <point x="616.3066666666665" y="1340.16"/>
      <point x="625.9599999999999" y="1351.9199999999998"/>
      <point x="625.9599999999999" y="1367.093333333333" type="curve" smooth="yes"/>
      <point x="625.9599999999999" y="1386.96"/>
      <point x="612.6" y="1400.0"/>
      <point x="583.7199999999999" y="1400.0" type="curve" smooth="yes"/>
      <point x="57.613333333333344" y="1400.0" type="line" smooth="yes"/>
      <point x="29.853333333333328" y="1400.0"/>
      <point x="16.06666666666667" y="1387.0666666666666"/>
      <point x="16.06666666666667" y="1367.3066666666664" type="curve" smooth="yes"/>
      <point x="16.06666666666667" y="1352.24"/>
      <point x="22.759999999999998" y="1339.7733333333335"/>
      <point x="39.879999999999995" y="1333.5466666666669" type="curve" smooth="yes"/>
      <point x="87.85333333333335" y="1319.4400000000003" type="line" smooth="yes"/>
      <point x="111.66666666666667" y="1310.7333333333333"/>
      <point x="122.6" y="1299.52"/>
      <point x="131.58666666666667" y="1266.8266666666666" type="curve" smooth="yes"/>
      <point x="430.97333333333336" y="151.22666666666666" type="line" smooth="yes"/>
      <point x="438.9733333333333" y="122.4"/>
      <point x="442.0933333333333" y="112.88000000000001"/>
      <point x="442.0933333333333" y="92.58666666666667" type="curve" smooth="yes"/>
      <point x="442.0933333333333" y="35.599999999999994" type="line" smooth="yes"/>
      <point x="442.0933333333333" y="12.426666666666666"/>
      <point x="455.9333333333333" y="0.0"/>
      <point x="476.75999999999993" y="0.0" type="curve" smooth="yes"/>
      <point x="788.12" y="0.0" type="line" smooth="yes"/>
      <point x="808.3066666666666" y="0.0"/>
      <point x="822.04" y="12.426666666666666"/>
      <point x="822.04" y="35.599999999999994" type="curve" smooth="yes"/>
      <point x="822.04" y="92.58666666666666" type="line" smooth="yes"/>
      <point x="822.04" y="121.94666666666663"/>
      <point x="826.4399999999999" y="141.44"/>
      <point x="833.72" y="162.58666666666664" type="curve" smooth="yes"/>
      <point x="1097.7600000000002" y="1078.2266666666665" type="line"/>
    </contour>
    <contour>
      <point x="1665.5066666666664" y="1365.92" type="curve" smooth="yes"/>
      <point x="1665.5066666666664" y="1350.5333333333328"/>
      <point x="1673.1066666666668" y="1340.5199999999998"/>
      <point x="1691.56" y="1333.4399999999998" type="curve" smooth="yes"/>
      <point x="1725.9333333333334" y="1323.9199999999996" type="line" smooth="yes"/>
      <point x="1801.986666666667" y="1299.0933333333335"/>
      <point x="1823.4533333333331" y="1249.6"/>
      <point x="1806.5733333333335" y="1180.3466666666666" type="curve" smooth="yes"/>
      <point x="1534.0933333333332" y="93.41333333333331" type="line"/>
      <point x="1606.4133333333332" y="156.16" type="line"/>
      <point x="1322.1200000000001" y="1254.4" type="line" smooth="yes"/>
      <point x="1310.5600000000002" y="1297.4666666666667"/>
      <point x="1316.7866666666666" y="1313.9733333333334"/>
      <point x="1343.08" y="1321.1466666666668" type="curve" smooth="yes"/>
      <point x="1399.6399999999999" y="1333.2266666666665" type="line" smooth="yes"/>
      <point x="1419.08" y="1339.4666666666665"/>
      <point x="1428.3066666666664" y="1350.2666666666669"/>
      <point x="1428.3066666666664" y="1366.293333333333" type="curve" smooth="yes"/>
      <point x="1428.3066666666664" y="1386.96"/>
      <point x="1414.84" y="1400.0"/>
      <point x="1386.0666666666666" y="1400.0" type="curve" smooth="yes"/>
      <point x="870.3066666666666" y="1400.0" type="line" smooth="yes"/>
      <point x="842.3866666666668" y="1400.0"/>
      <point x="827.6933333333333" y="1386.96"/>
      <point x="827.6933333333333" y="1366.293333333333" type="curve" smooth="yes"/>
      <point x="827.6933333333333" y="1351.7599999999998"/>
      <point x="834.8666666666668" y="1342.2800000000002"/>
      <point x="853.7466666666667" y="1335.36" type="curve" smooth="yes"/>
      <point x="899.8" y="1321.2533333333333" type="line" smooth="yes"/>
      <point x="918.76" y="1314.68"/>
      <point x="926.1066666666667" y="1306.1333333333337"/>
      <point x="937.5066666666668" y="1266.4533333333334" type="curve" smooth="yes"/>
      <point x="1234.3600000000004" y="152.23999999999998" type="line" smooth="yes"/>
      <point x="1242.7866666666666" y="122.13333333333335"/>
      <point x="1244.68" y="111.1733333333333"/>
      <point x="1244.68" y="92.58666666666667" type="curve" smooth="yes"/>
      <point x="1244.68" y="35.599999999999994" type="line" smooth="yes"/>
      <point x="1244.68" y="12.426666666666668"/>
      <point x="1258.52" y="0.0"/>
      <point x="1278.8133333333335" y="0.0" type="curve" smooth="yes"/>
      <point x="1595.2933333333333" y="0.0" type="line" smooth="yes"/>
      <point x="1615.3733333333332" y="0.0"/>
      <point x="1629.1066666666668" y="12.426666666666668"/>
      <point x="1629.1066666666668" y="35.599999999999994" type="curve" smooth="yes"/>
      <point x="1629.1066666666668" y="92.58666666666666" type="line" smooth="yes"/>
      <point x="1629.1066666666668" y="117.68"/>
      <point x="1632.7600000000002" y="132.48"/>
      <point x="1640.7866666666664" y="162.58666666666664" type="curve" smooth="yes"/>
      <point x="1890.2000000000003" y="1170.0533333333333" type="line" smooth="yes"/>
      <point x="1910.3733333333337" y="1252.6133333333335"/>
      <point x="1953.0533333333335" y="1297.2133333333336"/>
      <point x="2004.7866666666669" y="1319.7066666666667" type="curve" smooth="yes"/>
      <point x="2034.5733333333333" y="1331.7333333333331" type="line" smooth="yes"/>
      <point x="2057.16" y="1341.8000000000002"/>
      <point x="2064.493333333333" y="1349.8933333333332"/>
      <point x="2064.493333333333" y="1366.0266666666666" type="curve" smooth="yes"/>
      <point x="2064.493333333333" y="1386.4799999999998"/>
      <point x="2050.92" y="1400.0"/>
      <point x="2021.1333333333332" y="1400.0" type="curve" smooth="yes"/>
      <point x="1708.8666666666663" y="1400.0" type="line" smooth="yes"/>
      <point x="1679.3999999999996" y="1400.0"/>
      <point x="1665.5066666666664" y="1386.5866666666666"/>
    </contour>
  </outline>
</glyph>
<glyph name="X" format="2">
  <advance width="1412.1866666666667"/>
  <unicode hex="0058"/>
  <outline>
    <contour>
      <point x="1252.3466666666666" y="156.13333333333338" type="curve" smooth="yes"/>
      <point x="595.16" y="1254.8933333333334" type="line" smooth="yes"/>
      <point x="571.2710088523843" y="1293.5471227045434"/>
      <point x="576.1999999999999" y="1312.7733333333333"/>
      <point x="614.0799999999999" y="1321.0666666666666" type="curve" smooth="yes"/>
      <point x="667.5200000000001" y="1330.5466666666666" type="line" smooth="yes"/>
      <point x="687.4" y="1335.8799999999999"/>
      <point x="694.5333333333333" y="1347.5333333333333"/>
      <point x="694.5333333333333" y="1366.0133333333333" type="curve" smooth="yes"/>
      <point x="694.5333333333333" y="1386.7333333333333"/>
      <point x="682.4933333333332" y="1400.0"/>
      <point x="651.6133333333333" y="1400.0" type="curve" smooth="yes"/>
      <point x="78.18666666666667" y="1400.0" type="line" smooth="yes"/>
      <point x="48.56000000000001" y="1400.0"/>
      <point x="33.54666666666667" y="1387.4266666666667"/>
      <point x="33.54666666666667" y="1365.92" type="curve" smooth="yes"/>
      <point x="33.54666666666667" y="1348.6866666666665"/>
      <point x="40.666666666666664" y="1338.6"/>
      <point x="66.12" y="1328.5866666666668" type="curve" smooth="yes"/>
      <point x="111.66666666666669" y="1315.8533333333332"/>
      <point x="134.45302094135363" y="1302.8385568613878"/>
      <point x="164.30666666666664" y="1253.6933333333332" type="curve" smooth="yes"/>
      <point x="812.6800000000002" y="170.87999999999997" type="line" smooth="yes"/>
      <point x="844.6133333333333" y="118.65333333333331"/>
      <point x="835.3333333333333" y="89.05333333333334"/>
      <point x="763.4266666666667" y="73.67999999999999" type="curve" smooth="yes"/>
      <point x="734.24" y="64.73333333333335"/>
      <point x="723.8266666666667" y="54.18666666666666"/>
      <point x="723.8266666666667" y="33.96" type="curve" smooth="yes"/>
      <point x="723.8266666666667" y="13.200000000000003"/>
      <point x="738.0933333333332" y="0.0"/>
      <point x="768.5466666666666" y="0.0" type="curve" smooth="yes"/>
      <point x="1355.5066666666664" y="0.0" type="line" smooth="yes"/>
      <point x="1385.8666666666666" y="0.0"/>
      <point x="1400.0400000000002" y="13.213333333333335"/>
      <point x="1400.0400000000002" y="34.08" type="curve" smooth="yes"/>
      <point x="1400.0400000000002" y="52.093333333333334"/>
      <point x="1388.1066666666668" y="63.69333333333336"/>
      <point x="1365.1599999999999" y="71.78666666666666" type="curve" smooth="yes"/>
      <point x="1313.96" y="85.13333333333335"/>
      <point x="1288.6266666666668" y="97.70666666666665"/>
    </contour>
    <contour>
      <point x="816.0799999999998" y="710.1866666666666" type="line"/>
      <point x="1121.2533333333333" y="1148.386666666667" type="line" smooth="yes"/>
      <point x="1186.7566001548073" y="1241.7180265631316"/>
      <point x="1228.3085255345763" y="1292.802347477554"/>
      <point x="1307.7200000000003" y="1324.3200000000002" type="curve" smooth="yes"/>
      <point x="1335.3466666666666" y="1336.84"/>
      <point x="1349.3866666666665" y="1348.6266666666668"/>
      <point x="1349.3866666666665" y="1366.573333333333" type="curve" smooth="yes"/>
      <point x="1349.3866666666665" y="1387.3466666666664"/>
      <point x="1335.493333333333" y="1399.8133333333333"/>
      <point x="1305.5066666666664" y="1399.8133333333333" type="curve" smooth="yes"/>
      <point x="977.4933333333332" y="1399.8133333333333" type="line" smooth="yes"/>
      <point x="948.5733333333335" y="1399.8133333333333"/>
      <point x="935.5333333333334" y="1386.4933333333333"/>
      <point x="935.5333333333334" y="1365.7333333333333" type="curve" smooth="yes"/>
      <point x="935.5333333333334" y="1347.48"/>
      <point x="946.1333333333334" y="1335.8666666666666"/>
      <point x="963.6266666666666" y="1328.88" type="curve" smooth="yes"/>
      <point x="998.3866666666667" y="1320.0666666666664" type="line" smooth="yes"/>
      <point x="1063.2084545976606" y="1300.2734636207017"/>
      <point x="1085.44" y="1248.8"/>
      <point x="1033.3200000000002" y="1171.4266666666667" type="curve" smooth="yes"/>
      <point x="732.8933333333334" y="735.0933333333334" type="line"/>
    </contour>
    <contour>
      <point x="605.7733333333333" y="730.36" type="line"/>
      <point x="267.3066666666667" y="245.33333333333334" type="line" smooth="yes"/>
      <point x="204.81333333333336" y="155.06666666666666"/>
      <point x="162.30666666666664" y="111.25333333333332"/>
      <point x="61.519999999999996" y="72.41333333333336" type="curve" smooth="yes"/>
      <point x="35.120000000000005" y="60.41333333333331"/>
      <point x="26.293333333333337" y="50.519999999999996"/>
      <point x="26.293333333333337" y="34.28" type="curve" smooth="yes"/>
      <point x="26.293333333333337" y="13.413333333333338"/>
      <point x="40.373333333333335" y="0.0"/>
      <point x="69.93333333333331" y="0.0" type="curve" smooth="yes"/>
      <point x="402.6666666666667" y="0.0" type="line" smooth="yes"/>
      <point x="431.16" y="0.0"/>
      <point x="444.71999999999997" y="13.84"/>
      <point x="444.71999999999997" y="34.17333333333334" type="curve" smooth="yes"/>
      <point x="444.71999999999997" y="51.57333333333333"/>
      <point x="435.64" y="60.626666666666665"/>
      <point x="416.8666666666666" y="68.55999999999997" type="curve" smooth="yes"/>
      <point x="384.44" y="76.37333333333332" type="line" smooth="yes"/>
      <point x="320.2777762954129" y="96.12600044470949"/>
      <point x="300.52672127681933" y="143.81832439191572"/>
      <point x="348.9733333333334" y="213.2533333333333" type="curve" smooth="yes"/>
      <point x="688.2533333333334" y="699.1333333333332" type="line"/>
    </contour>
  </outline>
</glyph>
<glyph name="Y" format="2">
  <advance width="1332.8666666666668"/>
  <unicode hex="0059"/>
  <anchor x="779.0799999999999" y="1445.6533333333334" name="center"/>
  <outline>
    <contour>
      <point x="848.3999999999999" y="466.1066666666667" type="line"/>
      <point x="1145.7466666666664" y="1158.7333333333333" type="line" smooth="yes"/>
      <point x="1189.12" y="1261.72"/>
      <point x="1228.0133333333333" y="1302.9999999999998"/>
      <point x="1278.7866666666669" y="1323.1866666666665" type="curve" smooth="yes"/>
      <point x="1296.5333333333333" y="1330.6133333333332" type="line" smooth="yes"/>
      <point x="1315.5730462187005" y="1339.4798851541468"/>
      <point x="1323.4133333333332" y="1349.2533333333333"/>
      <point x="1323.4133333333332" y="1366.1999999999998" type="curve" smooth="yes"/>
      <point x="1323.4133333333332" y="1386.8666666666666"/>
      <point x="1309.4133333333334" y="1400.0"/>
      <point x="1279.4666666666667" y="1400.0" type="curve" smooth="yes"/>
      <point x="967.4266666666665" y="1400.0" type="line" smooth="yes"/>
      <point x="937.44" y="1400.0"/>
      <point x="923.4533333333331" y="1386.7866666666664"/>
      <point x="923.4533333333331" y="1365.8266666666666" type="curve" smooth="yes"/>
      <point x="923.4533333333331" y="1347.6666666666665"/>
      <point x="933.6133333333333" y="1336.2800000000002"/>
      <point x="949.92" y="1330.1599999999999" type="curve" smooth="yes"/>
      <point x="982.7333333333335" y="1320.9333333333334" type="line" smooth="yes"/>
      <point x="1062.6681914893256" y="1295.594209219869"/>
      <point x="1084.5066666666667" y="1233.8533333333332"/>
      <point x="1056.5733333333333" y="1166.6799999999998" type="curve" smooth="yes"/>
      <point x="767.24" y="491.7866666666667" type="line"/>
      <point x="844.0933333333332" y="533.7333333333333" type="line"/>
      <point x="534.1866666666667" y="1260.4266666666667" type="line" smooth="yes"/>
      <point x="519.2800000000001" y="1295.4533333333334"/>
      <point x="522.6" y="1308.813333333333"/>
      <point x="562.0400000000001" y="1318.68" type="curve" smooth="yes"/>
      <point x="612.4533333333333" y="1328.3466666666666" type="line" smooth="yes"/>
      <point x="636.4666666666668" y="1334.7333333333331"/>
      <point x="646.4533333333333" y="1346.7733333333333"/>
      <point x="646.4533333333333" y="1366.3866666666665" type="curve" smooth="yes"/>
      <point x="646.4533333333333" y="1387.16"/>
      <point x="631.4666666666667" y="1400.0"/>
      <point x="600.7066666666667" y="1400.0" type="curve" smooth="yes"/>
      <point x="66.22666666666667" y="1400.0" type="line" smooth="yes"/>
      <point x="35.57333333333332" y="1400.0"/>
      <point x="21.21333333333333" y="1386.8799999999999"/>
      <point x="21.21333333333333" y="1365.92" type="curve" smooth="yes"/>
      <point x="21.21333333333333" y="1349.7333333333331"/>
      <point x="30.30666666666667" y="1337.1733333333336"/>
      <point x="50.66666666666667" y="1330.1466666666665" type="curve" smooth="yes"/>
      <point x="80.58666666666667" y="1321.8533333333332" type="line" smooth="yes"/>
      <point x="106.84000000000002" y="1313.8933333333332"/>
      <point x="122.23999999999998" y="1302.28"/>
      <point x="139.85333333333332" y="1264.88" type="curve" smooth="yes"/>
      <point x="525.1333333333334" y="421.81333333333333" type="line"/>
    </contour>
    <contour>
      <point x="495.6" y="509.51999999999987" type="line"/>
      <point x="495.6" y="130.94666666666663" type="line" smooth="yes"/>
      <point x="495.6" y="106.5466666666667"/>
      <point x="479.98666666666674" y="92.28"/>
      <point x="449.0133333333334" y="84.16000000000001" type="curve" smooth="yes"/>
      <point x="391.63999999999993" y="71.78666666666668" type="line" smooth="yes"/>
      <point x="368.8533333333333" y="64.74666666666664"/>
      <point x="359.92" y="52.506666666666646"/>
      <point x="359.92" y="34.08" type="curve" smooth="yes"/>
      <point x="359.92" y="13.413333333333332"/>
      <point x="373.8666666666666" y="0.0"/>
      <point x="404.32000000000005" y="0.0" type="curve" smooth="yes"/>
      <point x="958.4933333333335" y="0.0" type="line" smooth="yes"/>
      <point x="989.0400000000002" y="0.0"/>
      <point x="1002.9866666666667" y="13.319999999999997"/>
      <point x="1002.9866666666667" y="34.17333333333334" type="curve" smooth="yes"/>
      <point x="1002.9866666666667" y="52.59999999999998"/>
      <point x="993.8666666666667" y="64.65333333333331"/>
      <point x="970.8933333333333" y="71.78666666666668" type="curve" smooth="yes"/>
      <point x="913.8933333333332" y="84.16000000000001" type="line" smooth="yes"/>
      <point x="883.0133333333332" y="92.27999999999999"/>
      <point x="867.3066666666666" y="106.54666666666667"/>
      <point x="867.3066666666666" y="131.03999999999996" type="curve" smooth="yes"/>
      <point x="867.3066666666666" y="514.6533333333332" type="line"/>
    </contour>
  </outline>
</glyph>
<glyph name="Z" format="2">
  <advance width="1240.533333333333"/>
  <unicode hex="005A"/>
  <anchor x="682.0933333333334" y="1490.3066666666666" name="center"/>
  <outline>
    <contour>
      <point x="1173.5066666666664" y="1320.3200000000002" type="line" smooth="yes"/>
      <point x="1186.0666666666666" y="1340.8133333333333"/>
      <point x="1192.2533333333336" y="1355.7466666666664"/>
      <point x="1192.2533333333336" y="1367.773333333333" type="curve" smooth="yes"/>
      <point x="1192.2533333333336" y="1388.12"/>
      <point x="1178.5200000000002" y="1400.0"/>
      <point x="1153.6933333333334" y="1400.0" type="curve" smooth="yes"/>
      <point x="316.94666666666666" y="1400.0" type="line" smooth="yes"/>
      <point x="254.15999999999997" y="1400.0"/>
      <point x="217.4133333333333" y="1429.0"/>
      <point x="188.44000000000003" y="1429.0" type="curve" smooth="yes"/>
      <point x="156.72" y="1429.0"/>
      <point x="140.66666666666666" y="1411.8"/>
      <point x="132.78666666666663" y="1371.6933333333336" type="curve" smooth="yes"/>
      <point x="77.70666666666666" y="1042.8533333333332" type="line" smooth="yes"/>
      <point x="72.66666666666667" y="1013.7066666666667"/>
      <point x="84.07999999999998" y="997.7733333333334"/>
      <point x="107.16" y="994.0" type="curve" smooth="yes"/>
      <point x="126.18666666666667" y="990.9733333333334"/>
      <point x="145.30666666666667" y="995.9199999999998"/>
      <point x="158.53333333333336" y="1022.28" type="curve" smooth="yes"/>
      <point x="185.5333333333333" y="1080.5466666666669" type="line" smooth="yes"/>
      <point x="277.13333333333327" y="1272.773333333333"/>
      <point x="347.21333333333337" y="1324.6133333333332"/>
      <point x="483.4" y="1324.6133333333332" type="curve" smooth="yes"/>
      <point x="823.9333333333333" y="1324.6133333333332" type="line"/>
      <point x="800.6666666666666" y="1376.2533333333336" type="line"/>
      <point x="43.120000000000005" y="81.22666666666669" type="line" smooth="yes"/>
      <point x="31.133333333333336" y="61.84"/>
      <point x="24.97333333333334" y="46.72"/>
      <point x="24.97333333333334" y="33.58666666666667" type="curve" smooth="yes"/>
      <point x="24.97333333333334" y="12.666666666666663"/>
      <point x="37.21333333333333" y="0.0"/>
      <point x="63.613333333333344" y="0.0" type="curve" smooth="yes"/>
      <point x="941.7333333333333" y="0.0" type="line" smooth="yes"/>
      <point x="1005.5333333333335" y="0.0"/>
      <point x="1041.6666666666667" y="-27.573333333333334"/>
      <point x="1070.6799999999998" y="-27.573333333333334" type="curve" smooth="yes"/>
      <point x="1102.52" y="-27.573333333333334"/>
      <point x="1117.6266666666666" y="-9.746666666666668"/>
      <point x="1125.7199999999998" y="29.466666666666665" type="curve" smooth="yes"/>
      <point x="1191.88" y="410.75999999999993" type="line" smooth="yes"/>
      <point x="1197.36" y="436.08"/>
      <point x="1188.4666666666667" y="454.41333333333336"/>
      <point x="1165.1066666666666" y="459.36" type="curve" smooth="yes"/>
      <point x="1142.7600000000002" y="464.2533333333333"/>
      <point x="1124.8266666666668" y="456.76"/>
      <point x="1114.5066666666667" y="432.2933333333333" type="curve" smooth="yes"/>
      <point x="1090.3999999999999" y="375.38666666666666" type="line" smooth="yes"/>
      <point x="975.12" y="124.0933333333333"/>
      <point x="900.16" y="75.38666666666666"/>
      <point x="753.8133333333332" y="75.38666666666666" type="curve" smooth="yes"/>
      <point x="311.58666666666664" y="75.38666666666666" type="line"/>
      <point x="419.4533333333333" y="26.90666666666667" type="line"/>
    </contour>
  </outline>
</glyph>
<glyph name="bracketleft" format="2">
  <advance width="705.1733333333333"/>
  <unicode hex="005B"/>
  <outline>
    <contour>
      <point x="423.20000000000005" y="1349.12" type="line" smooth="yes"/>
      <point x="423.20000000000005" y="1381.4933333333333"/>
      <point x="438.16" y="1393.52"/>
      <point x="473.84" y="1393.52" type="curve" smooth="yes"/>
      <point x="648.7466666666668" y="1393.52" type="line" smooth="yes"/>
      <point x="678.1466666666666" y="1393.52"/>
      <point x="692.0800000000002" y="1406.0933333333335"/>
      <point x="692.0800000000002" y="1429.3466666666666" type="curve" smooth="yes"/>
      <point x="692.0800000000002" y="1449.6133333333335"/>
      <point x="678.5199999999998" y="1464.6399999999999"/>
      <point x="648.7466666666668" y="1464.6399999999999" type="curve" smooth="yes"/>
      <point x="213.60000000000002" y="1464.6399999999999" type="line" smooth="yes"/>
      <point x="171.49333333333334" y="1464.6399999999999"/>
      <point x="155.06666666666666" y="1446.4"/>
      <point x="155.06666666666666" y="1404.1999999999998" type="curve" smooth="yes"/>
      <point x="155.06666666666666" y="-180.62666666666667" type="line" smooth="yes"/>
      <point x="155.06666666666666" y="-222.4"/>
      <point x="171.49333333333334" y="-241.0666666666667"/>
      <point x="213.60000000000002" y="-241.0666666666667" type="curve" smooth="yes"/>
      <point x="648.7466666666668" y="-241.0666666666667" type="line" smooth="yes"/>
      <point x="678.5199999999998" y="-241.0666666666667"/>
      <point x="692.0800000000002" y="-226.46666666666667"/>
      <point x="692.0800000000002" y="-206.20000000000002" type="curve" smooth="yes"/>
      <point x="692.0800000000002" y="-182.52"/>
      <point x="678.1466666666666" y="-170.37333333333333"/>
      <point x="648.7466666666668" y="-170.37333333333333" type="curve" smooth="yes"/>
      <point x="473.84" y="-170.37333333333333" type="line" smooth="yes"/>
      <point x="438.16" y="-170.37333333333333"/>
      <point x="423.20000000000005" y="-157.92000000000002"/>
      <point x="423.20000000000005" y="-125.54666666666665" type="curve" smooth="yes"/>
    </contour>
  </outline>
</glyph>
